<svg width="173" height="173" viewBox="0 0 173 173" fill="none" xmlns="http://www.w3.org/2000/svg">
<path fill-rule="evenodd" clip-rule="evenodd" d="M8.02009 122.685C8.63757 122.465 9.28735 122.172 9.78843 121.749C10.3836 121.246 10.6256 120.599 10.7881 119.917C10.9968 119.041 11.0802 118.108 11.3332 117.231C11.4269 116.905 11.6072 116.782 11.6845 116.727C11.8801 116.589 12.0777 116.552 12.2637 116.566C12.484 116.582 12.7867 116.666 12.9858 117.035C13.0142 117.088 13.0511 117.168 13.076 117.279C13.0941 117.36 13.1058 117.613 13.1249 117.717C13.1728 117.974 13.2129 118.231 13.2506 118.489C13.3758 119.349 13.4479 120.079 13.8436 120.869C14.3805 121.942 14.9185 122.598 15.6481 122.889C16.3536 123.17 17.1971 123.117 18.2748 122.896C18.3774 122.872 18.4789 122.85 18.5793 122.833C19.0545 122.75 19.5087 123.062 19.6021 123.535C19.6954 124.008 19.3934 124.469 18.9225 124.573C18.8242 124.595 18.7273 124.615 18.6315 124.634C17.1751 124.995 15.4891 126.282 14.5093 127.408C14.2073 127.756 13.7651 128.727 13.3141 129.347C12.9812 129.804 12.6072 130.105 12.2931 130.211C12.0827 130.283 11.9052 130.272 11.7587 130.236C11.5458 130.183 11.369 130.068 11.2335 129.885C11.1597 129.784 11.0912 129.65 11.0585 129.478C11.0429 129.395 11.0411 129.185 11.0415 129.09C10.9496 128.774 10.8371 128.465 10.7551 128.146C10.5596 127.385 10.1759 126.903 9.72029 126.266C9.29409 125.67 8.83632 125.296 8.16526 124.997C8.07796 124.976 7.37353 124.803 7.12477 124.704C6.76138 124.559 6.58819 124.316 6.52538 124.185C6.41857 123.963 6.40757 123.769 6.42887 123.607C6.46045 123.368 6.56762 123.164 6.75783 122.999C6.87565 122.896 7.05167 122.797 7.2873 122.748C7.46935 122.71 7.95231 122.688 8.02009 122.685ZM12.1526 121.444C12.1852 121.517 12.22 121.59 12.2569 121.664C13.0433 123.235 13.9227 124.111 14.9916 124.537L15.0274 124.551C14.3123 125.082 13.665 125.675 13.1703 126.244C12.9667 126.478 12.697 126.965 12.4056 127.464C12.1409 126.603 11.7079 125.995 11.1636 125.234C10.7476 124.653 10.3119 124.215 9.77637 123.859C10.1919 123.646 10.5883 123.396 10.9336 123.104C11.5085 122.619 11.8886 122.056 12.1526 121.444Z" fill="#C2F3A6"/>
<circle cx="23.7198" cy="17.9534" r="3.46" fill="#C2F3A6"/>
<circle cx="161.543" cy="90.0367" r="3.46" fill="#C2F3A6"/>
<path opacity="0.7" d="M80.8098 145.973C117.117 145.973 146.55 116.541 146.55 80.2334C146.55 43.9262 117.117 14.4934 80.8098 14.4934C44.5026 14.4934 15.0698 43.9262 15.0698 80.2334C15.0698 116.541 44.5026 145.973 80.8098 145.973Z" fill="url(#paint0_linear_4016_8965)"/>
<path fill-rule="evenodd" clip-rule="evenodd" d="M165.675 51.2401C164.626 51.2577 163.761 50.4215 163.744 49.3723C163.693 46.3776 161.637 41.795 158.356 38.0218C155.859 35.1497 153.004 33.1405 150.284 32.519C151.385 34.1214 152.141 35.8295 152.384 37.5741C152.82 40.7013 151.561 43.6123 148.53 45.7529C145.881 47.6231 143.064 47.7366 140.741 46.5588C138.519 45.4327 136.952 43.2347 136.353 40.8236C135.744 38.3764 136.095 35.5601 137.909 33.1982C138.938 31.8593 140.375 30.744 142.231 29.9252C137.776 26.8164 131.585 24.5534 125.343 24.6041C124.293 24.6127 123.436 23.7689 123.427 22.7196C123.419 21.6703 124.262 20.8128 125.312 20.8043C133.545 20.7374 141.635 24.171 146.783 28.6611C146.922 28.6403 147.063 28.6207 147.205 28.6022C152.56 27.9063 157.659 31.4284 161.224 35.5284C164.817 39.66 167.472 45.0745 167.543 49.3084C167.561 50.3576 166.724 51.2224 165.675 51.2401ZM145.594 32.772C143.183 33.402 141.738 34.4514 140.923 35.513C139.896 36.8498 139.677 38.4457 140.041 39.907C140.413 41.4044 141.358 42.6113 142.459 43.1694C143.458 43.6757 144.774 43.7527 146.338 42.6487C148.32 41.2494 148.842 39.6869 148.62 38.0991C148.399 36.5157 147.395 34.654 145.594 32.772Z" fill="#C2F3A6"/>
<path d="M31.9664 46.5022L31.479 49.181L31.9785 49.8325L31.7489 50.1846L31.4831 49.4767L31.6079 50.3184C32.5424 48.8892 33.4891 47.5907 34.6129 46.3034C37.6581 44.9643 53.7784 45.8093 58.6322 45.6063C60.038 46.8689 61.7983 47.4424 63.619 47.8405L64.058 48.4908C58.894 48.5637 40.7879 47.743 37.1909 48.7966C34.6653 52.2886 35.7286 81.0415 35.7407 87.1105C35.7488 90.2842 36.212 94.3669 35.4104 97.4286C34.6894 96.6256 34.3148 95.1042 34.1899 94.0313C33.3118 86.3631 34.057 77.8891 34.198 70.1452C34.2987 64.6499 34.0127 59.1489 34.1698 53.6609C33.6059 50.6322 34.48 49.9102 36.0791 47.4182C37.936 46.7683 40.3206 47.7639 41.9439 46.8408C39.8574 46.3962 37.1143 46.7285 34.9472 46.745C34.1376 47.9456 31.6321 51.1472 31.9584 52.6532C33.7549 60.9528 33.2715 83.299 32.8204 92.4039C32.6109 96.6284 31.6845 101.627 32.039 105.769C32.196 107.58 33.1265 110.103 34.7539 111.013C42.097 115.114 57.025 112.746 65.5363 112.811C66.2694 112.817 68.1183 112.876 68.3963 113.664C67.016 113.878 65.633 114.062 64.2473 114.215C59.3693 114.825 37.07 114.893 33.8113 112.779C32.0672 111.646 30.903 109.302 30.5365 107.307C29.4973 101.642 30.2908 91.2995 30.2747 85.1991L30.2304 63.4178C30.2263 59.1219 29.9766 54.6368 30.464 50.3639C30.6372 48.8292 31.0883 47.7655 31.9664 46.5022Z" fill="#203867"/>
<path d="M122.863 115.328C122.682 116.836 121.824 117.855 120.902 119.008C120.1 120.004 119.742 120.393 118.489 120.519C118.251 120.263 118.155 120.191 117.977 119.835C116.701 117.26 111.811 95.8358 112.564 93.8032C112.991 93.7202 113.027 93.6855 113.53 93.7447C115.472 93.9732 121.168 96.9998 122.453 98.4648C122.13 99.1054 121.865 99.3549 121.28 99.7626L120.656 100.276C120.084 98.8113 119.573 98.0482 118.034 97.3673C117.132 96.9672 116.487 96.9293 115.532 97.0945C114.779 97.7142 114.489 98.0365 114.453 99.0559C114.356 101.807 116.966 104.367 117.136 107.384L117.458 107.21L117.812 105.929C118.533 109.236 116.974 112.554 118.928 115.537C119.863 115.871 119.85 115.924 120.781 115.477C121.369 115.194 121.897 114.816 122.433 114.443L122.98 114.765L122.863 115.328Z" fill="#14244F"/>
<path d="M81.1734 88.0686C87.6788 87.6182 94.5184 87.8369 101.044 87.9135C102.639 87.932 104.162 87.7721 105.318 88.9538C105.596 90.1509 105.443 90.8483 105.108 92.0195C101.974 92.0498 83.6306 92.8298 81.8985 91.8386C81.5481 91.6376 81.2822 91.3145 80.972 91.0522C80.5612 89.9828 80.8995 89.1242 81.1734 88.0686Z" fill="#14244F"/>
<path d="M70.1364 123.572V124.061C68.8918 125.759 66.8898 125.432 64.9846 125.813C65.1497 126.18 65.0289 126.018 65.5807 126.299C67.055 127.047 87.1913 126.944 89.9827 126.653C91.026 126.544 92.0249 126.225 93.0078 125.86C92.1498 125.649 91.2838 125.692 90.4258 125.501C89.3422 125.259 88.4118 124.478 87.8317 123.552C86.5105 121.448 86.1963 117.315 86.7723 114.922C86.9375 114.229 87.0019 114.268 87.6021 113.893L87.9687 114.554C88.4077 117.486 88.9797 120.46 89.2053 123.414C91.9162 123.383 95.0862 122.761 97.1204 124.778C97.5031 125.157 97.7246 125.475 97.9422 125.965C97.9301 126.734 98.0107 126.971 97.4105 127.538C96.4921 128.41 94.8969 128.704 93.6724 128.867C88.1781 129.602 82.0837 129.058 76.537 129.013C73.234 128.986 69.6813 129.284 66.4105 129.023C64.9765 128.909 63.2646 128.522 62.2978 127.369C61.8145 126.799 61.887 126.54 61.7822 125.832C62.2334 124.749 62.89 124.127 63.9655 123.631C65.5606 122.896 68.4527 123.292 70.1364 123.572Z" fill="#1D3161"/>
<path d="M81.4956 77.9688C90.5829 77.4519 102.744 77.3242 111.803 77.8456C113.329 77.9334 114.453 77.9668 115.508 79.151C115.706 80.2638 115.271 80.9798 114.812 81.9552C104.609 82.2389 93.8859 82.5983 83.707 81.9927C82.3374 81.9113 81.6848 81.7715 80.7544 80.732C80.6859 79.4366 80.9316 79.1038 81.4956 77.9688Z" fill="#14244F"/>
<path d="M56.9724 55.8735C58.4024 55.6253 59.7598 55.5604 61.1777 55.9545C63.5744 56.6209 65.6005 58.0883 66.7284 60.3377C66.7902 60.461 66.8479 60.5859 66.9016 60.7124C66.958 60.8387 67.0103 60.9661 67.0587 61.0948C67.1097 61.2237 67.1554 61.3537 67.1957 61.4848C67.2386 61.6159 67.2789 61.7479 67.3165 61.8809C67.3514 62.0141 67.3836 62.148 67.4131 62.2826C67.4427 62.4171 67.4696 62.5524 67.4937 62.6883C67.5152 62.8242 67.534 62.9607 67.5501 63.0977C67.5662 63.2346 67.5797 63.3719 67.5904 63.5094C67.5985 63.647 67.6038 63.7846 67.6065 63.9224C67.6092 64.0602 67.6092 64.198 67.6065 64.3358C67.6012 64.4736 67.5931 64.6113 67.5823 64.7488C67.5716 64.886 67.5568 65.023 67.538 65.1597C67.5219 65.2965 67.5018 65.4327 67.4776 65.5683C67.4534 65.7039 67.4253 65.8389 67.393 65.9732C67.3608 66.1075 67.3259 66.241 67.2883 66.3737C67.2507 66.5064 67.2104 66.638 67.1674 66.7686C66.1846 69.7328 64.1504 71.1599 61.4959 72.4806C60.1304 72.7143 58.8575 72.7981 57.488 72.504C55.1195 71.9947 53.0451 70.6063 51.8407 68.4829C51.7682 68.3532 51.6984 68.2216 51.6312 68.0881C51.5641 67.9546 51.501 67.8195 51.4419 67.6828C51.3828 67.5461 51.3278 67.4079 51.2768 67.2682C51.2257 67.1288 51.1774 66.9879 51.1317 66.8455C51.0888 66.7034 51.0485 66.5601 51.0109 66.4156C50.9733 66.2714 50.9411 66.1262 50.9142 65.9801C50.8847 65.8339 50.8592 65.6872 50.8377 65.5397C50.8162 65.3925 50.7988 65.2446 50.7853 65.0961C50.7719 64.9478 50.7625 64.7993 50.7571 64.6505C50.7491 64.5017 50.7464 64.3527 50.7491 64.2036C50.7517 64.0548 50.7585 63.906 50.7692 63.7572C50.7773 63.6087 50.7907 63.4604 50.8095 63.3124C50.8283 63.1647 50.8498 63.0173 50.8739 62.8704C50.9008 62.7238 50.9303 62.5779 50.9626 62.4329C50.9948 62.2875 51.0324 62.1433 51.0753 62.0001C51.1156 61.8567 51.1599 61.7146 51.2083 61.5739C52.2274 58.5742 54.3018 57.2228 56.9724 55.8735Z" fill="#81B441"/>
<path d="M122.864 115.328L122.981 114.765L122.433 114.443C121.897 114.816 121.369 115.194 120.781 115.477C119.851 115.924 119.863 115.871 118.928 115.536C116.975 112.554 118.534 109.236 117.813 105.929L117.458 107.21L117.136 107.384C116.967 104.367 114.357 101.807 114.453 99.0558C114.49 98.0365 114.78 97.7142 115.533 97.0945C116.487 96.9293 117.132 96.9672 118.034 97.3673C119.573 98.0482 120.085 98.8113 120.657 100.276L121.281 99.7626C121.865 99.3548 122.131 99.1054 122.453 98.4648C124.29 99.184 128.141 100.491 129.152 102.134C131.351 102.849 134.082 103.551 135.701 105.275C135.975 106.123 136.197 106.338 135.726 107.166C134.747 108.888 130.686 109.858 128.825 110.289C130.59 111.482 134.541 115.464 134.851 117.607C134.868 117.713 134.851 117.821 134.851 117.928L134.65 118.559C133.333 118.794 130.3 118.921 129.345 119.762L129.369 120.206L128.95 120.668C128.479 119.311 125.337 115.657 124.072 114.854L122.864 115.328Z" fill="#203867"/>
<path d="M51.5953 74.6924C57.7381 77.0164 60.5739 77.1018 66.8214 74.6731C67.6995 75.24 68.6058 75.8121 69.4034 76.4926C72.2915 78.9609 74.656 83.5702 74.8856 87.3704C74.9702 88.7826 74.6157 90.4466 73.5281 91.4394C72.4486 92.4225 70.5957 92.1908 69.2141 92.2045C64.2717 92.2649 59.3252 92.1437 54.3827 92.1666C51.841 92.1783 48.9126 92.5607 46.4152 92.136C45.3558 91.9559 44.5462 91.3632 43.9943 90.4458C43.2008 89.1335 43.3257 87.4961 43.6359 86.0577C44.7235 80.9923 47.3135 77.4818 51.5953 74.6924Z" fill="#81B441"/>
<path d="M82.156 55.7273C88.2746 55.8002 109.551 54.7905 114.042 56.239C115.303 57.3699 115.581 58.2773 115.686 59.9631C115.911 63.6948 116.64 68.9814 113.998 71.8944C109.176 72.2139 84.2184 72.7414 81.8821 71.2151C81.2698 70.4411 80.8227 69.7175 80.6858 68.7207C80.1823 65.026 79.9768 58.7153 82.156 55.7273Z" fill="#FE0000"/>
<path d="M97.0116 43.2558C102.893 42.8964 116.705 42.1975 121.953 43.3464C123.54 43.6932 124.999 44.3449 126.199 45.4513C128.398 47.4776 128.97 50.4278 129.023 53.2928C129.192 62.6279 128.833 72.0112 128.809 81.3527C128.801 84.9684 129.345 88.7513 129.196 92.3114C129.147 93.4299 128.914 93.8268 128.153 94.6112C126.851 94.7124 126.352 94.2869 125.268 93.6354C124.672 93.2752 124.06 92.9323 123.46 92.579C123.379 83.2277 123.355 73.8767 123.387 64.526C123.387 60.3538 123.758 55.8884 123.371 51.7598C123.275 50.684 123.057 49.9531 122.372 49.1183C118.248 47.862 112.628 48.5002 108.282 48.5002L83.868 48.5204C79.7755 48.5208 75.5138 48.7645 71.4374 48.4676C68.9722 48.5522 66.5232 48.5522 64.058 48.491L63.6189 47.8407C61.7983 47.4426 60.038 46.869 58.6322 45.6065C53.7784 45.8095 37.6581 44.9645 34.6128 46.3036C33.489 47.5909 32.5424 48.8894 31.6079 50.3186L31.483 49.4769L31.7489 50.1848L31.9785 49.8327L31.479 49.1811L31.9664 46.5024C32.2846 46.0731 32.6149 45.6452 33.0016 45.278C34.1134 44.2255 35.3338 43.5068 36.8524 43.2919C43.974 42.2835 52.0584 43.0678 59.2968 43.0962C71.8483 43.1455 84.4722 42.8716 97.0116 43.2558Z" fill="#1D3161"/>
<path d="M34.9471 46.7451C37.1142 46.7286 39.8573 46.3963 41.9439 46.8409C40.3206 47.764 37.936 46.7684 36.079 47.4183C34.4799 49.9103 33.6058 50.6323 34.1697 53.661C34.0126 59.149 34.2986 64.65 34.1979 70.1452C34.0569 77.8892 33.3117 86.3632 34.1898 94.0313C34.3147 95.1043 34.6893 96.6257 35.4104 97.4287C37.0377 99.1221 37.5009 99.5037 39.9621 99.5613C62.4467 100.087 85.0321 99.4565 107.533 99.5855C108.616 104.33 109.434 109.514 111.037 114.091C106.3 114.554 91.191 113.377 87.9685 114.554L87.6019 113.893C87.0018 114.267 86.9373 114.228 86.7722 114.921C86.1962 117.315 86.5104 121.448 87.8316 123.552C88.4116 124.478 89.3421 125.259 90.4256 125.501C91.2836 125.692 92.1496 125.649 93.0076 125.86C92.0248 126.225 91.0258 126.544 89.9825 126.653C87.1911 126.944 67.0548 127.047 65.5806 126.299C65.0287 126.018 65.1496 126.18 64.9844 125.813C66.8897 125.432 68.8916 125.759 70.1363 124.061V123.572C69.8785 120.562 70.7929 117.241 71.3608 114.288C68.9896 114.277 66.6184 114.253 64.2472 114.215C65.6329 114.062 67.0159 113.878 68.3962 113.664C68.1182 112.876 66.2694 112.817 65.5363 112.811C57.025 112.747 42.0969 115.114 34.7538 111.013C33.1264 110.103 32.196 107.58 32.0389 105.769C31.6844 101.627 32.6108 96.6285 32.8203 92.404C33.2714 83.299 33.7548 60.9529 31.9583 52.6533C31.6321 51.1472 34.1375 47.9457 34.9471 46.7451Z" fill="#1D3161"/>
<path d="M111.037 114.091C105.196 112.825 92.802 115.111 88.6168 113.458C90.7799 110.761 102.473 113.065 106.53 111.368C107.279 110.43 107.472 109.947 107.569 108.753C106.731 106.928 107.025 104.62 106.151 102.972C105.696 102.11 104.685 101.641 103.766 101.474C100.057 100.803 95.4766 101.446 91.6822 101.473C82.7198 101.539 41.3959 102.516 37.1664 100.77C35.535 100.096 33.952 98.6095 33.3559 96.9217C32.3489 94.0949 33.3236 85.5436 33.4807 82.2026C33.8916 73.5606 32.8926 64.8292 33.38 56.2137C33.4324 55.3128 33.7869 54.4655 34.1696 53.6609C34.0125 59.1489 34.2984 64.6499 34.1977 70.1451C34.0567 77.8891 33.3115 86.3631 34.1897 94.0313C34.3145 95.1042 34.6892 96.6256 35.4102 97.4286C37.0375 99.122 37.5008 99.5036 39.9619 99.5612C62.4466 100.087 85.0319 99.4564 107.533 99.5854C108.616 104.33 109.434 109.514 111.037 114.091Z" fill="#1D3161"/>
<path d="M31.9664 46.5026C32.2846 46.0733 32.6149 45.6454 33.0016 45.2782C34.1134 44.2257 35.3338 43.507 36.8524 43.2921C43.974 42.2837 52.0584 43.068 59.2968 43.0964C71.8483 43.1457 84.4722 42.8718 97.0116 43.256L97.4426 43.3085C104 44.0686 115.927 42.2877 121.434 44.0588L121.43 44.0745L120.519 43.7765L120.104 44.282C106.627 44.3402 93.048 44.228 79.5862 44.9586C73.1413 45.3802 64.6139 44.7367 58.6322 45.6067C53.7784 45.8097 37.6581 44.9647 34.6128 46.3038C33.489 47.5911 32.5424 48.8896 31.6079 50.3188L31.483 49.4771L31.7489 50.185L31.9785 49.8329L31.479 49.1813L31.9664 46.5026Z" fill="#14244F"/>
<defs>
<linearGradient id="paint0_linear_4016_8965" x1="80.303" y1="-6.91315" x2="81.6498" y2="223.956" gradientUnits="userSpaceOnUse">
<stop stop-color="#F9F9F9"/>
<stop offset="1" stop-color="#EFEFEF"/>
</linearGradient>
</defs>
</svg>
