<svg width="185" height="185" viewBox="0 0 185 185" fill="none" xmlns="http://www.w3.org/2000/svg">
<path d="M102.597 149.876C140.257 149.876 170.785 119.683 170.785 82.4381C170.785 45.1931 140.257 15 102.597 15C64.9382 15 34.4094 45.1931 34.4094 82.4381C34.4094 119.683 64.9382 149.876 102.597 149.876Z" fill="url(#paint0_linear_89_2741)" fill-opacity="0.7"/>
<path d="M153.076 31.5547C151.85 32.2257 152.355 34.0901 153.751 34.0519L155.56 34.0023C156.059 33.9887 156.524 34.2554 156.763 34.6933L157.633 36.2802C158.304 37.5053 160.168 37.0009 160.13 35.6045L160.08 33.7958C160.067 33.2968 160.333 32.8321 160.771 32.5923L162.358 31.7231C163.583 31.0521 163.079 29.1877 161.683 29.2259L159.874 29.2754C159.375 29.2891 158.91 29.0223 158.67 28.5845L157.801 26.9976C157.13 25.7724 155.266 26.2769 155.304 27.6733L155.353 29.482C155.367 29.981 155.1 30.4456 154.663 30.6854L153.076 31.5547Z" fill="#C2F3A6"/>
<path fill-rule="evenodd" clip-rule="evenodd" d="M24.8034 96.2112C22.8596 117.369 35.7252 129.677 42.0377 133.075C43.5777 133.904 44.1542 135.824 43.3253 137.364C42.4964 138.904 40.5761 139.481 39.0361 138.652C31.0195 134.337 16.2697 119.871 18.4967 95.6318C18.6567 93.8902 20.1982 92.6081 21.9398 92.7681C23.6813 92.9281 24.9634 94.4697 24.8034 96.2112Z" fill="#C2F3A6"/>
<path fill-rule="evenodd" clip-rule="evenodd" d="M161.429 125.427C162.051 125.208 162.705 124.917 163.209 124.496C163.808 123.995 164.051 123.351 164.215 122.672C164.425 121.801 164.509 120.872 164.763 119.999C164.858 119.675 165.039 119.552 165.117 119.498C165.314 119.36 165.513 119.324 165.7 119.337C165.922 119.353 166.226 119.436 166.427 119.804C166.455 119.857 166.492 119.937 166.517 120.047C166.536 120.127 166.547 120.379 166.567 120.483C166.615 120.739 166.655 120.994 166.693 121.251C166.819 122.107 166.892 122.834 167.29 123.62C167.83 124.688 168.372 125.341 169.106 125.63C169.816 125.91 170.665 125.857 171.749 125.638C171.852 125.613 171.954 125.592 172.056 125.574C172.534 125.492 172.991 125.802 173.085 126.273C173.179 126.744 172.875 127.203 172.401 127.307C172.302 127.328 172.204 127.349 172.108 127.367C170.642 127.726 168.946 129.007 167.96 130.128C167.656 130.474 167.211 131.441 166.757 132.057C166.422 132.512 166.046 132.812 165.73 132.918C165.518 132.989 165.339 132.979 165.192 132.942C164.977 132.89 164.8 132.775 164.663 132.593C164.589 132.493 164.52 132.359 164.487 132.188C164.471 132.106 164.47 131.897 164.47 131.802C164.377 131.487 164.264 131.18 164.182 130.863C163.985 130.105 163.599 129.625 163.14 128.992C162.711 128.399 162.251 128.026 161.575 127.729C161.488 127.707 160.779 127.536 160.528 127.437C160.163 127.293 159.988 127.051 159.925 126.92C159.818 126.699 159.807 126.506 159.828 126.345C159.86 126.107 159.968 125.904 160.159 125.74C160.278 125.638 160.455 125.538 160.692 125.49C160.875 125.452 161.361 125.43 161.429 125.427ZM165.588 124.192C165.621 124.265 165.656 124.338 165.693 124.411C166.484 125.974 167.369 126.847 168.445 127.271L168.481 127.284C167.762 127.813 167.11 128.403 166.612 128.969C166.407 129.202 166.136 129.687 165.843 130.183C165.576 129.327 165.141 128.721 164.593 127.964C164.174 127.386 163.736 126.951 163.197 126.596C163.615 126.384 164.014 126.135 164.361 125.845C164.94 125.361 165.322 124.801 165.588 124.192Z" fill="#C2F3A6"/>
<ellipse cx="25.2595" cy="69.297" rx="3.22943" ry="3.19392" fill="#C2F3A6"/>
<path d="M30.7512 22.7704C30.8488 23.1089 31.2061 23.3038 31.5479 23.2048C31.8872 23.1061 32.0852 22.7507 31.9849 22.4121L30.7512 22.7704ZM30.7512 22.7704L30.5094 22.8401C30.6462 23.3145 31.1447 23.5835 31.6179 23.4465L31.6182 23.4465C32.0889 23.3095 32.3666 22.8156 32.2263 22.341C31.2816 19.1201 29.4145 16.596 26.5635 14.7756C26.1494 14.511 25.5956 14.6299 25.3297 15.044C25.0608 15.459 25.1838 16.0107 25.5985 16.2757L25.5986 16.2757C28.0755 17.8565 29.6886 20.0411 30.5097 22.8412L30.7512 22.7704Z" fill="#C2F3A6" stroke="#C2F3A6" stroke-width="0.503333"/>
<path d="M60.9264 23.7991L60.9265 23.799C61.5503 23.4838 61.777 22.881 61.7191 22.2282C61.668 21.6294 61.3478 20.9575 61.1732 20.6506C61.1732 20.6505 61.1731 20.6505 61.1731 20.6504L60.9544 20.7749L60.9264 23.7991ZM60.9264 23.7991C60.1886 24.1714 59.5651 24.1448 59.0694 23.8993C58.5958 23.6652 58.2466 23.2162 58.0331 22.6531L58.0331 22.653M60.9264 23.7991L58.0331 22.653M58.0331 22.653C57.8297 22.1158 57.7478 21.4525 57.7392 20.8227C57.7315 20.2516 57.7839 19.6909 57.8708 19.2506C57.3754 18.7534 56.8357 18.3002 56.26 17.8944C51.7388 14.7074 45.0474 15.8521 39.8494 20.7057C38.9766 21.5211 38.3128 22.8038 37.81 24.3888C37.3084 25.9697 36.9747 27.826 36.7456 29.7631L36.7456 29.7631M58.0331 22.653L36.7456 29.7631M36.7456 29.7631C36.1244 35.0096 36.3514 40.7905 36.4585 43.5197C36.4746 43.9289 36.488 44.2695 36.4954 44.5293L36.4954 44.5299M36.7456 29.7631L36.4954 44.5299M36.4954 44.5299C36.5021 44.7835 36.4935 44.9886 36.4793 45.1406C36.4722 45.2165 36.4636 45.2808 36.4543 45.3324C36.4465 45.3756 36.435 45.4295 36.416 45.4735C36.2497 45.8654 35.9421 45.9728 35.7482 46.0094L35.7455 46.0098M36.4954 44.5299L35.7455 46.0098M35.7455 46.0098C35.4709 46.0586 35.2429 46.0063 35.0592 45.9116L35.0579 45.9109M35.7455 46.0098L35.0579 45.9109M35.0579 45.9109C34.8075 45.7799 34.6079 45.5496 34.5178 45.2157L34.5173 45.2139M35.0579 45.9109L34.5173 45.2139M34.5173 45.2139C34.4695 45.0311 34.4602 44.7969 34.4655 44.5733L34.4656 44.5707M34.5173 45.2139L34.4656 44.5707M34.4656 44.5707C34.4672 44.5217 34.4724 44.4579 34.4766 44.4054C34.4789 44.3773 34.4809 44.3525 34.482 44.3348C34.4864 44.2621 34.4828 44.2314 34.4801 44.2219L34.7222 44.1532L34.4804 44.2229C34.3074 43.6224 34.1035 43.0343 33.8965 42.4372C33.8663 42.3501 33.836 42.2628 33.8058 42.1753L33.8056 42.1748M34.4656 44.5707L33.8056 42.1748M33.8056 42.1748C33.0224 39.8909 32.0085 37.7474 30.878 35.5994L31.1007 35.4822M33.8056 42.1748L31.1007 35.4822M31.1007 35.4822L30.878 35.5994C30.5744 35.0225 30.2719 34.4433 29.9689 33.8632C26.6695 27.5463 23.315 21.1239 17.9466 16.383L17.9465 16.383M31.1007 35.4822L17.9465 16.383M17.9465 16.383C17.5783 16.0576 17.5412 15.4935 17.8713 15.1246C18.1983 14.7563 18.7625 14.725 19.1323 15.0491L19.133 15.0497M17.9465 16.383L19.133 15.0497M19.133 15.0497C24.7294 19.9907 28.2267 26.6775 31.6134 33.1528C31.8967 33.6944 32.1792 34.2345 32.4621 34.7721L32.4621 34.7721M19.133 15.0497L32.4621 34.7721M32.4621 34.7721C33.2159 36.205 33.9227 37.6423 34.5484 39.1221C34.5131 35.89 34.604 31.8339 35.1519 28.1865C35.4312 26.3268 35.8375 24.5671 36.4023 23.0579C36.9663 21.5511 37.6943 20.2771 38.6269 19.4058L38.6269 19.4058M32.4621 34.7721L38.6269 19.4058M38.6269 19.4058C44.4366 13.9808 52.0714 12.7579 57.2929 16.44L57.2929 16.4401M38.6269 19.4058L57.2929 16.4401M57.2929 16.4401C57.7605 16.7701 58.2098 17.1281 58.6345 17.5126C61.4264 12.8146 67.1487 10.9662 72.2132 13.2658C72.6639 13.4698 72.8614 13.9988 72.657 14.4464L72.657 14.4464M57.2929 16.4401L72.657 14.4464M72.657 14.4464L72.6563 14.448M72.657 14.4464L72.6563 14.448M72.6563 14.448C72.449 14.8941 71.9205 15.0906 71.471 14.8873L71.4707 14.8871M72.6563 14.448L71.4707 14.8871M71.4707 14.8871C67.1009 12.9029 62.1556 14.6285 59.9287 18.8586L71.4707 14.8871ZM59.4713 22.1132C59.5407 22.296 59.6127 22.4596 59.7541 22.5292C59.8672 22.5857 60.0059 22.5437 60.1833 22.4568M59.4713 22.1132L59.8627 22.3027C59.8627 22.3028 59.8632 22.3029 59.8643 22.3031M59.4713 22.1132C59.3434 21.7773 59.2788 21.3615 59.2594 20.9466C59.3628 21.1035 59.4622 21.2634 59.558 21.4265M59.4713 22.1132L59.558 21.4265M60.1833 22.4568H59.9316C59.9316 22.4333 59.931 22.3958 59.9288 22.3568C59.9274 22.332 59.9255 22.3103 59.9234 22.2929M60.1833 22.4568L60.0736 22.233L60.1653 22.2129M60.1833 22.4568C60.1833 22.4031 60.1807 22.287 60.1653 22.2129M59.9234 22.2929C59.913 22.296 59.9035 22.2983 59.8949 22.3001C59.8775 22.3036 59.8684 22.3035 59.8647 22.3031M59.9234 22.2929C59.922 22.2818 59.9206 22.2725 59.9191 22.2652C59.8578 21.987 59.7091 21.6911 59.6176 21.5291M59.9234 22.2929C59.958 22.2826 60.0033 22.2644 60.0636 22.2352L59.8363 21.4046M59.8647 22.3031C59.8649 22.3032 59.865 22.3033 59.8652 22.3033L59.8666 22.304C59.866 22.3038 59.8656 22.3036 59.8651 22.3034C59.8648 22.3033 59.8645 22.3032 59.8643 22.3031M59.8647 22.3031C59.8513 22.2964 59.8295 22.2799 59.8004 22.2323C59.7695 22.1819 59.7412 22.115 59.7066 22.0238L59.7065 22.0235C59.6395 21.8477 59.5907 21.6438 59.558 21.4265M59.8647 22.3031C59.8645 22.3031 59.8644 22.3031 59.8643 22.3031M59.8643 22.3031L59.558 21.4265M59.558 21.4265C59.5308 21.2464 59.5146 21.0572 59.5081 20.867C59.6222 21.0426 59.7314 21.2219 59.8363 21.4046M59.558 21.4265C59.578 21.4606 59.5979 21.4948 59.6176 21.5291M59.6176 21.5291C59.6175 21.5289 59.6173 21.5287 59.6172 21.5285L59.8363 21.4046M59.6176 21.5291C59.6177 21.5294 59.6179 21.5297 59.618 21.5299L59.8363 21.4046M60.1653 22.2129L60.0731 22.2321L60.1653 22.2129Z" fill="#C2F3A6" stroke="#C2F3A6" stroke-width="0.503333"/>
<path d="M121.109 75.424C121.896 75.2895 122.703 75.1664 123.501 75.1322C124.598 75.0853 126.338 75.3796 127.133 76.2094C127.561 76.6589 127.414 76.8276 127.406 77.4088C125.763 80.0449 124.166 79.7682 121.639 80.8103C118.986 81.907 117.852 85.5933 116.882 88.0586L116.927 88.6651L116.206 89.2768C115.036 89.3706 114.808 89.3343 113.752 88.8298C112.868 87.3377 112.322 85.901 112.839 84.1624C114.054 80.0693 117.555 77.3897 121.109 75.424Z" fill="#FE0000"/>
<path d="M90.5739 116.856L91.6092 115.733L92.3631 115.832C93.5084 118.531 92.4079 122.794 91.336 125.402C91.0385 126.129 90.6839 126.763 90.2234 127.396C89.396 127.6 88.9558 127.5 88.1488 127.317L87.8351 127.889L88.0551 128.567C89.775 129.18 111.266 128.818 113.312 128.143L113.353 128.029L112.33 127.321C112.155 127.377 111.984 127.463 111.8 127.49C111.678 127.507 111.189 127.385 111.087 127.363C110.325 127.2 109.628 127.157 108.849 127.133L108.666 126.78C109.616 126.704 110.602 126.865 111.299 126.196C113.174 126.101 115.187 125.838 116.769 127.02C117.172 128.057 117.201 128.408 116.923 129.486C116.528 129.939 116.186 130.344 115.627 130.598C113.21 131.696 83.9631 131.353 81.8437 130.268C80.9389 129.804 80.7595 129.442 80.5068 128.495C80.6699 127.99 80.8044 127.549 81.1835 127.16C82.8627 125.443 86.702 126.053 88.9477 126.129C89.0333 126.029 89.127 125.938 89.2004 125.829C90.3538 124.09 90.8266 118.932 90.5739 116.856Z" fill="#1E3362"/>
<path d="M122.181 66.458C123.245 66.3373 124.447 66.2407 125.466 66.6463C126.489 67.0538 126.652 67.5262 127.027 68.5015C126.966 68.8515 126.929 69.6919 126.766 69.9675C126.305 70.7663 117.319 72.6104 115.11 74.4139C109.012 79.3983 110.496 86.3173 108.018 88.8739C107.08 89.2041 106.669 89.1804 105.727 89.0072C105.067 88.3221 104.843 88.0862 104.639 87.1569C103.885 83.7396 105.625 79.2825 107.353 76.3987C110.842 70.5812 115.815 68.0764 122.181 66.458Z" fill="#FE0000"/>
<path d="M141.455 45.4699C142.988 44.5558 143.962 44.797 145.649 45.009C146.855 45.5013 147.944 46.1257 148.51 47.3667C148.694 47.775 148.779 48.1598 148.812 48.6036C149.183 49.1677 149.448 49.7578 149.537 50.4335C150.051 54.3171 150.124 78.0071 149.537 81.5345C149.439 82.1169 149.26 82.5025 149.011 83.0327C149.419 83.9631 149.843 84.6857 149.619 85.7282C148.294 86.4773 146.293 85.6484 144.858 85.269C144.928 85.1345 145.005 85.0028 145.07 84.8655C146.016 82.9027 145.828 60.9892 145.021 58.5761C145.082 58.4012 145.197 58.1021 145.246 57.9061C145.816 55.5345 146.419 49.3922 144.997 47.2909C143.998 45.8114 143.081 45.6977 141.455 45.4699Z" fill="#1E3362"/>
<path d="M79.3941 43.4032C89.0984 43.0633 98.8638 43.2964 108.572 43.311C114.074 43.3192 120.106 42.8448 125.547 43.4305C130.332 43.2984 140.909 42.2143 145.033 44.0936C145.266 44.3845 145.551 44.6438 145.649 45.0089C143.962 44.797 142.987 44.5557 141.455 45.4699C143.081 45.6977 143.998 45.8114 144.997 47.2908C146.419 49.3922 145.816 55.5345 145.245 57.906C145.197 58.1021 145.082 58.4012 145.021 58.576C145.828 60.9892 146.016 82.9026 145.07 84.8654C145.005 85.0028 144.928 85.1344 144.858 85.2689C142.348 80.7993 146.57 53.3866 143.098 48.9818C139.572 47.2325 126.126 48.2412 121.5 48.1972L80.7025 48.2376C73.5537 48.2417 66.1562 47.8838 59.0319 48.3741C57.5809 48.474 55.1844 48.6892 54.031 49.6176C51.7486 51.4597 55.1926 95.4855 52.6697 100.122L51.8138 100.134C50.7949 97.0595 51.1128 51.5559 51.6345 50.4706C52.3151 49.0629 53.44 47.6694 54.948 47.1441C57.1937 47.389 58.7669 47.4392 60.8496 46.479C59.9611 46.0963 59.4027 46.0396 58.9055 45.1874C61.8685 44.2831 64.3711 46.3877 67.2811 46.5205C75.1513 46.8796 83.0419 46.6281 90.9162 46.4908L89.9095 46.3551L89.722 45.8342C88.4545 44.8977 87.9695 44.8675 86.384 44.6539C84.8801 43.9224 81.2119 43.7842 79.3941 43.4032Z" fill="#1A2E60"/>
<path d="M125.548 43.4305C130.332 43.2984 140.909 42.2143 145.034 44.0936C145.266 44.3845 145.551 44.6438 145.649 45.0089C143.962 44.797 142.988 44.5557 141.455 45.4699L141.039 45.8448C133.805 46.5002 126.261 45.7026 118.982 45.5909C111.539 45.4764 103.836 46.0156 96.394 45.1683L96.4347 44.6511C100.971 43.9464 123.55 44.5916 124.875 44.0063C125.144 43.8873 125.323 43.6224 125.548 43.4305Z" fill="#172854"/>
<path d="M124.003 86.2594C124.495 86.0997 124.929 85.9863 125.453 86.0013C128.259 86.0814 152.563 92.8128 153.802 94.2093L153.709 94.9831C152.239 97.3138 148.261 99.3267 145.75 100.289C146.022 100.435 146.271 100.566 146.51 100.765C148.3 102.255 155.728 109.082 156 111.043C155.994 111.132 155.997 111.222 155.977 111.31C155.657 112.891 153.534 114.67 152.239 115.485C151.78 116.909 149.595 118.304 148.365 119C147.989 117.784 139.4 109.408 137.775 108.325C137.791 108.663 137.772 108.925 137.626 109.237C136.716 111.21 134.516 115.411 132.519 116.208C132.308 116.058 132.237 116.025 132.056 115.791C130.221 113.41 123.838 89.3666 124.003 86.2594Z" fill="#FE0000"/>
<path d="M76.8833 55.4545C82.5485 55.0616 87.3375 55.7374 91.9512 59.3051C92.2093 59.5051 92.462 59.7113 92.7093 59.9238C92.9566 60.1363 93.1984 60.3547 93.4348 60.5791C93.6739 60.8038 93.9048 61.0341 94.1276 61.2699C94.3532 61.506 94.5732 61.7475 94.7879 61.9942C94.9998 62.2412 95.2063 62.4931 95.4074 62.7502C95.6084 63.0075 95.8028 63.2695 95.9903 63.5364C96.1805 63.8032 96.3625 64.0745 96.5364 64.3503C96.7103 64.6263 96.8774 64.9063 97.0377 65.1902C97.198 65.4744 97.3515 65.7624 97.4983 66.0542C97.645 66.346 97.7836 66.6413 97.914 66.9399C98.0444 67.2385 98.168 67.5402 98.2849 67.845C98.4017 68.1499 98.5104 68.4575 98.6109 68.7677C98.7142 69.0778 98.8079 69.3902 98.8921 69.7051C98.9791 70.02 99.0565 70.3368 99.1245 70.6555C99.1951 70.9742 99.2576 71.2946 99.3119 71.6166C99.3663 71.9383 99.4125 72.2612 99.4506 72.5853C99.4859 72.9135 99.513 73.2424 99.532 73.572C99.5511 73.9016 99.5632 74.2313 99.5687 74.5611C99.5714 74.8913 99.566 75.2213 99.5524 75.5511C99.5389 75.8809 99.5171 76.2103 99.4872 76.539C99.4573 76.8678 99.4192 77.1956 99.373 77.5224C99.3268 77.8493 99.2725 78.1749 99.2101 78.4994C99.1476 78.8235 99.0783 79.1459 99.0022 79.4665C98.9234 79.7874 98.8365 80.106 98.7414 80.4222C98.649 80.7388 98.5471 81.0527 98.4357 81.3641C98.327 81.6757 98.2101 81.9842 98.0852 82.2896C97.9602 82.5953 97.8284 82.8977 97.6898 83.1968C97.5485 83.4957 97.4018 83.7911 97.2496 84.0829C97.0947 84.3747 96.9331 84.6624 96.7646 84.9461C96.5962 85.2297 96.4195 85.5092 96.2348 85.7844C96.0527 86.0594 95.8639 86.3297 95.6683 86.5955C95.4726 86.8609 95.2702 87.1215 95.061 87.3772C91.67 91.4853 87.0196 93.6784 81.7782 94.1723C77.9919 94.7971 73.2641 93.6083 69.9791 91.6948C69.7019 91.5304 69.4302 91.3592 69.1639 91.1813C68.8949 91.0036 68.6314 90.8192 68.3732 90.6282C68.1151 90.4375 67.8624 90.2404 67.6151 90.0369C67.3651 89.8334 67.1206 89.6239 66.8815 89.4084C66.6451 89.1927 66.4128 88.9714 66.1845 88.7445C65.9563 88.5174 65.7349 88.2846 65.5202 88.0463C65.3029 87.8083 65.0923 87.5652 64.8885 87.3168C64.6847 87.0682 64.4877 86.8149 64.2975 86.5567C64.1073 86.2984 63.9225 86.0355 63.7432 85.7681C63.5639 85.5008 63.3927 85.2291 63.2296 84.953C63.0639 84.6772 62.9063 84.3975 62.7569 84.1138C62.6047 83.8299 62.4607 83.5426 62.3249 83.2519C62.189 82.9609 62.0599 82.6667 61.9377 82.3695C61.8154 82.0723 61.6999 81.7722 61.5912 81.4692C61.4852 81.1663 61.3861 80.8609 61.2937 80.553C61.2013 80.2452 61.1171 79.9352 61.041 79.623C60.9622 79.3092 60.8902 78.9934 60.825 78.6758C60.7598 78.3582 60.7027 78.0392 60.6538 77.7189C60.6076 77.3988 60.5682 77.0775 60.5356 76.755C60.503 76.4328 60.4785 76.1099 60.4622 75.7863C60.4459 75.4627 60.4377 75.1389 60.4377 74.8151C60.4377 74.4912 60.4459 74.1674 60.4622 73.8438C60.4758 73.5202 60.499 73.1973 60.5316 72.8751C60.5642 72.5526 60.6049 72.2311 60.6538 71.9108C60.7 71.5905 60.7557 71.2715 60.8209 70.9539C60.8834 70.6363 60.9541 70.3204 61.0329 70.0063C61.1144 69.6922 61.2027 69.3804 61.2978 69.071C61.3929 68.7612 61.4948 68.4541 61.6034 68.1495C61.7148 67.8449 61.8331 67.5432 61.9581 67.2443C62.0831 66.9457 62.2162 66.6504 62.3575 66.3583C62.4961 66.0662 62.6427 65.7778 62.7976 65.493C62.9525 65.2083 63.1142 64.9275 63.2827 64.6506C66.4169 59.5093 71.1488 56.797 76.8833 55.4545Z" fill="#81B441"/>
<path d="M53.0325 43.4891C61.5711 42.9129 70.8474 42.9076 79.3942 43.4031C81.2119 43.7842 84.8801 43.9224 86.3841 44.6539C87.9695 44.8675 88.4545 44.8976 89.7221 45.8342L89.9095 46.3551L90.9162 46.4908C83.0419 46.6281 75.1514 46.8796 67.2812 46.5205C64.3711 46.3877 61.8686 44.2831 58.9056 45.1874C59.4028 46.0396 59.9612 46.0963 60.8497 46.479C58.767 47.4392 57.1938 47.389 54.9481 47.1441C53.44 47.6694 52.3152 49.0629 51.6345 50.4706C51.1129 51.5559 50.7949 97.0595 51.8139 100.134L52.6698 100.122C52.9388 100.357 53.4237 100.912 53.7253 101.043C56.5661 102.269 97.5556 100.598 105.222 101.326C110.512 101.218 115.804 101.196 121.097 101.261C122.23 102.703 125.662 113.709 125.323 115.512C125.303 115.629 125.25 115.738 125.213 115.851C119.904 115.783 114.593 115.77 109.281 115.812L107.614 115.95C106.84 117.228 106.893 120.027 107.203 121.496C107.492 122.852 108.087 125.167 109.2 126.029L111.299 126.196C110.602 126.866 109.616 126.705 108.666 126.78L108.849 127.133C109.628 127.157 110.325 127.2 111.087 127.364C111.189 127.385 111.678 127.508 111.8 127.49C111.984 127.464 112.155 127.378 112.33 127.322L113.353 128.029L113.312 128.143C111.266 128.819 89.775 129.18 88.0551 128.568L87.835 127.89L88.1488 127.318C88.9558 127.5 89.396 127.601 90.2234 127.396C90.6839 126.764 91.0385 126.13 91.336 125.403C92.4079 122.795 93.5084 118.532 92.3631 115.833L91.6092 115.734L90.5739 116.857L90.5005 116.272C89.3797 115.23 61.3592 116.023 56.3339 115.625C54.3734 115.619 52.7921 115.24 51.2596 113.947C49.666 112.604 48.5329 110.512 48.3128 108.447C47.8971 104.481 47.8441 51.8334 48.4718 49.0959C49.075 46.4924 51.3085 45.6895 52.7839 43.8152C52.8695 43.7076 52.951 43.598 53.0325 43.4891Z" fill="#1F3C72"/>
<path d="M105.222 101.326C110.512 101.217 115.804 101.196 121.097 101.261C122.23 102.703 125.662 113.709 125.323 115.512C125.303 115.629 125.25 115.738 125.213 115.851C119.904 115.782 114.593 115.769 109.281 115.811C108.817 115.4 107.969 115.292 107.37 115.125L107.455 114.552C109.269 113.614 111.095 114.123 112.958 113.563C115.505 112.798 118.492 113.61 120.865 112.475C121.586 112.128 121.529 111.991 121.806 111.24C121.313 109.706 121.191 106.768 120.102 105.612C119.324 104.789 118.126 104.49 117.046 104.333C114.254 103.927 111.323 104.411 108.503 104.262C95.2609 103.559 82.0149 103.405 68.7566 103.187C64.7053 103.12 60.6132 103.339 56.5742 103.15C55.6246 103.106 54.834 103.046 54.2063 102.322C55.9629 101.055 90.4842 101.758 95.9293 101.732C98.3136 101.721 102.732 102.238 104.892 101.482C105.006 101.441 105.112 101.378 105.222 101.326Z" fill="#1E3362"/>
<path d="M75.3921 85.1652C75.1986 85.1652 75.0315 85.0929 74.8908 84.9483C74.7677 84.8038 74.7062 84.6179 74.7062 84.3907V81.6646H72.754C72.5605 81.6646 72.4023 81.5923 72.2791 81.4478C72.156 81.2825 72.0945 81.0863 72.0945 80.8592V79.62C72.0945 79.3929 72.156 79.207 72.2791 79.0624C72.4198 78.9178 72.5781 78.8456 72.754 78.8456H74.7062V77.2966H72.754C72.5781 77.2966 72.4198 77.2244 72.2791 77.0798C72.156 76.9146 72.0945 76.7287 72.0945 76.5222V74.0439C72.0945 73.8167 72.156 73.6308 72.2791 73.4863C72.4198 73.3417 72.5781 73.2694 72.754 73.2694H74.7062V64.2857C74.7062 64.0585 74.7677 63.8726 74.8908 63.7281C75.0315 63.5628 75.1986 63.4802 75.3921 63.4802H82.8578C85.1266 63.4802 86.9117 64.0895 88.2131 65.308C89.5146 66.5264 90.1653 68.3129 90.1653 70.6672C90.1653 72.877 89.5146 74.5396 88.2131 75.6548C86.9292 76.7494 85.1441 77.2966 82.8578 77.2966H79.8504V78.8456H83.2271C83.4206 78.8456 83.5789 78.9178 83.702 79.0624C83.8251 79.207 83.8867 79.3929 83.8867 79.62V80.8592C83.8867 81.0863 83.8251 81.2825 83.702 81.4478C83.5789 81.5923 83.4206 81.6646 83.2271 81.6646H79.8504V84.3907C79.8504 84.6179 79.7801 84.8038 79.6394 84.9483C79.5163 85.0929 79.358 85.1652 79.1645 85.1652H75.3921ZM82.7259 73.2694C83.447 73.2694 84.0098 73.0526 84.4143 72.6189C84.8364 72.1645 85.0474 71.5037 85.0474 70.6363C85.0474 69.8308 84.854 69.1803 84.467 68.6846C84.0801 68.189 83.4997 67.9411 82.7259 67.9411H79.7449V73.2694H82.7259Z" fill="white"/>
<path d="M53.0325 43.4891C61.5711 42.9129 70.8474 42.9076 79.3942 43.4031C81.2119 43.7842 84.8801 43.9224 86.3841 44.6539C86.2333 45.2286 86.3352 45.5057 85.785 45.8061C84.0243 46.7622 79.4716 46.104 77.4786 45.9879C77.1036 45.6529 77.1077 44.9885 76.6961 44.6955C76.3497 44.4473 71.414 44.6613 70.664 44.6556C66.0462 44.6209 60.8742 43.9293 56.3461 44.2737C55.9018 44.3071 55.7673 44.3666 55.3883 44.4836C55.9263 45.1675 56.5987 45.2759 57.3935 45.5889C52.6167 48.0937 53.1955 46.1631 49.56 51.2372C49.5437 52.1615 49.5152 53.0679 49.6252 53.9882L50.2487 54.5209L50.098 54.9007C49.7923 55.68 49.4459 56.3129 49.6293 57.1634C50.0491 57.8078 50.7542 58.5149 50.689 59.2856L49.6252 59.7107C49.666 59.8517 49.7026 59.9923 49.7393 60.1337L50.0247 61.2863C50.7868 64.3633 50.5585 108.021 49.4499 110.247C51.3247 111.576 52.9632 113.211 55.1518 114.03C56.9778 114.716 59.6107 114.467 61.5508 114.498C67.9415 114.6 83.0012 113.532 88.5361 115.046L88.4585 115.395L68.3205 115.369C64.3793 115.366 60.2343 115.097 56.3339 115.625C54.3734 115.619 52.7921 115.24 51.2596 113.947C49.666 112.604 48.5329 110.512 48.3128 108.447C47.8971 104.481 47.8441 51.8334 48.4718 49.0959C49.075 46.4924 51.3085 45.6895 52.7839 43.8152C52.8695 43.7076 52.951 43.598 53.0325 43.4891Z" fill="#172854"/>
<defs>
<linearGradient id="paint0_linear_89_2741" x1="102.072" y1="-6.95952" x2="103.438" y2="229.873" gradientUnits="userSpaceOnUse">
<stop stop-color="#E9E6E6"/>
<stop offset="0.276042" stop-color="#F7F7F7"/>
</linearGradient>
</defs>
</svg>
