<svg width="204" height="185" viewBox="0 0 204 185" fill="none" xmlns="http://www.w3.org/2000/svg">
<g clip-path="url(#clip0_89_2771)">
<path d="M119.5 155C157.884 155 189 123.884 189 85.4998C189 47.116 157.884 15.9998 119.5 15.9998C81.1164 15.9998 50.0002 47.116 50.0002 85.4998C50.0002 123.884 81.1164 155 119.5 155Z" fill="url(#paint0_linear_89_2771)" fill-opacity="0.7"/>
<path d="M176.309 24.388L176.309 24.3879C177.433 21.5326 177.881 18.685 178.351 15.7002C178.431 15.1917 178.511 14.6791 178.596 14.1618L176.309 24.388ZM176.309 24.388C176.117 24.8754 175.565 25.1164 175.078 24.9239L175.076 24.9233C174.589 24.7339 174.348 24.1829 174.539 23.6962L174.539 23.6962M176.309 24.388L174.539 23.6962M174.539 23.6962C175.612 20.9702 176.035 18.2404 176.465 15.4685M174.539 23.6962L176.465 15.4685M176.465 15.4685C176.548 14.9329 176.632 14.3958 176.72 13.8569L176.465 15.4685ZM177.811 13.0725C178.33 13.1579 178.681 13.6451 178.596 14.1618L176.72 13.8567C176.805 13.3389 177.294 12.9873 177.811 13.0725Z" fill="#C2F3A6" stroke="#C2F3A6" stroke-width="0.633333"/>
<path d="M181.759 30.448C188.135 26.0336 194.383 20.089 199.029 13.8615L199.029 13.8613C199.341 13.4422 199.938 13.3551 200.36 13.6672C200.78 13.9778 200.868 14.5718 200.555 14.9916C195.794 21.3742 189.385 27.4727 182.844 32.0034L182.844 32.0037C182.414 32.3024 181.821 32.1949 181.521 31.7654C181.222 31.3378 181.328 30.7473 181.759 30.448ZM181.759 30.448C181.758 30.4481 181.758 30.4481 181.758 30.4482L181.578 30.1878M181.759 30.448C181.759 30.448 181.759 30.4479 181.759 30.4479L181.578 30.1878M181.578 30.1878C187.928 25.7921 194.15 19.871 198.775 13.6721L183.025 32.2638C182.45 32.6626 181.661 32.5186 181.261 31.9467C180.862 31.3749 181.004 30.5867 181.578 30.1878Z" fill="#C2F3A6" stroke="#C2F3A6" stroke-width="0.633333"/>
<path d="M200.395 36.1776L200.395 36.1781C200.539 36.6754 200.25 37.2009 199.744 37.3476C194.616 38.8126 188.968 39.5579 183.819 37.9859C183.317 37.8325 183.035 37.3003 183.187 36.8033L183.188 36.8031C183.34 36.3057 183.871 36.0223 184.374 36.1758L184.374 36.1758C189.229 37.6572 194.506 36.8742 199.219 35.5261C199.724 35.3832 200.251 35.675 200.395 36.1776Z" fill="#C2F3A6" stroke="#C2F3A6" stroke-width="0.633333"/>
<circle cx="189.467" cy="47.0664" r="3.8" fill="#C2F3A6"/>
<circle cx="157.8" cy="7.79976" r="3.8" fill="#C2F3A6"/>
<path d="M165.11 24.5577C164.782 23.1998 162.851 23.1998 162.523 24.5577L162.099 26.3166C161.981 26.8018 161.603 27.1807 161.117 27.2978L159.358 27.7224C158.001 28.0502 158.001 29.9816 159.358 30.3094L161.117 30.734C161.603 30.8511 161.981 31.23 162.099 31.7153L162.523 33.4741C162.851 34.832 164.782 34.832 165.11 33.4741L165.535 31.7153C165.652 31.23 166.031 30.8511 166.516 30.734L168.275 30.3094C169.633 29.9816 169.633 28.0502 168.275 27.7224L166.516 27.2978C166.031 27.1807 165.652 26.8018 165.535 26.3166L165.11 24.5577Z" fill="#C2F3A6"/>
<path fill-rule="evenodd" clip-rule="evenodd" d="M196.631 115.406C196.875 116.027 196.569 116.728 195.949 116.972C194.178 117.668 191.908 119.911 190.393 122.704C189.239 124.829 188.679 126.975 188.914 128.732C189.623 127.72 190.471 126.891 191.455 126.358C193.219 125.402 195.232 125.504 197.181 126.831C198.883 127.992 199.577 129.642 199.393 131.287C199.218 132.86 198.258 134.282 196.957 135.175C195.636 136.082 193.882 136.5 192.072 135.946C191.047 135.632 190.063 135.024 189.163 134.102C188.304 137.445 188.335 141.633 189.754 145.337C189.993 145.96 189.681 146.658 189.059 146.896C188.436 147.135 187.738 146.824 187.5 146.201C185.628 141.316 185.871 135.738 187.397 131.674C187.354 131.596 187.311 131.517 187.268 131.436C185.663 128.404 186.624 124.586 188.271 121.552C189.93 118.494 192.562 115.709 195.065 114.725C195.686 114.481 196.387 114.786 196.631 115.406ZM190.108 131.467C191.02 132.762 191.966 133.388 192.779 133.637C193.803 133.951 194.802 133.726 195.591 133.184C196.399 132.63 196.907 131.799 196.994 131.019C197.073 130.312 196.826 129.511 195.821 128.827C194.547 127.959 193.501 127.995 192.605 128.481C191.712 128.964 190.828 129.977 190.108 131.467Z" fill="#C2F3A6"/>
<path fill-rule="evenodd" clip-rule="evenodd" d="M189.985 76.2939C190.429 76.1311 190.897 75.9149 191.258 75.6017C191.686 75.2298 191.86 74.7508 191.977 74.2466C192.127 73.5988 192.187 72.9088 192.37 72.26C192.437 72.019 192.567 71.9279 192.622 71.8875C192.763 71.7854 192.905 71.7581 193.039 71.7684C193.198 71.7802 193.416 71.8419 193.559 72.1151C193.579 72.1542 193.606 72.2138 193.624 72.2954C193.637 72.3552 193.645 72.5424 193.659 72.6196C193.694 72.8096 193.723 72.9996 193.75 73.1907C193.84 73.8267 193.892 74.3668 194.176 74.9511C194.563 75.7443 194.95 76.2296 195.475 76.4445C195.983 76.6524 196.59 76.6133 197.366 76.4503C197.44 76.4319 197.513 76.4162 197.585 76.4033C197.927 76.3419 198.254 76.5726 198.321 76.9227C198.388 77.2726 198.171 77.6136 197.832 77.6905C197.761 77.7065 197.691 77.7217 197.623 77.7356C196.574 78.0023 195.361 78.954 194.656 79.7873C194.438 80.0443 194.12 80.7627 193.795 81.221C193.556 81.559 193.287 81.7819 193.06 81.8606C192.909 81.9136 192.781 81.9055 192.676 81.8787C192.523 81.8399 192.395 81.7545 192.298 81.6189C192.245 81.5446 192.195 81.4451 192.172 81.3181C192.161 81.2569 192.159 81.1015 192.16 81.0312C192.093 80.7973 192.012 80.569 191.953 80.333C191.813 79.77 191.537 79.4136 191.209 78.9427C190.902 78.502 190.572 78.2251 190.089 78.0041C190.027 77.9884 189.52 77.8608 189.341 77.7876C189.079 77.6802 188.954 77.5004 188.909 77.4036C188.832 77.2393 188.824 77.0957 188.84 76.976C188.862 76.7994 188.94 76.6482 189.076 76.5262C189.161 76.4503 189.288 76.3765 189.458 76.3406C189.589 76.3125 189.936 76.2962 189.985 76.2939ZM192.959 75.3763C192.983 75.4301 193.008 75.4841 193.034 75.5387C193.6 76.7004 194.233 77.349 195.003 77.6637L195.028 77.6739C194.514 78.0666 194.048 78.5054 193.692 78.9262C193.545 79.0994 193.351 79.4593 193.141 79.8283C192.951 79.1918 192.639 78.7419 192.247 78.1789C191.948 77.7493 191.634 77.4259 191.249 77.1624C191.548 77.0046 191.833 76.8199 192.082 76.6041C192.496 76.2448 192.769 75.8285 192.959 75.3763Z" fill="#C2F3A6"/>
<path d="M38.9122 92.3516C38.5236 92.246 38.2956 91.8448 38.4039 91.4567C38.5118 91.0716 38.9154 90.8425 39.304 90.951L38.9122 92.3516ZM38.9122 92.3516L38.8292 92.6572C38.2709 92.5056 37.9434 91.9289 38.0988 91.3717L38.099 91.3713C38.254 90.8183 38.8317 90.4906 39.3888 90.6459M38.9122 92.3516L38.8278 92.6568C42.036 93.5431 44.5513 95.3317 46.3904 98.1033L46.3905 98.1035C46.709 98.5829 47.3584 98.7161 47.8407 98.3982C48.3242 98.0825 48.4578 97.4333 48.1385 96.9525L39.3888 90.6459M39.3888 90.6459C43.0916 91.669 46.0111 93.7478 48.1385 96.9524L39.3888 90.6459Z" fill="#C2F3A6" stroke="#C2F3A6" stroke-width="0.633333"/>
<path d="M39.0551 59.4073C39.0554 59.4035 39.0561 59.3977 39.0577 59.3895C39.0579 59.3882 39.0582 59.3869 39.0585 59.3855L39.0551 59.4073ZM39.0551 59.4073C39.0624 59.4176 39.0797 59.4358 39.1217 59.4605C39.1773 59.4933 39.252 59.5236 39.3568 59.5614L39.3572 59.5615C39.5092 59.6166 39.6797 59.6597 39.8613 59.692C39.6696 59.5911 39.3571 59.4465 39.0641 59.3865L39.0551 59.4073ZM37.2751 58.2226L37.275 58.2228C36.8556 59.0712 36.8939 59.788 37.1876 60.3559C37.467 60.8974 37.9928 61.2896 38.6438 61.5242L38.6439 61.5242C39.2652 61.7479 40.0283 61.831 40.75 61.8315C41.3989 61.8319 42.0355 61.7655 42.5376 61.6619C43.108 62.2111 43.6293 62.8101 44.0978 63.4498C47.7945 68.4991 46.5911 76.0652 41.1217 82.0083C40.2068 83.002 38.7548 83.7696 36.9511 84.3609C35.1527 84.9505 33.0364 85.3547 30.8252 85.642C24.8366 86.4208 18.2247 86.2484 15.1018 86.167C14.6335 86.1548 14.2436 86.1447 13.9461 86.1401L13.9454 86.1401C13.6543 86.1362 13.419 86.1489 13.2442 86.1673C13.157 86.1765 13.0828 86.1873 13.023 86.1987C12.9736 86.2082 12.9095 86.2224 12.8563 86.2459C12.399 86.4449 12.276 86.8057 12.2357 87.0326L12.2351 87.0359C12.1819 87.3556 12.2468 87.6204 12.361 87.8328L12.3619 87.8344C12.5199 88.124 12.7931 88.3512 13.183 88.45L13.1853 88.4505C13.3987 88.5029 13.6697 88.5098 13.9258 88.5005L13.929 88.5004C13.9802 88.498 14.0307 88.4936 14.0754 88.4894C14.1225 88.485 14.1611 88.4812 14.1992 88.4784C14.2366 88.4756 14.2654 88.4746 14.2882 88.4753C14.3117 88.4759 14.3204 88.4782 14.3197 88.478C15.0077 88.6646 15.6821 88.8862 16.3675 89.1116C16.4676 89.1445 16.5679 89.1774 16.6686 89.2104L16.6692 89.2106C19.2905 90.0625 21.7551 91.1774 24.2271 92.4243L24.3697 92.1416L24.2271 92.4243C24.8911 92.7592 25.5576 93.0928 26.2251 93.4269C33.4976 97.0671 40.8857 100.765 46.3807 106.763L46.3808 106.763C46.769 107.187 47.431 107.221 47.8593 106.832C48.2891 106.445 48.3178 105.785 47.9296 105.357L47.9288 105.357C42.1938 99.0947 34.4916 95.2344 27.0388 91.499C26.415 91.1864 25.793 90.8746 25.174 90.5624L25.1739 90.5624C23.5733 89.7553 21.9681 88.9982 20.3194 88.3269C23.9896 88.3153 28.5542 88.1484 32.6587 87.485C34.7826 87.1418 36.7909 86.6562 38.511 85.9945C40.2278 85.334 41.6788 84.4901 42.6661 83.4179L42.6661 83.4179C48.7928 76.7608 50.0895 68.0894 45.7908 62.2203L45.7907 62.2202C45.414 61.7063 45.0068 61.2126 44.5707 60.7458C49.8897 57.5051 51.914 51.0036 49.2087 45.3043C48.961 44.7808 48.3363 44.5616 47.8155 44.8048L47.8155 44.8048L47.8137 44.8057C47.2929 45.0531 47.0664 45.673 47.3141 46.1969L47.3143 46.1973C49.6355 51.0874 47.7486 56.6803 42.9674 59.2574C42.3249 58.7435 41.6377 58.2811 40.9101 57.8845C40.5556 57.6909 39.7784 57.3362 39.0872 57.2867C38.3332 57.2303 37.6339 57.4977 37.2751 58.2226Z" fill="#C2F3A6" stroke="#C2F3A6" stroke-width="0.633333"/>
<path d="M75.5414 120.427C71.5709 119.068 65.9435 121.712 62.5309 118.784C61.6247 118.01 61.1066 116.961 61.0211 115.771C60.902 114.124 61.4226 111.269 62.5313 110.005L63.5179 110.014C66.8256 107.189 81.4784 111.024 83.695 108.389C83.5961 106.992 83.4323 105.526 83.4822 104.128C83.5265 102.886 83.87 102.237 84.7349 101.377C85.1747 101.295 85.1876 101.261 85.7056 101.338C88.6926 101.785 101.286 112.49 102.828 115.311C98.5877 116.549 90.99 126.703 86.6527 127.426C85.4774 127.619 85.0758 127.262 84.1907 126.561C83.2341 124.807 83.5346 122.649 83.5621 120.697C81.4277 119.726 77.7817 119.756 75.5414 120.427Z" fill="#FE0000"/>
<path d="M75.5414 120.427C71.5709 119.068 65.9435 121.712 62.5309 118.784C61.6247 118.01 61.1066 116.961 61.0211 115.771C60.902 114.124 61.4226 111.269 62.5313 110.005L63.5179 110.014C66.3721 109.391 78.7773 109.171 81.1753 109.958C78.6402 110.121 73.7191 109.489 71.7054 110.9C69.8779 110.637 66.5105 110.599 65.008 111.772C64.1176 112.469 63.0623 113.513 62.8765 114.687C62.7209 115.672 62.9621 116.54 63.6577 117.258C66.6713 120.379 78.2752 117.194 80.7807 119.227L79.3968 119.244L80.0142 119.352C78.4983 119.545 76.8471 119.58 75.5414 120.427Z" fill="#FE0000"/>
<path d="M62.9958 48.0718C66.8865 47.4445 71.8135 47.4983 75.7515 47.8547C76.5082 47.9235 78.1848 48.0726 78.6148 48.7631C80.3172 51.5093 79.8959 80.5741 79.3843 85.4153C78.7352 86.539 78.2279 86.8069 77.0413 87.3008C73.7051 88.0918 65.0079 88.0815 62.1145 86.3438C61.7448 85.5528 61.5727 84.8774 61.4782 84.0039C60.8978 78.6972 60.756 55.4064 61.5642 50.7329C61.7491 49.6706 62.3294 48.8925 62.9958 48.0718Z" fill="#1A2E60"/>
<path d="M70.3301 50.2219C71.9595 50.228 75.0163 50.019 76.2803 51.1282C77.6173 52.2958 77.4109 63.5674 77.5442 66.0028L77.6904 63.0623C77.9613 66.1962 77.5829 82.7466 76.2716 84.4095C74.6552 85.0819 73.1203 85.0586 71.4049 85.09C71.3791 85.0789 71.3534 85.0686 71.3319 85.0569C68.5718 83.7728 65.9751 85.952 63.2322 84.1365L64.8401 84.2225C62.8109 77.0702 63.7911 58.5083 64.5908 50.6518C66.5054 50.5412 68.4184 50.3979 70.3301 50.2219Z" fill="#1F3C72"/>
<path d="M115.029 46.3524C119.466 45.6946 123.348 45.8709 127.522 47.621C135.231 50.8509 147.711 61.6423 155.041 67.0758C157.978 69.2511 161.327 71.1406 164.074 73.5287C165.08 74.4031 166.039 75.4009 166.494 76.6798C166.954 77.97 166.86 79.3302 166.262 80.5588C166.185 80.7213 166.099 80.8794 166.004 81.033C165.91 81.1867 165.807 81.3351 165.695 81.4784C165.586 81.6214 165.47 81.7586 165.346 81.8898C165.22 82.0211 165.09 82.1458 164.955 82.2638C164.818 82.3816 164.674 82.4923 164.525 82.5957C164.379 82.6992 164.227 82.7949 164.07 82.8829C163.912 82.9706 163.75 83.0501 163.584 83.1215C163.418 83.1926 163.248 83.2552 163.076 83.3094C159.749 84.3502 143.679 77.1695 139.934 75.2895C137.135 73.882 137.251 71.8034 136.28 69.1845C135.605 67.366 134.311 66.317 132.578 65.5213C128.12 63.4767 112.071 67.452 107.028 69.3397C106.895 69.39 106.761 69.4437 106.628 69.4957C106.671 70.1144 106.684 70.7846 106.826 71.389C108.305 77.663 125.996 68.1119 131.232 70.9355C132.054 71.9698 132.178 72.1766 132.346 73.4779C131.662 75.7121 129.977 77.1029 128.004 78.2374C121.572 81.9406 109.014 89.4454 101.452 87.7752C99.8226 87.4149 98.2361 86.5199 96.6454 85.9687C92.5956 84.5564 88.5099 83.2569 84.3884 82.0704C84.4529 81.9556 84.5261 81.8473 84.5777 81.7269C85.4332 79.6762 85.2741 55.4418 84.4959 53.4157C94.5775 51.9677 105.209 49.0771 115.029 46.3524Z" fill="#1F3C72"/>
<path d="M136.28 85.4734C137.612 85.4059 138.958 85.4322 140.295 85.4743C147.599 85.7047 154.474 89.1353 159.405 94.4829C159.732 94.8365 160.051 95.1982 160.364 95.568C160.673 95.9377 160.973 96.315 161.262 96.6999C161.555 97.0848 161.835 97.4767 162.105 97.8757C162.377 98.2746 162.638 98.6802 162.887 99.0923C163.14 99.5044 163.38 99.9226 163.61 100.347C163.839 100.771 164.058 101.201 164.267 101.636C164.474 102.072 164.67 102.512 164.856 102.957C165.043 103.402 165.217 103.852 165.381 104.306C165.544 104.76 165.695 105.218 165.832 105.679C165.973 106.141 166.102 106.606 166.219 107.074C166.337 107.542 166.441 108.013 166.533 108.486C166.628 108.959 166.709 109.435 166.778 109.912C166.847 110.39 166.903 110.868 166.946 111.349C166.992 111.829 167.025 112.31 167.045 112.792C167.065 113.274 167.073 113.756 167.07 114.239C167.068 114.721 167.052 115.203 167.023 115.685C166.808 119.791 165.527 125.465 162.354 128.308C165.725 128.202 170.441 127.497 173.575 128.78C174.289 129.667 174.775 130.46 174.852 131.633C174.921 132.717 174.585 133.36 173.885 134.141C170.316 136.007 145.635 134.999 139.56 134.98C133.567 134.929 107.183 135.927 103.713 134.07C102.617 133.484 102.376 133.074 101.959 131.943C102.157 130.891 102.441 130.081 103.271 129.351C105.614 127.287 110.691 128.13 113.606 128.238C113.924 126.319 110.764 120.535 110.394 117.904C110.331 117.428 110.28 116.952 110.239 116.474C110.202 115.996 110.176 115.518 110.162 115.039C110.145 114.559 110.141 114.08 110.149 113.601C110.158 113.122 110.179 112.643 110.214 112.165C110.245 111.686 110.29 111.209 110.347 110.733C110.401 110.257 110.469 109.783 110.549 109.31C110.629 108.838 110.721 108.367 110.824 107.899C110.927 107.431 111.042 106.966 111.168 106.503C111.294 106.041 111.432 105.582 111.581 105.126C111.73 104.671 111.89 104.219 112.062 103.772C112.234 103.324 112.418 102.881 112.613 102.443C112.805 102.004 113.008 101.571 113.223 101.143C113.441 100.715 113.667 100.292 113.902 99.8747C114.14 99.4577 114.387 99.0469 114.642 98.6422C114.9 98.2375 115.166 97.8394 115.441 97.4479C115.719 97.0564 116.006 96.6721 116.301 96.2949C121.331 89.9625 128.275 86.3272 136.28 85.4734Z" fill="#81B441"/>
<path d="M131.927 127C131.638 127 131.389 126.893 131.178 126.68C130.994 126.466 130.902 126.192 130.902 125.857V121.834H127.986C127.697 121.834 127.46 121.727 127.276 121.514C127.092 121.27 127 120.981 127 120.645V118.817C127 118.482 127.092 118.207 127.276 117.994C127.486 117.781 127.723 117.674 127.986 117.674H130.902V115.388H127.986C127.723 115.388 127.486 115.282 127.276 115.068C127.092 114.825 127 114.55 127 114.245V110.588C127 110.253 127.092 109.979 127.276 109.765C127.486 109.552 127.723 109.445 127.986 109.445H130.902V96.1883C130.902 95.8531 130.994 95.5788 131.178 95.3655C131.389 95.1217 131.638 94.9998 131.927 94.9998H143.082C146.472 94.9998 149.139 95.8988 151.083 97.6969C153.028 99.495 154 102.131 154 105.605C154 108.866 153.028 111.32 151.083 112.965C149.165 114.581 146.498 115.388 143.082 115.388H138.589V117.674H143.634C143.923 117.674 144.159 117.781 144.343 117.994C144.527 118.207 144.619 118.482 144.619 118.817V120.645C144.619 120.981 144.527 121.27 144.343 121.514C144.159 121.727 143.923 121.834 143.634 121.834H138.589V125.857C138.589 126.192 138.483 126.466 138.273 126.68C138.089 126.893 137.853 127 137.564 127H131.927ZM142.885 109.445C143.962 109.445 144.803 109.125 145.408 108.485C146.038 107.815 146.354 106.84 146.354 105.56C146.354 104.371 146.064 103.411 145.486 102.68C144.908 101.948 144.041 101.583 142.885 101.583H138.431V109.445H142.885Z" fill="white"/>
</g>
<defs>
<linearGradient id="paint0_linear_89_2771" x1="118.964" y1="-6.63115" x2="120.388" y2="237.442" gradientUnits="userSpaceOnUse">
<stop stop-color="#E9E6E6"/>
<stop offset="0.276042" stop-color="#F7F7F7"/>
</linearGradient>
<clipPath id="clip0_89_2771">
<rect width="204" height="185" fill="white"/>
</clipPath>
</defs>
</svg>
