<svg width="87" height="120" viewBox="0 0 87 120" fill="none" xmlns="http://www.w3.org/2000/svg">
<path d="M81.847 73.877C81.8664 75.9077 80.6766 77.7647 78.8202 78.594C69.7141 82.6638 57.2464 85.1759 43.4854 85.1759C29.7244 85.1759 17.2567 82.6638 8.15063 78.594C6.29388 77.7642 5.10435 75.9077 5.12377 73.877C5.49187 35.6837 12.6479 2.50317 43.4854 2.50317C74.3229 2.50317 81.4786 35.684 81.847 73.877Z" fill="#5A4146"/>
<path d="M82.27 95.0465L59.4389 85.5497C57.532 84.7566 56.2897 82.8963 56.2897 80.8338V74.6614H30.7033V80.8341C30.7033 82.8963 29.461 84.7566 27.5542 85.55L4.72303 95.0468C1.86342 96.2363 0 99.0265 0 102.12V112.337C0 115.158 2.29123 117.446 5.11722 117.446H81.8764C84.7024 117.446 86.9936 115.158 86.9936 112.337V102.12C86.9936 99.0265 85.1302 96.2363 82.27 95.0465Z" fill="#E6AF78"/>
<path d="M56.29 74.6614H30.7036V80.8341C30.7036 82.8963 29.4613 84.7566 27.5544 85.55L23.9888 87.0335C51.276 93.9791 56.29 74.6614 56.29 74.6614Z" fill="#D29B6E"/>
<path d="M82.27 95.0465L65.3975 88.0283C54.3686 101.86 43.4968 104.674 43.4968 104.674C43.4968 104.674 32.6253 101.86 21.5961 88.0283L4.72361 95.0465C1.86342 96.2364 0 99.0266 0 102.12V112.337C0 115.158 2.29123 117.446 5.11722 117.446H81.8764C84.7024 117.446 86.9936 115.158 86.9936 112.337V102.12C86.9936 99.0266 85.1302 96.2364 82.27 95.0465Z" fill="#81B441"/>
<path d="M69.0831 40.8174L67.0145 63.5326C66.7079 66.8995 64.7526 69.8972 61.7924 71.539L48.467 78.9296C45.3758 80.6437 41.6177 80.6437 38.5265 78.9296L25.2014 71.539C22.2409 69.8972 20.2859 66.8995 19.9793 63.5326L17.9106 40.8174C17.9106 40.8174 46.0555 38.263 58.8487 30.6003C58.8487 30.6003 61.4072 38.263 69.0831 40.8174Z" fill="#F0C087"/>
<path d="M68.893 58.2883C68.7657 58.7224 65.5597 68.9145 46.0552 68.9145V74.023C69.7225 74.023 73.6731 60.2189 73.8305 59.6303L68.893 58.2883Z" fill="#464655"/>
<path d="M46.0553 74.0231C47.4685 74.0231 48.6141 72.8795 48.6141 71.4687C48.6141 70.058 47.4685 68.9143 46.0553 68.9143C44.6422 68.9143 43.4966 70.058 43.4966 71.4687C43.4966 72.8795 44.6422 74.0231 46.0553 74.0231Z" fill="#5B5D6E"/>
<path d="M71.6412 45.926H68.6173L67.2217 61.2518H71.6415C73.0545 61.2518 74.2003 60.108 74.2003 58.6974V48.4804C74.2 47.0698 73.0542 45.926 71.6412 45.926Z" fill="#707487"/>
<path d="M18.3757 45.926H15.3517C13.9387 45.926 12.793 47.0698 12.793 48.4804V58.6974C12.793 60.108 13.9387 61.2518 15.3517 61.2518H19.771L18.3757 45.926Z" fill="#707487"/>
<path d="M12.4712 104.928L2.2008 96.7725C0.8249 98.1776 0 100.077 0 102.12V112.337C0 115.158 2.29123 117.445 5.11722 117.445H15.3517V110.911C15.352 108.584 14.292 106.382 12.4712 104.928Z" fill="#A5D76E"/>
<path d="M86.9936 112.337V102.12C86.9936 100.093 86.1826 98.2063 84.8258 96.8047L74.5224 104.928C72.7016 106.382 71.6416 108.584 71.6416 110.912V117.446H81.876C84.7023 117.446 86.9936 115.158 86.9936 112.337Z" fill="#A5D76E"/>
<path d="M65.3976 88.0283C54.3687 101.86 43.4969 104.674 43.4969 104.674C43.4969 104.674 32.6254 101.86 21.5962 88.0283L17.9067 89.563C29.942 104.909 42.0065 108.244 42.5146 108.378L43.4966 108.638L44.4786 108.378C44.9867 108.244 57.0518 104.909 69.0865 89.563L65.3976 88.0283Z" fill="#A5D76E"/>
<path d="M58.8487 30.6001C46.0555 38.263 17.9106 40.8171 17.9106 40.8171L18.3741 45.9045L19.9793 63.5318C20.2859 66.899 22.2412 69.8964 25.2017 71.5385L38.5268 78.9285C39.7951 79.6322 41.1774 80.0307 42.5782 80.1568L38.5781 73.5009C36.7639 70.4826 35.6686 67.0894 35.3759 63.5816L33.9113 46.0382C33.8026 44.7349 34.6904 43.5715 35.9764 43.3217C42.8359 41.9896 50.5096 40.0723 56.7117 37.3903C58.789 40.3923 62.206 43.9129 67.4649 45.6626L68.0093 45.8437L68.5803 45.8999L68.62 45.9036L69.0831 40.8165C61.4075 38.263 58.8487 30.6001 58.8487 30.6001Z" fill="#E6AF78"/>
</svg>
