<svg width="74" height="62" viewBox="0 0 74 62" fill="none" xmlns="http://www.w3.org/2000/svg">
<path d="M63.0159 61.2742C66.1128 58.7795 70.2095 55.3301 72.8062 52.3792M72.8062 52.3792C73.1055 52.0393 70.0045 50.6473 69.8561 50.5952C66.6025 49.4493 63.2987 48.7644 59.9166 48.1387M72.8062 52.3792C53.412 61.9119 32.0459 57.3435 23.4133 44.5825C22.5577 43.3177 21.6277 41.9402 20.8244 40.486M20.8244 40.486C19.5451 38.17 18.5869 35.6592 18.7614 33.0986C18.9225 30.7355 20.1278 27.725 22.3637 26.6564C26.5405 24.6603 30.8987 28.9851 30.0033 33.3561C29.2165 37.1972 24.6908 40.7967 20.8244 40.486ZM20.8244 40.486C20.7429 40.4794 20.6616 40.4711 20.5807 40.461C1.04742 38.0306 -3.26203 15.2921 4.51935 1.18891" stroke="#81B441" stroke-miterlimit="1.5" stroke-linecap="round" stroke-linejoin="round"/>
</svg>
