<svg width="42" height="50" viewBox="0 0 42 50" fill="none" xmlns="http://www.w3.org/2000/svg">
<path d="M12.3455 0.0156738C9.8109 0.143447 7.36914 1.01028 5.32134 2.50928C3.27355 4.00827 1.70929 6.07386 0.821468 8.4513C-0.0663502 10.8287 -0.238891 13.414 0.325123 15.8884C0.889138 18.3627 2.16504 20.6179 3.99548 22.3757C4.3133 22.6695 4.70169 22.8761 5.12294 22.9755C5.54419 23.0748 5.98398 23.0636 6.39961 22.9428C6.81523 22.8221 7.19257 22.5959 7.49497 22.2863C7.79738 21.9766 8.01458 21.594 8.12548 21.1757C8.24173 20.7572 8.24465 20.3154 8.13395 19.8954C8.02325 19.4754 7.8029 19.0925 7.49548 18.7857C6.69713 18.0299 6.06311 17.1178 5.63297 16.1061C5.20284 15.0944 4.98583 14.0049 4.99548 12.9057C5.03992 10.8932 5.83305 8.96953 7.21993 7.51053C8.60681 6.05153 10.4878 5.16199 12.4955 5.01567C14.2215 4.91451 15.9339 5.37527 17.3761 6.32893C18.8183 7.28259 19.9127 8.67783 20.4955 10.3057C20.6271 10.7075 20.8647 11.0664 21.1833 11.3445C21.5019 11.6225 21.8895 11.8095 22.3055 11.8857H22.5255C22.9474 11.9524 23.3794 11.9081 23.7789 11.7572C24.1785 11.6063 24.5319 11.354 24.8044 11.025C25.0768 10.6961 25.2589 10.3018 25.3328 9.88112C25.4066 9.46042 25.3696 9.02775 25.2255 8.62567C24.2867 5.99842 22.5276 3.74288 20.2082 2.1924C17.8888 0.641911 15.1321 -0.12126 12.3455 0.0156738Z" fill="#81B441"/>
<path d="M40.5153 26.0152L14.3053 10.7452C13.8823 10.496 13.3977 10.3711 12.907 10.3848C12.4163 10.3986 11.9394 10.5504 11.5311 10.823C11.1228 11.0955 10.7996 11.4777 10.5987 11.9256C10.3978 12.3735 10.3273 12.869 10.3953 13.3552L14.5353 43.4152C14.5986 43.8479 14.7693 44.2578 15.0317 44.6077C15.2941 44.9575 15.6399 45.2361 16.0376 45.418C16.4353 45.5999 16.8721 45.6794 17.3084 45.6492C17.7447 45.6191 18.1664 45.4802 18.5353 45.2452C18.7011 45.1386 18.8524 45.0109 18.9853 44.8652L26.2153 37.3052L33.9953 48.8952C34.3639 49.4469 34.9366 49.8295 35.5874 49.9589C36.2381 50.0883 36.9136 49.9539 37.4653 49.5852C38.0169 49.2166 38.3995 48.6439 38.5289 47.9931C38.6583 47.3424 38.5239 46.6669 38.1553 46.1152L30.3953 34.5252L40.1453 30.7352C40.3293 30.6675 40.504 30.5767 40.6653 30.4652C41.0359 30.2175 41.3373 29.8794 41.5408 29.4827C41.7443 29.0861 41.8432 28.644 41.8282 28.1985C41.8132 27.7529 41.6847 27.3186 41.455 26.9365C41.2252 26.5545 40.9018 26.2374 40.5153 26.0152ZM32.7553 28.2252L26.7553 30.5652C25.7098 30.9749 24.7674 31.6099 23.9953 32.4252L19.5353 37.0952C19.4703 37.1642 19.387 37.2133 19.2951 37.2368C19.2033 37.2603 19.1067 37.2572 19.0165 37.2278C18.9264 37.1985 18.8464 37.1441 18.786 37.071C18.7256 36.998 18.6872 36.9093 18.6753 36.8152L16.1553 18.5552C16.1399 18.4612 16.1516 18.3647 16.1893 18.2771C16.2269 18.1895 16.2887 18.1145 16.3675 18.0609C16.4463 18.0073 16.5388 17.9774 16.6341 17.9746C16.7294 17.9718 16.8235 17.9963 16.9053 18.0452L32.8253 27.3452C32.9071 27.3923 32.974 27.4617 33.018 27.5453C33.0621 27.6288 33.0816 27.7231 33.0743 27.8173C33.067 27.9115 33.0331 28.0017 32.9767 28.0774C32.9202 28.1531 32.8434 28.2113 32.7553 28.2452V28.2252Z" fill="#B5C9C0"/>
</svg>
