<svg width="109" height="107" viewBox="0 0 109 107" fill="none" xmlns="http://www.w3.org/2000/svg">
<path d="M81.8875 31.0387L71.7201 33.7045C71.3805 4.02282 52.2296 9.04402 52.2296 9.04402L47.4071 10.3085C46.2665 10.6058 45.2023 11.1427 44.2854 11.8835C43.3685 12.6243 42.62 13.552 42.0897 14.6047C41.5594 15.6575 41.2595 16.8111 41.21 17.9888C41.1605 19.1665 41.3624 20.3413 41.8025 21.4348L42.5712 23.3731C43.301 25.1785 43.3856 27.1805 42.8106 29.0411L39.1914 38.9399C39.0194 39.5054 38.9605 40.0993 39.0181 40.6875C39.0757 41.2758 39.2487 41.8469 39.5271 42.3683C39.8055 42.8897 40.1839 43.3512 40.6407 43.7263C41.0974 44.1014 41.6237 44.3829 42.1892 44.5546C43.3196 44.8864 44.5352 44.7599 45.573 44.2022C46.6107 43.6446 47.3872 42.7008 47.7343 41.575L52.2374 28.8023C52.7416 27.2091 52.7976 25.5078 52.3994 23.8849C52.3312 23.5187 52.2366 23.158 52.1164 22.8055L51.366 20.9369C51.261 20.6749 51.2116 20.394 51.2211 20.1119C51.2305 19.8298 51.2986 19.5528 51.4209 19.2985C51.5432 19.0442 51.7172 18.8181 51.9316 18.6346C52.1461 18.4511 52.3964 18.3143 52.6666 18.2328L54.512 17.749C55.9037 17.5612 57.3157 17.8932 58.4778 18.6815C59.7329 19.6362 62.6266 23.0082 62.7588 33.8027L62.8602 45.3309L83.456 39.9308C84.0699 39.7681 84.7132 39.7502 85.3352 39.8783C85.9572 40.0065 86.5409 40.2772 87.0405 40.6693C87.5401 41.0614 87.9419 41.564 88.2142 42.1377C88.4866 42.7114 88.622 43.3405 88.61 43.9754L88.2284 70.9064C88.2137 71.7989 87.9109 72.6629 87.3652 73.3693C86.8194 74.0757 86.0599 74.5868 85.1999 74.8263L47.2638 84.7729C46.6521 84.9233 46.0767 85.1947 45.5716 85.5712C45.0665 85.9476 44.642 86.4214 44.3231 86.9647C44.0042 87.5079 43.7973 88.1095 43.7148 88.734C43.6322 89.3585 43.6756 89.9933 43.8424 90.6007C44.1997 91.6917 44.9605 92.6049 45.969 93.1534C46.9776 93.7018 48.1576 93.844 49.2676 93.5508L87.9001 83.4217C90.5527 82.717 92.9026 81.1653 94.5925 79.0026C96.2824 76.84 97.2199 74.1846 97.2624 71.4404L97.635 43.3396C97.6506 41.4083 97.222 39.4992 96.3823 37.76C95.5426 36.0207 94.3143 34.4978 92.7922 33.3089C91.2702 32.12 89.4952 31.2969 87.6044 30.9033C85.7135 30.5096 83.7575 30.556 81.8875 31.0387Z" fill="#B1B1B1" fill-opacity="0.16"/>
<path d="M34.4569 49.0568L14.2266 54.361C12.7537 54.7472 11.4945 55.7027 10.726 57.0173C9.95755 58.3319 9.74281 59.8979 10.129 61.3709L20.4544 100.752C20.8406 102.225 21.7961 103.484 23.1107 104.253C24.4253 105.021 25.9914 105.236 27.4643 104.85L47.6946 99.5454C49.1675 99.1592 50.4267 98.2037 51.1952 96.8891C51.9636 95.5745 52.1784 94.0085 51.7922 92.5355L41.4668 53.1544C41.0806 51.6814 40.1251 50.4222 38.8105 49.6538C37.4959 48.8853 35.9298 48.6706 34.4569 49.0568ZM41.7498 89.7168C41.8854 90.2339 41.81 90.7838 41.5402 91.2453C41.2704 91.7069 40.8283 92.0424 40.3111 92.1779L30.283 94.8072C29.7659 94.9428 29.2161 94.8674 28.7545 94.5976C28.293 94.3278 27.9575 93.8857 27.8219 93.3686L20.1714 64.1896C20.1043 63.9336 20.0882 63.6668 20.1242 63.4045C20.1601 63.1422 20.2474 62.8896 20.381 62.6611C20.5146 62.4325 20.6919 62.2326 20.9028 62.0725C21.1137 61.9125 21.354 61.7956 21.6101 61.7285L31.6381 59.0992C32.1553 58.9636 32.7051 59.039 33.1667 59.3088C33.6282 59.5786 33.9637 60.0207 34.0993 60.5378L41.7498 89.7168Z" fill="#00C569" fill-opacity="0.27"/>
</svg>
