<svg width="458" height="58" viewBox="0 0 458 58" fill="none" xmlns="http://www.w3.org/2000/svg">
<path d="M37.2956 39.7781H31.7031L35.2011 19.4771H40.7933L37.2956 39.7781Z" fill="#0D53A0"/>
<path d="M57.5687 19.9737C56.4656 19.5629 54.716 19.1094 52.5527 19.1094C47.0299 19.1094 43.1408 21.8736 43.1169 25.8257C43.0711 28.7415 45.9014 30.361 48.0183 31.3332C50.182 32.3267 50.9174 32.9751 50.9174 33.8607C50.8954 35.2207 49.1691 35.8476 47.559 35.8476C45.3262 35.8476 44.1298 35.5244 42.3117 34.7677L41.5753 34.4434L40.7927 39.0005C42.1044 39.5614 44.521 40.0591 47.0299 40.0809C52.8979 40.0809 56.7182 37.3595 56.7635 33.1479C56.7858 30.8369 55.2913 29.0661 52.0692 27.6191C50.1131 26.6903 48.9153 26.0639 48.9153 25.1135C48.9382 24.2495 49.9284 23.3645 52.1364 23.3645C53.9545 23.3212 55.2903 23.7314 56.3023 24.1419L56.8081 24.3574L57.5687 19.9737Z" fill="#0D53A0"/>
<path fill-rule="evenodd" clip-rule="evenodd" d="M67.5793 19.4771H71.9051L76.4168 39.7778H71.2387C71.2387 39.7778 70.732 37.4453 70.5714 36.7325H63.3911C63.1835 37.2722 62.2174 39.7778 62.2174 39.7778H56.3494L64.6563 21.1614C65.2319 19.8439 66.2453 19.4771 67.5793 19.4771ZM67.2348 26.9061C67.2348 26.9061 65.4625 31.4199 65.002 32.5861H69.6504C69.4204 31.5711 68.3614 26.7118 68.3614 26.7118L67.9706 24.9625C67.806 25.4129 67.568 26.0322 67.4074 26.4499C67.2986 26.7331 67.2254 26.9236 67.2348 26.9061Z" fill="#0D53A0"/>
<path fill-rule="evenodd" clip-rule="evenodd" d="M7.47169 19.4771H16.4695C17.6891 19.5198 18.6787 19.887 19.0007 21.1835L20.956 30.5101C20.9563 30.511 20.9566 30.5119 20.9568 30.5128L21.5553 33.3204L27.0322 19.4771H32.9458L24.1554 39.7565H18.2415L13.2569 22.1168C11.5371 21.173 9.57422 20.414 7.37964 19.8872L7.47169 19.4771Z" fill="#0D53A0"/>
<path d="M159.691 42.0159H144.699V15.2427H159.691V42.0159Z" fill="#FF5F00"/>
<path d="M145.66 28.6271C145.66 23.1961 148.219 18.3582 152.203 15.2405C149.289 12.9607 145.612 11.6 141.615 11.6C132.153 11.6 124.483 19.2232 124.483 28.6271C124.483 38.0311 132.153 45.6543 141.615 45.6543C145.612 45.6543 149.289 44.2936 152.203 42.0137C148.219 38.896 145.66 34.0582 145.66 28.6271Z" fill="#EB001B"/>
<path d="M179.909 28.6271C179.909 38.0311 172.239 45.6543 162.777 45.6543C158.78 45.6543 155.102 44.2936 152.187 42.0137C156.173 38.896 158.732 34.0582 158.732 28.6271C158.732 23.1961 156.173 18.3582 152.187 15.2405C155.102 12.9607 158.78 11.6 162.777 11.6C172.239 11.6 179.909 19.2232 179.909 28.6271Z" fill="#F79E1B"/>
<path fill-rule="evenodd" clip-rule="evenodd" d="M220.685 20.3017L220.685 20.3017C221.375 20.2899 223.061 20.2612 223.795 22.7431C224.315 24.4999 225.143 27.3777 226.28 31.3764H226.742C227.961 27.1607 228.799 24.2829 229.254 22.7431C229.987 20.2655 231.755 20.2898 232.612 20.3016C232.666 20.3024 232.717 20.3031 232.764 20.3031L238.781 20.3031V39.0425H232.648V27.999H232.237L228.818 39.0425H224.204L220.785 27.9909H220.374V39.0425H214.241V20.3031L220.588 20.303C220.618 20.3028 220.65 20.3023 220.685 20.3017ZM247.587 20.3031V31.3548H248.076L252.235 22.267C253.042 20.4585 254.763 20.3031 254.763 20.3031H260.697V39.0425H254.436V27.9909H253.947L249.87 37.0786C249.063 38.8789 247.261 39.0425 247.261 39.0425H241.326V20.3031H247.587ZM275.685 33.4604C278.721 33.4604 281.464 31.6859 282.337 29.2082H263.166V39.0426H269.119V33.4604H275.685Z" fill="#40A548"/>
<path d="M275.972 20.3032H262.854C263.166 24.4753 266.754 28.0468 270.469 28.0468H282.751C283.46 24.5794 281.02 20.3032 275.972 20.3032Z" fill="#1291D0"/>
<path d="M441.143 31.1862C441.143 27.7702 438.503 25.0072 434.775 25.0072C431.12 25.0072 428.517 27.6641 428.517 31.3146C428.517 34.9835 431.193 37.6589 435.033 37.6589C437.47 37.6589 439.518 36.5923 440.792 34.4229L438.208 33.2479C437.599 34.3322 436.269 35.0373 435.033 35.0373C433.464 35.0373 431.655 33.8807 431.544 32.2728H441.051C441.112 31.9136 441.143 31.5507 441.143 31.1862ZM431.599 30.1418C431.821 28.5154 432.965 27.4496 434.793 27.4496C436.602 27.4496 437.709 28.4939 437.857 30.1418H431.599ZM405.558 25.0049C401.81 25.0049 399.152 27.6441 399.152 31.3676C399.152 35.0542 401.81 37.6573 405.595 37.6573C409.397 37.6573 412.055 35.0542 412.055 31.4222C412.056 27.6803 409.324 25.0049 405.558 25.0049ZM405.595 34.8912C403.712 34.8912 402.549 33.5178 402.549 31.3853C402.549 29.2167 403.731 27.7349 405.595 27.7349C407.478 27.7349 408.66 29.1983 408.66 31.3853C408.66 33.5362 407.496 34.8912 405.595 34.8912ZM392.214 25.008C390.679 25.008 389.522 25.5217 388.366 26.7944H387.986C387.21 25.6447 385.942 25.008 384.52 25.008C383.08 24.9941 381.72 25.6585 380.866 26.7944H380.487L380.468 26.7767V25.2556H377.291V37.3905H380.723V31.1454C380.723 29.1291 381.59 27.944 383.091 27.944C384.482 27.944 385.385 28.953 385.385 30.491V37.3905H388.836V31.1454C388.836 29.1437 389.703 27.944 391.221 27.944C392.593 27.944 393.479 28.953 393.479 30.5094V37.3905H396.93V30.1019C396.93 26.9366 395.195 25.008 392.214 25.008ZM448.777 33.1825H448.532C448.532 32.9664 447.035 29.1237 446.054 26.7428L445.441 25.254H441.982L446.889 37.4312L444.956 42.0714H448.391L455.456 25.2579H451.995L451.43 26.5314L449.517 31.1669C448.977 32.4619 448.756 33.0625 448.777 33.1825ZM421.577 25.008C420.041 25.008 418.722 25.6624 417.836 26.8305H417.474L417.439 26.8128V25.2556H414.26V37.3905H417.693V31.1815C417.693 29.2006 418.671 27.9617 420.277 27.9617C421.776 27.9617 422.878 29.0583 422.878 30.7917V37.3897H426.311V30.068C426.312 27.0958 424.325 25.008 421.577 25.008Z" fill="#8B3FFD"/>
<path d="M353.973 18.0542C346.556 18.0542 340.597 23.9286 340.597 31.1081C340.597 38.3467 346.615 44.1619 353.972 44.1619C361.329 44.1619 367.353 38.2875 367.353 31.1081C367.353 23.9286 361.33 18.0542 353.973 18.0542ZM353.973 35.9736C351.238 35.9736 348.989 33.7781 348.989 31.1081C348.989 28.4381 351.238 26.2426 353.973 26.2426C356.709 26.2426 358.959 28.4381 358.959 31.1081C358.898 33.7781 356.709 35.9736 353.973 35.9736ZM340.597 21.8469V40.8345H335.857L329.777 21.8469H340.597Z" fill="#8B3FFD"/>
</svg>
