<svg width="26" height="27" viewBox="0 0 26 27" fill="none" xmlns="http://www.w3.org/2000/svg">
<path d="M13.5077 21.1984L19.3226 24.8905C20.0725 25.3635 20.9956 24.6597 20.7763 23.7944L19.0919 17.1718C19.0463 16.9882 19.0535 16.7955 19.1127 16.6159C19.1719 16.4363 19.2807 16.277 19.4264 16.1565L24.6414 11.8068C25.3222 11.2415 24.976 10.0993 24.0876 10.0416L17.2804 9.60314C17.0947 9.59233 16.9161 9.52766 16.7666 9.41701C16.617 9.30637 16.5029 9.15455 16.4382 8.98011L13.8999 2.58828C13.8327 2.40356 13.7103 2.244 13.5493 2.13125C13.3883 2.01849 13.1966 1.95801 13 1.95801C12.8034 1.95801 12.6117 2.01849 12.4507 2.13125C12.2897 2.244 12.1673 2.40356 12.1001 2.58828L9.56179 8.98011C9.4971 9.15455 9.383 9.30637 9.23343 9.41701C9.08385 9.52766 8.90529 9.59233 8.71955 9.60314L1.91237 10.0416C1.02397 10.0993 0.677844 11.2415 1.35856 11.8068L6.57356 16.1565C6.71932 16.277 6.82806 16.4363 6.88726 16.6159C6.94645 16.7955 6.9537 16.9882 6.90815 17.1718L5.35057 23.3098C5.08521 24.3482 6.19282 25.1904 7.08121 24.6251L12.4923 21.1984C12.6441 21.1019 12.8202 21.0507 13 21.0507C13.1798 21.0507 13.3559 21.1019 13.5077 21.1984Z" fill="#F8D57E" stroke="#F8D57E" stroke-width="2" stroke-linecap="round" stroke-linejoin="round"/>
</svg>
