<svg width="39" height="39" viewBox="0 0 39 39" fill="none" xmlns="http://www.w3.org/2000/svg">
<path d="M9.06919 12.1011C4.76475 13.075 2.61254 13.562 2.10049 15.2085C1.58844 16.8551 3.05569 18.5709 5.99017 22.0024L6.74936 22.8901C7.58325 23.8652 8.00019 24.3528 8.18775 24.956C8.37533 25.5592 8.3123 26.2097 8.18621 27.5108L8.07145 28.6952C7.62779 33.2736 7.40596 35.5628 8.74651 36.5804C10.0871 37.598 12.1022 36.6702 16.1325 34.8146L17.1751 34.3344C18.3203 33.8072 18.8929 33.5434 19.5 33.5434C20.1071 33.5434 20.6797 33.8072 21.8249 34.3344L22.8675 34.8146C26.8977 36.6702 28.9129 37.598 30.2535 36.5804C31.594 35.5628 31.3721 33.2736 30.9285 28.6952M33.0098 22.0024C35.9444 18.5709 37.4116 16.8551 36.8995 15.2085C36.3875 13.562 34.2351 13.075 29.9308 12.1011L28.8171 11.8491C27.5939 11.5723 26.9824 11.434 26.4914 11.0612C26.0002 10.6884 25.6854 10.1234 25.0554 8.99341L24.4819 7.96466C22.2653 3.98821 21.1571 2 19.5 2C17.8429 2 16.7346 3.98823 14.518 7.96467" stroke="#81B441" stroke-width="4" stroke-linecap="round"/>
</svg>
