<svg width="728" height="427" viewBox="0 0 728 427" fill="none" xmlns="http://www.w3.org/2000/svg">
<path opacity="0.13" d="M33.0886 255.239C11.7207 258.246 16.239 260.674 3 266.653V427H725.126V140.55C725.126 140.55 705.223 179.713 689.622 178.055C665.47 175.489 675.973 155.922 651.71 157.4C633.669 158.499 630.648 210.354 604.772 209.037C572.083 207.374 584.923 181.593 552.418 178.055C529.591 175.57 530.269 137.828 507.285 137.289C471.777 136.457 466.781 105.599 436.276 103.046C364.283 97.0194 430.212 0.132048 358.045 4.11975C287.623 8.01108 366.234 164.033 296.063 157.4C278.39 155.73 270.939 141.073 253.337 143.268C231.598 145.979 233.393 172.232 212.417 178.055C184.996 185.667 170.647 151.914 142.611 157.4C115.755 162.656 117.135 199.185 89.6551 199.253C52.6487 199.346 69.654 250.093 33.0886 255.239Z" fill="url(#paint0_linear_89_2494)"/>
<path d="M3 266.653C16.239 260.674 11.7207 258.246 33.0886 255.239C69.654 250.093 52.6487 199.346 89.6551 199.253C117.135 199.185 115.755 162.656 142.611 157.4C170.647 151.914 184.996 185.667 212.417 178.055C233.393 172.232 231.598 145.979 253.337 143.268C270.939 141.073 278.39 155.73 296.063 157.4C366.234 164.033 287.623 8.01108 358.045 4.11975C430.212 0.132049 364.283 97.0193 436.276 103.045C466.781 105.599 471.777 136.457 507.285 137.289C530.269 137.828 529.591 175.57 552.418 178.055C584.923 181.593 572.084 207.374 604.772 209.037C630.648 210.354 633.669 158.499 651.71 157.4C675.973 155.922 665.47 175.489 689.622 178.055C705.223 179.713 725.126 140.55 725.126 140.55" stroke="url(#paint1_linear_89_2494)" stroke-width="5" stroke-linecap="round"/>
<path opacity="0.5" d="M407.62 42.0485H506.196V426.88H407.62V42.0485Z" fill="url(#paint2_linear_89_2494)"/>
<g filter="url(#filter0_d_89_2494)">
<ellipse cx="456.736" cy="108.481" rx="24.0709" ry="22.829" fill="white"/>
<path d="M474.807 108.481C474.807 117.48 467.02 125.31 456.736 125.31C446.452 125.31 438.665 117.48 438.665 108.481C438.665 99.4823 446.452 91.6522 456.736 91.6522C467.02 91.6522 474.807 99.4823 474.807 108.481Z" stroke="url(#paint3_linear_89_2494)" stroke-width="12"/>
</g>
<path opacity="0.4" d="M44.4993 407.004C45.0513 407.628 45.7593 407.88 46.5993 407.88C48.0873 407.88 49.2153 407.04 49.2153 405.264V399.732H48.0153V405.252C48.0153 406.188 47.4393 406.812 46.5153 406.812C45.8553 406.812 45.4113 406.476 45.0753 406.092L44.4993 407.004ZM56.3699 407.736H57.6899L54.5099 399.732H53.0099L49.8299 407.736H51.1499L51.7979 406.08H55.7219L56.3699 407.736ZM53.7539 400.776L55.3739 405.012H52.1459L53.7539 400.776ZM64.2781 407.736H65.4421V399.732H64.2421V405.732L59.8861 399.732H58.6501V407.736H59.8501V401.592L64.2781 407.736Z" fill="white"/>
<path d="M452.226 409.736H450.822V403.796L448.362 409.736H447.762L445.314 403.796V409.736H443.91V401.732H445.89L448.062 407L450.246 401.732H452.226V409.736ZM461.129 409.736H459.533L458.945 408.2H455.273L454.685 409.736H453.089L456.233 401.732H457.985L461.129 409.736ZM458.549 406.964L457.109 403.148L455.669 406.964H458.549ZM464.89 409.736H463.486V406.412L460.378 401.732H461.986L464.194 405.164L466.378 401.732H467.986L464.89 406.412V409.736Z" fill="white"/>
<path opacity="0.4" d="M143.731 407.736H144.931V404.184H149.023V403.128H144.931V400.788H149.107V399.732H143.731V407.736ZM150.399 407.736H155.775V406.68H151.599V404.184H155.691V403.128H151.599V400.788H155.775V399.732H150.399V407.736ZM157.278 407.736H161.13C162.606 407.736 163.446 406.836 163.446 405.576C163.446 404.604 162.75 403.74 161.898 403.608C162.63 403.452 163.29 402.78 163.29 401.772C163.29 400.608 162.462 399.732 161.034 399.732H157.278V407.736ZM158.478 403.128V400.788H160.806C161.61 400.788 162.054 401.304 162.054 401.964C162.054 402.624 161.61 403.128 160.806 403.128H158.478ZM158.478 406.68V404.184H160.866C161.754 404.184 162.21 404.76 162.21 405.42C162.21 406.2 161.706 406.68 160.866 406.68H158.478Z" fill="white"/>
<path opacity="0.4" d="M252.687 407.736H253.887V399.732H252.171L249.843 405.48L247.515 399.732H245.799V407.736H246.999V401.376L249.591 407.736H250.095L252.687 401.376V407.736ZM261.378 407.736H262.698L259.518 399.732H258.018L254.838 407.736H256.158L256.806 406.08H260.73L261.378 407.736ZM258.762 400.776L260.382 405.012H257.154L258.762 400.776ZM268.266 407.736H269.658L267.606 404.532C268.626 404.4 269.598 403.632 269.598 402.192C269.598 400.716 268.554 399.732 267.03 399.732H263.658V407.736H264.858V404.652H266.358L268.266 407.736ZM268.362 402.192C268.362 403.032 267.738 403.596 266.874 403.596H264.858V400.788H266.874C267.738 400.788 268.362 401.352 268.362 402.192Z" fill="white"/>
<path d="M460.226 372.564C460.226 373.032 459.862 373.372 459.282 373.372H451.771C451.196 373.372 450.833 373.038 450.833 372.569C450.833 372.317 450.939 372.112 451.073 371.831L454.642 364.448C454.899 363.927 455.163 363.733 455.526 363.733C455.89 363.733 456.159 363.927 456.417 364.448L459.985 371.831C460.12 372.112 460.226 372.312 460.226 372.564Z" fill="white"/>
<path d="M460.226 298.641C460.226 299.11 459.862 299.45 459.282 299.45H451.771C451.196 299.45 450.833 299.116 450.833 298.647C450.833 298.395 450.939 298.19 451.073 297.909L454.642 290.526C454.899 290.004 455.163 289.811 455.526 289.811C455.89 289.811 456.159 290.004 456.417 290.526L459.985 297.909C460.12 298.19 460.226 298.389 460.226 298.641Z" fill="white"/>
<path d="M460.226 224.718C460.226 225.187 459.862 225.527 459.282 225.527H451.771C451.196 225.527 450.833 225.193 450.833 224.724C450.833 224.472 450.939 224.267 451.073 223.986L454.642 216.603C454.899 216.082 455.163 215.888 455.526 215.888C455.89 215.888 456.159 216.082 456.417 216.603L459.985 223.986C460.12 224.267 460.226 224.466 460.226 224.718Z" fill="white"/>
<path d="M460.226 335.602C460.226 336.071 459.862 336.411 459.282 336.411H451.771C451.196 336.411 450.833 336.077 450.833 335.608C450.833 335.356 450.939 335.151 451.073 334.87L454.642 327.487C454.899 326.965 455.163 326.772 455.526 326.772C455.89 326.772 456.159 326.965 456.417 327.487L459.985 334.87C460.12 335.151 460.226 335.35 460.226 335.602Z" fill="white"/>
<path d="M460.226 261.68C460.226 262.149 459.862 262.489 459.282 262.489H451.771C451.196 262.489 450.833 262.155 450.833 261.686C450.833 261.434 450.939 261.229 451.073 260.948L454.642 253.565C454.899 253.043 455.163 252.85 455.526 252.85C455.89 252.85 456.159 253.043 456.417 253.565L459.985 260.948C460.12 261.229 460.226 261.428 460.226 261.68Z" fill="white"/>
<path d="M460.226 187.757C460.226 188.226 459.862 188.566 459.282 188.566H451.771C451.196 188.566 450.833 188.232 450.833 187.763C450.833 187.511 450.939 187.306 451.073 187.025L454.642 179.642C454.899 179.121 455.163 178.927 455.526 178.927C455.89 178.927 456.159 179.121 456.417 179.642L459.985 187.025C460.12 187.306 460.226 187.505 460.226 187.757Z" fill="white"/>
<path d="M460.226 150.796C460.226 151.265 459.862 151.605 459.282 151.605H451.771C451.196 151.605 450.833 151.271 450.833 150.802C450.833 150.55 450.939 150.345 451.073 150.064L454.642 142.681C454.899 142.159 455.163 141.966 455.526 141.966C455.89 141.966 456.159 142.159 456.417 142.681L459.985 150.064C460.12 150.345 460.226 150.544 460.226 150.796Z" fill="white"/>
<path opacity="0.4" d="M547.749 407.004C548.301 407.628 549.009 407.88 549.849 407.88C551.337 407.88 552.465 407.04 552.465 405.264V399.732H551.265V405.252C551.265 406.188 550.689 406.812 549.765 406.812C549.105 406.812 548.661 406.476 548.325 406.092L547.749 407.004ZM554.248 404.604C554.248 406.572 555.376 407.88 557.62 407.88C559.864 407.88 560.98 406.584 560.98 404.592V399.732H559.768V404.568C559.768 405.936 559.024 406.812 557.62 406.812C556.216 406.812 555.46 405.936 555.46 404.568V399.732H554.248V404.604ZM568.395 407.736H569.559V399.732H568.359V405.732L564.003 399.732H562.767V407.736H563.967V401.592L568.395 407.736Z" fill="white"/>
<path opacity="0.4" d="M350.351 407.736H351.671L348.491 399.732H346.991L343.811 407.736H345.131L345.779 406.08H349.703L350.351 407.736ZM347.735 400.776L349.355 405.012H346.127L347.735 400.776ZM352.632 407.736H353.832V404.652H356.004C357.636 404.652 358.56 403.524 358.56 402.192C358.56 400.86 357.648 399.732 356.004 399.732H352.632V407.736ZM357.324 402.192C357.324 403.032 356.712 403.596 355.848 403.596H353.832V400.788H355.848C356.712 400.788 357.324 401.352 357.324 402.192ZM364.4 407.736H365.792L363.74 404.532C364.76 404.4 365.732 403.632 365.732 402.192C365.732 400.716 364.688 399.732 363.164 399.732H359.792V407.736H360.992V404.652H362.492L364.4 407.736ZM364.496 402.192C364.496 403.032 363.872 403.596 363.008 403.596H360.992V400.788H363.008C363.872 400.788 364.496 401.352 364.496 402.192Z" fill="white"/>
<path opacity="0.4" d="M648.248 407.004C648.8 407.628 649.508 407.88 650.348 407.88C651.836 407.88 652.964 407.04 652.964 405.264V399.732H651.764V405.252C651.764 406.188 651.188 406.812 650.264 406.812C649.604 406.812 649.16 406.476 648.824 406.092L648.248 407.004ZM654.747 404.604C654.747 406.572 655.875 407.88 658.119 407.88C660.363 407.88 661.479 406.584 661.479 404.592V399.732H660.267V404.568C660.267 405.936 659.523 406.812 658.119 406.812C656.715 406.812 655.959 405.936 655.959 404.568V399.732H654.747V404.604ZM663.266 407.736H668.102V406.68H664.466V399.732H663.266V407.736Z" fill="white"/>
<g filter="url(#filter1_d_89_2494)">
<path fill-rule="evenodd" clip-rule="evenodd" d="M437.96 10.5225C431.333 10.5225 425.96 15.8951 425.96 22.5225V47.4418C425.96 54.0692 431.333 59.4418 437.96 59.4418H447.854L455.505 71.8891C456.286 73.1594 458.132 73.1594 458.913 71.8891L466.564 59.4418H533.168C539.796 59.4418 545.168 54.0692 545.168 47.4418V22.5225C545.168 15.8951 539.796 10.5225 533.168 10.5225H437.96Z" fill="#C2BCE4"/>
</g>
<g filter="url(#filter2_d_89_2494)">
<path d="M442.44 40.0164C441.405 40.0164 440.531 39.8617 439.816 39.5524C439.101 39.2324 438.568 38.8057 438.216 38.2724C437.875 37.7391 437.704 37.1417 437.704 36.4804C437.704 35.9257 437.843 35.4244 438.12 34.9764C438.408 34.5177 438.781 34.1657 439.24 33.9204C438.483 33.4297 438.104 32.6937 438.104 31.7124C438.104 30.7631 438.467 29.9897 439.192 29.3924C439.928 28.7951 441.011 28.4964 442.44 28.4964C443.859 28.4964 444.925 28.7951 445.64 29.3924C446.365 29.9791 446.728 30.7471 446.728 31.6964C446.728 32.6671 446.365 33.4084 445.64 33.9204C446.109 34.1444 446.483 34.4857 446.76 34.9444C447.048 35.4031 447.192 35.9204 447.192 36.4964C447.192 37.1577 447.016 37.7551 446.664 38.2884C446.312 38.8111 445.779 39.2324 445.064 39.5524C444.349 39.8617 443.475 40.0164 442.44 40.0164ZM442.44 33.0884C442.888 33.0777 443.256 32.9604 443.544 32.7364C443.832 32.5017 443.976 32.2084 443.976 31.8564C443.976 31.4937 443.832 31.2004 443.544 30.9764C443.256 30.7417 442.888 30.6244 442.44 30.6244C441.981 30.6244 441.608 30.7417 441.32 30.9764C441.043 31.2004 440.904 31.4937 440.904 31.8564C440.904 32.2191 441.043 32.5177 441.32 32.7524C441.608 32.9764 441.981 33.0884 442.44 33.0884ZM442.44 37.9044C442.941 37.9044 443.352 37.7764 443.672 37.5204C444.003 37.2644 444.168 36.9231 444.168 36.4964C444.168 36.0697 444.003 35.7284 443.672 35.4724C443.352 35.2164 442.941 35.0884 442.44 35.0884C441.939 35.0884 441.523 35.2164 441.192 35.4724C440.861 35.7284 440.696 36.0697 440.696 36.4964C440.696 36.9231 440.861 37.2644 441.192 37.5204C441.523 37.7764 441.939 37.9044 442.44 37.9044ZM453.331 40.0164C452.296 40.0164 451.421 39.8617 450.707 39.5524C449.992 39.2324 449.459 38.8057 449.107 38.2724C448.765 37.7391 448.595 37.1417 448.595 36.4804C448.595 35.9257 448.733 35.4244 449.011 34.9764C449.299 34.5177 449.672 34.1657 450.131 33.9204C449.373 33.4297 448.995 32.6937 448.995 31.7124C448.995 30.7631 449.357 29.9897 450.083 29.3924C450.819 28.7951 451.901 28.4964 453.331 28.4964C454.749 28.4964 455.816 28.7951 456.531 29.3924C457.256 29.9791 457.619 30.7471 457.619 31.6964C457.619 32.6671 457.256 33.4084 456.531 33.9204C457 34.1444 457.373 34.4857 457.651 34.9444C457.939 35.4031 458.083 35.9204 458.083 36.4964C458.083 37.1577 457.907 37.7551 457.555 38.2884C457.203 38.8111 456.669 39.2324 455.955 39.5524C455.24 39.8617 454.365 40.0164 453.331 40.0164ZM453.331 33.0884C453.779 33.0777 454.147 32.9604 454.435 32.7364C454.723 32.5017 454.867 32.2084 454.867 31.8564C454.867 31.4937 454.723 31.2004 454.435 30.9764C454.147 30.7417 453.779 30.6244 453.331 30.6244C452.872 30.6244 452.499 30.7417 452.211 30.9764C451.933 31.2004 451.795 31.4937 451.795 31.8564C451.795 32.2191 451.933 32.5177 452.211 32.7524C452.499 32.9764 452.872 33.0884 453.331 33.0884ZM453.331 37.9044C453.832 37.9044 454.243 37.7764 454.563 37.5204C454.893 37.2644 455.059 36.9231 455.059 36.4964C455.059 36.0697 454.893 35.7284 454.563 35.4724C454.243 35.2164 453.832 35.0884 453.331 35.0884C452.829 35.0884 452.413 35.2164 452.083 35.4724C451.752 35.7284 451.587 36.0697 451.587 36.4964C451.587 36.9231 451.752 37.2644 452.083 37.5204C452.413 37.7764 452.829 37.9044 453.331 37.9044ZM467.581 40.0164C466.546 40.0164 465.671 39.8617 464.957 39.5524C464.242 39.2324 463.709 38.8057 463.357 38.2724C463.015 37.7391 462.845 37.1417 462.845 36.4804C462.845 35.9257 462.983 35.4244 463.261 34.9764C463.549 34.5177 463.922 34.1657 464.381 33.9204C463.623 33.4297 463.245 32.6937 463.245 31.7124C463.245 30.7631 463.607 29.9897 464.333 29.3924C465.069 28.7951 466.151 28.4964 467.581 28.4964C468.999 28.4964 470.066 28.7951 470.781 29.3924C471.506 29.9791 471.869 30.7471 471.869 31.6964C471.869 32.6671 471.506 33.4084 470.781 33.9204C471.25 34.1444 471.623 34.4857 471.901 34.9444C472.189 35.4031 472.333 35.9204 472.333 36.4964C472.333 37.1577 472.157 37.7551 471.805 38.2884C471.453 38.8111 470.919 39.2324 470.205 39.5524C469.49 39.8617 468.615 40.0164 467.581 40.0164ZM467.581 33.0884C468.029 33.0777 468.397 32.9604 468.685 32.7364C468.973 32.5017 469.117 32.2084 469.117 31.8564C469.117 31.4937 468.973 31.2004 468.685 30.9764C468.397 30.7417 468.029 30.6244 467.581 30.6244C467.122 30.6244 466.749 30.7417 466.461 30.9764C466.183 31.2004 466.045 31.4937 466.045 31.8564C466.045 32.2191 466.183 32.5177 466.461 32.7524C466.749 32.9764 467.122 33.0884 467.581 33.0884ZM467.581 37.9044C468.082 37.9044 468.493 37.7764 468.813 37.5204C469.143 37.2644 469.309 36.9231 469.309 36.4964C469.309 36.0697 469.143 35.7284 468.813 35.4724C468.493 35.2164 468.082 35.0884 467.581 35.0884C467.079 35.0884 466.663 35.2164 466.333 35.4724C466.002 35.7284 465.837 36.0697 465.837 36.4964C465.837 36.9231 466.002 37.2644 466.333 37.5204C466.663 37.7764 467.079 37.9044 467.581 37.9044ZM478.199 40.0324C477.229 40.0324 476.391 39.8777 475.687 39.5684C474.994 39.2591 474.466 38.8484 474.103 38.3364C473.751 37.8244 473.565 37.2644 473.543 36.6564C473.543 36.5604 473.575 36.4804 473.639 36.4164C473.703 36.3524 473.783 36.3204 473.879 36.3204H476.135C476.391 36.3204 476.567 36.4217 476.663 36.6244C476.813 36.9764 477.01 37.2324 477.255 37.3924C477.511 37.5524 477.826 37.6324 478.199 37.6324C478.658 37.6324 479.037 37.4937 479.335 37.2164C479.645 36.9391 479.799 36.5497 479.799 36.0484C479.799 35.6111 479.65 35.2484 479.351 34.9604C479.053 34.6724 478.669 34.5284 478.199 34.5284C477.933 34.5284 477.719 34.5657 477.559 34.6404C477.399 34.7044 477.245 34.7951 477.095 34.9124C476.935 35.0404 476.797 35.1044 476.679 35.1044H474.455C474.359 35.1044 474.274 35.0724 474.199 35.0084C474.135 34.9337 474.103 34.8484 474.103 34.7524L474.695 29.1364C474.706 28.9871 474.759 28.8697 474.855 28.7844C474.962 28.6991 475.085 28.6564 475.223 28.6564H481.735C481.853 28.6564 481.949 28.6937 482.023 28.7684C482.098 28.8431 482.135 28.9391 482.135 29.0564V30.6564C482.135 30.7631 482.098 30.8591 482.023 30.9444C481.949 31.0191 481.853 31.0564 481.735 31.0564H477.079L476.887 33.0244C477.143 32.8431 477.431 32.7097 477.751 32.6244C478.071 32.5284 478.487 32.4804 478.999 32.4804C479.682 32.4804 480.322 32.6351 480.919 32.9444C481.517 33.2431 481.991 33.6697 482.343 34.2244C482.706 34.7791 482.887 35.4137 482.887 36.1284C482.887 36.8751 482.701 37.5471 482.327 38.1444C481.954 38.7311 481.41 39.1951 480.695 39.5364C479.991 39.8671 479.159 40.0324 478.199 40.0324ZM488.781 40.0164C487.832 40.0164 486.994 39.8511 486.269 39.5204C485.544 39.1791 484.978 38.7044 484.573 38.0964C484.168 37.4884 483.965 36.7897 483.965 36.0004C483.965 35.0831 484.418 33.9897 485.325 32.7204L488.125 28.9764C488.274 28.7631 488.466 28.6564 488.701 28.6564H490.941C491.037 28.6564 491.117 28.6937 491.181 28.7684C491.256 28.8324 491.293 28.9124 491.293 29.0084C491.293 29.0617 491.266 29.1311 491.213 29.2164L489.069 32.1284C489.197 32.0964 489.346 32.0804 489.517 32.0804C490.168 32.1124 490.797 32.2937 491.405 32.6244C492.024 32.9551 492.525 33.4084 492.909 33.9844C493.304 34.5497 493.501 35.2004 493.501 35.9364C493.501 36.6831 493.304 37.3711 492.909 38.0004C492.514 38.6191 491.96 39.1097 491.245 39.4724C490.53 39.8351 489.709 40.0164 488.781 40.0164ZM488.749 37.6164C489.218 37.6164 489.618 37.4724 489.949 37.1844C490.28 36.8857 490.445 36.4857 490.445 35.9844C490.445 35.4724 490.28 35.0724 489.949 34.7844C489.629 34.4964 489.229 34.3524 488.749 34.3524C488.269 34.3524 487.864 34.4964 487.533 34.7844C487.213 35.0724 487.053 35.4724 487.053 35.9844C487.053 36.4964 487.213 36.8964 487.533 37.1844C487.864 37.4724 488.269 37.6164 488.749 37.6164ZM495.186 39.8564C495.068 39.8564 494.967 39.8191 494.882 39.7444C494.807 39.6697 494.77 39.5737 494.77 39.4564V37.3444C494.77 37.2271 494.807 37.1311 494.882 37.0564C494.967 36.9711 495.068 36.9284 495.186 36.9284H497.298C497.415 36.9284 497.511 36.9711 497.586 37.0564C497.66 37.1311 497.698 37.2271 497.698 37.3444V39.4564C497.698 39.5631 497.66 39.6591 497.586 39.7444C497.511 39.8191 497.415 39.8564 497.298 39.8564H495.186ZM503.781 40.0164C502.832 40.0164 501.994 39.8511 501.269 39.5204C500.544 39.1791 499.978 38.7044 499.573 38.0964C499.168 37.4884 498.965 36.7897 498.965 36.0004C498.965 35.0831 499.418 33.9897 500.325 32.7204L503.125 28.9764C503.274 28.7631 503.466 28.6564 503.701 28.6564H505.941C506.037 28.6564 506.117 28.6937 506.181 28.7684C506.256 28.8324 506.293 28.9124 506.293 29.0084C506.293 29.0617 506.266 29.1311 506.213 29.2164L504.069 32.1284C504.197 32.0964 504.346 32.0804 504.517 32.0804C505.168 32.1124 505.797 32.2937 506.405 32.6244C507.024 32.9551 507.525 33.4084 507.909 33.9844C508.304 34.5497 508.501 35.2004 508.501 35.9364C508.501 36.6831 508.304 37.3711 507.909 38.0004C507.514 38.6191 506.96 39.1097 506.245 39.4724C505.53 39.8351 504.709 40.0164 503.781 40.0164ZM503.749 37.6164C504.218 37.6164 504.618 37.4724 504.949 37.1844C505.28 36.8857 505.445 36.4857 505.445 35.9844C505.445 35.4724 505.28 35.0724 504.949 34.7844C504.629 34.4964 504.229 34.3524 503.749 34.3524C503.269 34.3524 502.864 34.4964 502.533 34.7844C502.213 35.0724 502.053 35.4724 502.053 35.9844C502.053 36.4964 502.213 36.8964 502.533 37.1844C502.864 37.4724 503.269 37.6164 503.749 37.6164ZM514.394 40.0164C512.922 40.0057 511.802 39.6164 511.034 38.8484C510.266 38.0804 509.844 37.0671 509.77 35.8084C509.748 35.2324 509.738 34.7151 509.738 34.2564C509.738 33.7871 509.748 33.2537 509.77 32.6564C509.812 31.8564 510.01 31.1471 510.362 30.5284C510.724 29.8991 511.242 29.4031 511.914 29.0404C512.596 28.6777 513.423 28.4964 514.394 28.4964C515.364 28.4964 516.191 28.6777 516.874 29.0404C517.556 29.4031 518.074 29.8991 518.426 30.5284C518.788 31.1471 518.991 31.8564 519.034 32.6564C519.055 32.9551 519.066 33.4884 519.066 34.2564C519.066 35.0031 519.055 35.5204 519.034 35.8084C518.959 37.0671 518.538 38.0804 517.77 38.8484C517.002 39.6164 515.876 40.0057 514.394 40.0164ZM514.394 37.6004C514.895 37.6004 515.268 37.4404 515.514 37.1204C515.759 36.7897 515.892 36.3257 515.914 35.7284C515.935 35.4191 515.946 34.9177 515.946 34.2244C515.946 33.5311 515.935 33.0404 515.914 32.7524C515.892 32.1764 515.759 31.7231 515.514 31.3924C515.268 31.0511 514.895 30.8804 514.394 30.8804C513.434 30.8804 512.927 31.5044 512.874 32.7524C512.863 33.0404 512.858 33.5311 512.858 34.2244C512.858 34.9177 512.863 35.4191 512.874 35.7284C512.927 36.9764 513.434 37.6004 514.394 37.6004ZM524.722 39.8564C524.616 39.8564 524.52 39.8191 524.434 39.7444C524.36 39.6591 524.322 39.5631 524.322 39.4564V29.0724C524.322 28.9551 524.36 28.8591 524.434 28.7844C524.509 28.6991 524.605 28.6564 524.722 28.6564H529.25C530.637 28.6564 531.725 28.9711 532.514 29.6004C533.304 30.2297 533.698 31.1524 533.698 32.3684C533.698 33.5844 533.304 34.4964 532.514 35.1044C531.725 35.7017 530.637 36.0004 529.25 36.0004H527.426V39.4564C527.426 39.5631 527.389 39.6591 527.314 39.7444C527.24 39.8191 527.144 39.8564 527.026 39.8564H524.722ZM529.17 33.7124C529.608 33.7124 529.949 33.6004 530.194 33.3764C530.45 33.1417 530.578 32.8004 530.578 32.3524C530.578 31.9364 530.461 31.6004 530.226 31.3444C530.002 31.0884 529.65 30.9604 529.17 30.9604H527.378V33.7124H529.17Z" fill="white"/>
</g>
<defs>
<filter id="filter0_d_89_2494" x="407.665" y="65.6522" width="98.1416" height="95.658" filterUnits="userSpaceOnUse" color-interpolation-filters="sRGB">
<feFlood flood-opacity="0" result="BackgroundImageFix"/>
<feColorMatrix in="SourceAlpha" type="matrix" values="0 0 0 0 0 0 0 0 0 0 0 0 0 0 0 0 0 0 127 0" result="hardAlpha"/>
<feOffset dy="5"/>
<feGaussianBlur stdDeviation="12.5"/>
<feColorMatrix type="matrix" values="0 0 0 0 0 0 0 0 0 0 0 0 0 0 0 0 0 0 0.1 0"/>
<feBlend mode="normal" in2="BackgroundImageFix" result="effect1_dropShadow_89_2494"/>
<feBlend mode="normal" in="SourceGraphic" in2="effect1_dropShadow_89_2494" result="shape"/>
</filter>
<filter id="filter1_d_89_2494" x="405.96" y="0.522491" width="159.208" height="102.319" filterUnits="userSpaceOnUse" color-interpolation-filters="sRGB">
<feFlood flood-opacity="0" result="BackgroundImageFix"/>
<feColorMatrix in="SourceAlpha" type="matrix" values="0 0 0 0 0 0 0 0 0 0 0 0 0 0 0 0 0 0 127 0" result="hardAlpha"/>
<feOffset dy="10"/>
<feGaussianBlur stdDeviation="10"/>
<feColorMatrix type="matrix" values="0 0 0 0 0.984314 0 0 0 0 0.8 0 0 0 0 0.392157 0 0 0 0.1 0"/>
<feBlend mode="normal" in2="BackgroundImageFix" result="effect1_dropShadow_89_2494"/>
<feBlend mode="normal" in="SourceGraphic" in2="effect1_dropShadow_89_2494" result="shape"/>
</filter>
<filter id="filter2_d_89_2494" x="433.704" y="28.4964" width="103.994" height="19.536" filterUnits="userSpaceOnUse" color-interpolation-filters="sRGB">
<feFlood flood-opacity="0" result="BackgroundImageFix"/>
<feColorMatrix in="SourceAlpha" type="matrix" values="0 0 0 0 0 0 0 0 0 0 0 0 0 0 0 0 0 0 127 0" result="hardAlpha"/>
<feOffset dy="4"/>
<feGaussianBlur stdDeviation="2"/>
<feColorMatrix type="matrix" values="0 0 0 0 1 0 0 0 0 1 0 0 0 0 1 0 0 0 0.05 0"/>
<feBlend mode="normal" in2="BackgroundImageFix" result="effect1_dropShadow_89_2494"/>
<feBlend mode="normal" in="SourceGraphic" in2="effect1_dropShadow_89_2494" result="shape"/>
</filter>
<linearGradient id="paint0_linear_89_2494" x1="364.063" y1="4" x2="364.063" y2="427" gradientUnits="userSpaceOnUse">
<stop stop-color="#81B441"/>
<stop offset="1" stop-color="#161619" stop-opacity="0"/>
</linearGradient>
<linearGradient id="paint1_linear_89_2494" x1="364.063" y1="4" x2="364.063" y2="266.653" gradientUnits="userSpaceOnUse">
<stop stop-color="#C2F3A6"/>
<stop offset="1" stop-color="#81B441"/>
</linearGradient>
<linearGradient id="paint2_linear_89_2494" x1="456.908" y1="42.0485" x2="456.908" y2="426.88" gradientUnits="userSpaceOnUse">
<stop offset="0.0104167" stop-color="#81B441" stop-opacity="0"/>
<stop offset="0.28125" stop-color="#C2F3A6"/>
<stop offset="0.666667" stop-color="#81B441"/>
<stop offset="0.984375" stop-color="#C4C4C4" stop-opacity="0"/>
</linearGradient>
<linearGradient id="paint3_linear_89_2494" x1="456.736" y1="85.6522" x2="456.736" y2="131.31" gradientUnits="userSpaceOnUse">
<stop stop-color="#C2F3A6"/>
<stop offset="1" stop-color="#81B441"/>
</linearGradient>
</defs>
</svg>
