<svg width="182" height="22" viewBox="0 0 182 22" fill="none" xmlns="http://www.w3.org/2000/svg">
<path d="M7.81645 19.22C5.90979 19.22 4.42845 18.692 3.37245 17.636C2.31645 16.58 1.75179 15.15 1.67845 13.346C1.66379 12.906 1.65645 12.2167 1.65645 11.278C1.65645 10.3247 1.66379 9.63533 1.67845 9.21C1.73712 7.42067 2.29445 6.00533 3.35045 4.964C4.42112 3.908 5.90979 3.38 7.81645 3.38C9.10712 3.38 10.1998 3.61467 11.0945 4.084C11.9891 4.55333 12.6638 5.118 13.1185 5.778C13.5731 6.42333 13.8151 7.02467 13.8445 7.582V7.626C13.8445 7.74333 13.7931 7.846 13.6905 7.934C13.6025 8.00733 13.4998 8.044 13.3825 8.044H12.1505C12.0185 8.044 11.9158 8.01467 11.8425 7.956C11.7838 7.89733 11.7251 7.78733 11.6665 7.626C11.4318 6.93667 10.9991 6.35733 10.3685 5.888C9.73779 5.41867 8.88712 5.184 7.81645 5.184C6.58445 5.184 5.61645 5.52133 4.91245 6.196C4.20845 6.87067 3.83445 7.912 3.79045 9.32C3.77579 9.74533 3.76845 10.398 3.76845 11.278C3.76845 12.1433 3.77579 12.796 3.79045 13.236C3.83445 14.6587 4.20845 15.7073 4.91245 16.382C5.61645 17.0567 6.58445 17.394 7.81645 17.394C9.06312 17.394 10.0605 17.0567 10.8085 16.382C11.5565 15.6927 11.9305 14.666 11.9305 13.302V12.356H8.56445C8.41779 12.356 8.29312 12.3047 8.19045 12.202C8.10245 12.0993 8.05845 11.9747 8.05845 11.828V11.168C8.05845 11.0213 8.10245 10.8967 8.19045 10.794C8.29312 10.6913 8.41779 10.64 8.56445 10.64H13.4925C13.6538 10.64 13.7785 10.6913 13.8665 10.794C13.9691 10.882 14.0205 11.0067 14.0205 11.168V13.258C14.0205 14.446 13.7711 15.4947 13.2725 16.404C12.7885 17.2987 12.0771 17.9953 11.1385 18.494C10.1998 18.978 9.09245 19.22 7.81645 19.22ZM17.6661 19C17.5194 19 17.4021 18.956 17.3141 18.868C17.2261 18.7653 17.1821 18.6407 17.1821 18.494V4.128C17.1821 3.96667 17.2261 3.842 17.3141 3.754C17.4021 3.65133 17.5194 3.6 17.6661 3.6H23.0341C24.7061 3.6 26.0114 3.996 26.9501 4.788C27.9034 5.56533 28.3801 6.702 28.3801 8.198C28.3801 9.31267 28.1014 10.2293 27.5441 10.948C26.9868 11.6667 26.2094 12.1653 25.2121 12.444L28.6001 18.318C28.6441 18.406 28.6661 18.4867 28.6661 18.56C28.6661 18.6773 28.6221 18.78 28.5341 18.868C28.4461 18.956 28.3434 19 28.2261 19H27.2581C27.0381 19 26.8621 18.9487 26.7301 18.846C26.6128 18.7433 26.5028 18.5967 26.4001 18.406L23.1661 12.774H19.2501V18.494C19.2501 18.6407 19.1988 18.7653 19.0961 18.868C18.9934 18.956 18.8688 19 18.7221 19H17.6661ZM22.9461 10.97C25.1608 10.97 26.2681 10.0387 26.2681 8.176C26.2681 6.31333 25.1608 5.382 22.9461 5.382H19.2501V10.97H22.9461ZM37.0551 19.22C35.1485 19.22 33.6745 18.7213 32.6331 17.724C31.5918 16.712 31.0418 15.194 30.9831 13.17C30.9685 12.73 30.9611 12.1067 30.9611 11.3C30.9611 10.4933 30.9685 9.87733 30.9831 9.452C31.0418 7.45733 31.6065 5.94667 32.6771 4.92C33.7625 3.89333 35.2218 3.38 37.0551 3.38C38.8885 3.38 40.3405 3.89333 41.4111 4.92C42.4818 5.94667 43.0465 7.45733 43.1051 9.452C43.1345 10.3027 43.1491 10.9187 43.1491 11.3C43.1491 11.6667 43.1345 12.29 43.1051 13.17C43.0465 15.194 42.4965 16.712 41.4551 17.724C40.4285 18.7213 38.9618 19.22 37.0551 19.22ZM37.0551 17.394C38.2285 17.394 39.1671 17.042 39.8711 16.338C40.5751 15.6193 40.9565 14.5267 41.0151 13.06C41.0445 12.18 41.0591 11.5933 41.0591 11.3C41.0591 10.9773 41.0445 10.3907 41.0151 9.54C40.9565 8.07333 40.5751 6.98067 39.8711 6.262C39.1671 5.54333 38.2285 5.184 37.0551 5.184C35.8818 5.184 34.9358 5.54333 34.2171 6.262C33.5131 6.98067 33.1391 8.07333 33.0951 9.54C33.0805 9.96533 33.0731 10.552 33.0731 11.3C33.0731 12.0333 33.0805 12.62 33.0951 13.06C33.1391 14.5267 33.5131 15.6193 34.2171 16.338C34.9211 17.042 35.8671 17.394 37.0551 17.394ZM46.9068 19C46.7602 19 46.6355 18.956 46.5328 18.868C46.4448 18.7653 46.4008 18.6407 46.4008 18.494V4.128C46.4008 3.96667 46.4448 3.842 46.5328 3.754C46.6208 3.65133 46.7455 3.6 46.9068 3.6H47.9408C48.2048 3.6 48.3882 3.71 48.4908 3.93L53.1768 12.928L57.9068 3.93C58.0242 3.71 58.2002 3.6 58.4348 3.6H59.4688C59.6302 3.6 59.7548 3.65133 59.8428 3.754C59.9308 3.842 59.9748 3.96667 59.9748 4.128V18.494C59.9748 18.6407 59.9235 18.7653 59.8208 18.868C59.7328 18.956 59.6155 19 59.4688 19H58.4568C58.3102 19 58.1928 18.956 58.1048 18.868C58.0168 18.7653 57.9728 18.6407 57.9728 18.494V7.56L54.2108 14.842C54.0642 15.15 53.8295 15.304 53.5068 15.304H52.8468C52.5388 15.304 52.3042 15.15 52.1428 14.842L48.4028 7.56V18.494C48.4028 18.6407 48.3515 18.7653 48.2488 18.868C48.1608 18.956 48.0435 19 47.8968 19H46.9068Z" fill="white"/>
<path d="M63.9562 19C63.8095 19 63.6775 18.9487 63.5602 18.846C63.4575 18.7287 63.4062 18.5967 63.4062 18.45V4.172C63.4062 4.01067 63.4575 3.87867 63.5602 3.776C63.6628 3.65867 63.7948 3.6 63.9562 3.6H70.1822C72.0888 3.6 73.5848 4.03267 74.6702 4.898C75.7555 5.76333 76.2982 7.032 76.2982 8.704C76.2982 10.376 75.7555 11.63 74.6702 12.466C73.5848 13.2873 72.0888 13.698 70.1822 13.698H67.6742V18.45C67.6742 18.5967 67.6228 18.7287 67.5202 18.846C67.4175 18.9487 67.2855 19 67.1242 19H63.9562ZM70.0722 10.552C70.6735 10.552 71.1428 10.398 71.4802 10.09C71.8322 9.76733 72.0082 9.298 72.0082 8.682C72.0082 8.11 71.8468 7.648 71.5242 7.296C71.2162 6.944 70.7322 6.768 70.0722 6.768H67.6082V10.552H70.0722ZM76.4056 19C76.2882 19 76.1782 18.956 76.0756 18.868C75.9876 18.7653 75.9436 18.6553 75.9436 18.538C75.9436 18.45 75.9509 18.384 75.9656 18.34L81.0916 4.238C81.2382 3.81267 81.5316 3.6 81.9716 3.6H85.4036C85.8436 3.6 86.1369 3.81267 86.2836 4.238L91.4096 18.34C91.4242 18.384 91.4316 18.45 91.4316 18.538C91.4316 18.6553 91.3802 18.7653 91.2776 18.868C91.1896 18.956 91.0869 19 90.9696 19H88.1096C87.7576 19 87.5082 18.8387 87.3616 18.516L86.5696 16.382H80.8056L80.0136 18.516C79.8669 18.8387 79.6176 19 79.2656 19H76.4056ZM81.7296 13.082H85.6456L83.6876 7.472L81.7296 13.082ZM95.8244 19C95.6777 19 95.5457 18.9487 95.4284 18.846C95.3257 18.7287 95.2744 18.5967 95.2744 18.45V13.764L90.1924 4.304C90.1484 4.23067 90.1264 4.15 90.1264 4.062C90.1264 3.94467 90.1704 3.842 90.2584 3.754C90.361 3.65133 90.471 3.6 90.5884 3.6H93.4924C93.6977 3.6 93.8664 3.65133 93.9984 3.754C94.1304 3.85667 94.2257 3.96667 94.2844 4.084L97.3424 9.606L100.4 4.084C100.459 3.96667 100.554 3.85667 100.686 3.754C100.818 3.65133 100.987 3.6 101.192 3.6H104.096C104.214 3.6 104.316 3.65133 104.404 3.754C104.507 3.842 104.558 3.94467 104.558 4.062C104.558 4.15 104.536 4.23067 104.492 4.304L99.4104 13.764V18.45C99.4104 18.6113 99.3517 18.7433 99.2344 18.846C99.1317 18.9487 98.9997 19 98.8384 19H95.8244ZM106.925 19C106.764 19 106.625 18.9487 106.507 18.846C106.405 18.7433 106.353 18.6113 106.353 18.45V4.172C106.353 4.01067 106.405 3.87867 106.507 3.776C106.625 3.65867 106.764 3.6 106.925 3.6H109.411C109.778 3.6 110.042 3.76133 110.203 4.084L113.987 10.86L117.793 4.084C117.955 3.76133 118.219 3.6 118.585 3.6H121.071C121.233 3.6 121.365 3.65867 121.467 3.776C121.585 3.87867 121.643 4.01067 121.643 4.172V18.45C121.643 18.6113 121.585 18.7433 121.467 18.846C121.365 18.9487 121.233 19 121.071 19H118.277C118.131 19 117.999 18.9487 117.881 18.846C117.779 18.7287 117.727 18.5967 117.727 18.45V10.442L115.351 14.798C115.161 15.1353 114.904 15.304 114.581 15.304H113.393C113.1 15.304 112.843 15.1353 112.623 14.798L110.269 10.442V18.45C110.269 18.6113 110.211 18.7433 110.093 18.846C109.991 18.9487 109.859 19 109.697 19H106.925ZM125.187 19C125.04 19 124.908 18.9487 124.791 18.846C124.688 18.7287 124.637 18.5967 124.637 18.45V4.172C124.637 4.01067 124.688 3.87867 124.791 3.776C124.893 3.65867 125.025 3.6 125.187 3.6H135.571C135.732 3.6 135.864 3.65867 135.967 3.776C136.084 3.87867 136.143 4.01067 136.143 4.172V6.35C136.143 6.51133 136.084 6.64333 135.967 6.746C135.864 6.84867 135.732 6.9 135.571 6.9H128.619V9.694H135.087C135.248 9.694 135.38 9.75267 135.483 9.87C135.6 9.97267 135.659 10.1047 135.659 10.266V12.268C135.659 12.4293 135.6 12.5687 135.483 12.686C135.38 12.7887 135.248 12.84 135.087 12.84H128.619V15.7H135.747C135.908 15.7 136.04 15.7587 136.143 15.876C136.26 15.9787 136.319 16.1107 136.319 16.272V18.45C136.319 18.6113 136.26 18.7433 136.143 18.846C136.04 18.9487 135.908 19 135.747 19H125.187ZM139.302 19C139.155 19 139.023 18.9487 138.906 18.846C138.803 18.7287 138.752 18.5967 138.752 18.45V4.172C138.752 4.01067 138.803 3.87867 138.906 3.776C139.009 3.65867 139.141 3.6 139.302 3.6H141.788C142.125 3.6 142.375 3.73933 142.536 4.018L147.728 12.224V4.172C147.728 4.01067 147.779 3.87867 147.882 3.776C147.985 3.65867 148.117 3.6 148.278 3.6H151.072C151.233 3.6 151.365 3.65867 151.468 3.776C151.571 3.87867 151.622 4.01067 151.622 4.172V18.428C151.622 18.5893 151.571 18.7287 151.468 18.846C151.365 18.9487 151.233 19 151.072 19H148.586C148.249 19 147.999 18.8607 147.838 18.582L142.668 10.706V18.45C142.668 18.6113 142.609 18.7433 142.492 18.846C142.389 18.9487 142.257 19 142.096 19H139.302ZM158.567 19C158.406 19 158.267 18.9487 158.149 18.846C158.047 18.7433 157.995 18.6113 157.995 18.45V7.186H154.123C153.962 7.186 153.823 7.13467 153.705 7.032C153.603 6.92933 153.551 6.79733 153.551 6.636V4.172C153.551 4.01067 153.603 3.87867 153.705 3.776C153.823 3.65867 153.962 3.6 154.123 3.6H166.069C166.231 3.6 166.363 3.65867 166.465 3.776C166.583 3.87867 166.641 4.01067 166.641 4.172V6.636C166.641 6.79733 166.583 6.92933 166.465 7.032C166.363 7.13467 166.231 7.186 166.069 7.186H162.197V18.45C162.197 18.6113 162.139 18.7433 162.021 18.846C161.919 18.9487 161.787 19 161.625 19H158.567ZM174.359 19.22C172.937 19.22 171.727 19.0147 170.729 18.604C169.732 18.1933 168.977 17.6507 168.463 16.976C167.95 16.3013 167.679 15.568 167.649 14.776C167.649 14.644 167.693 14.534 167.781 14.446C167.884 14.358 168.001 14.314 168.133 14.314H171.059C171.235 14.314 171.375 14.3433 171.477 14.402C171.595 14.4607 171.719 14.5633 171.851 14.71C172.042 15.062 172.335 15.3553 172.731 15.59C173.142 15.81 173.685 15.92 174.359 15.92C175.151 15.92 175.76 15.8027 176.185 15.568C176.611 15.3187 176.823 14.9813 176.823 14.556C176.823 14.248 176.713 13.9987 176.493 13.808C176.273 13.6027 175.921 13.4267 175.437 13.28C174.953 13.1187 174.257 12.9427 173.347 12.752C171.573 12.4 170.245 11.8647 169.365 11.146C168.485 10.4273 168.045 9.40067 168.045 8.066C168.045 7.15667 168.295 6.35 168.793 5.646C169.307 4.92733 170.025 4.37 170.949 3.974C171.888 3.578 172.973 3.38 174.205 3.38C175.496 3.38 176.611 3.60733 177.549 4.062C178.503 4.502 179.229 5.05933 179.727 5.734C180.241 6.394 180.512 7.04667 180.541 7.692C180.541 7.824 180.497 7.94133 180.409 8.044C180.321 8.132 180.211 8.176 180.079 8.176H176.999C176.677 8.176 176.427 8.044 176.251 7.78C176.163 7.472 175.936 7.21533 175.569 7.01C175.203 6.79 174.748 6.68 174.205 6.68C173.589 6.68 173.113 6.79 172.775 7.01C172.438 7.23 172.269 7.55267 172.269 7.978C172.269 8.40333 172.489 8.74067 172.929 8.99C173.369 9.22467 174.191 9.46667 175.393 9.716C176.772 9.96533 177.865 10.2807 178.671 10.662C179.493 11.0287 180.094 11.5127 180.475 12.114C180.871 12.7007 181.069 13.4487 181.069 14.358C181.069 15.3553 180.783 16.2207 180.211 16.954C179.639 17.6873 178.847 18.252 177.835 18.648C176.823 19.0293 175.665 19.22 174.359 19.22Z" fill="#C2F3A6"/>
</svg>
