<svg width="66" height="60" viewBox="0 0 66 60" fill="none" xmlns="http://www.w3.org/2000/svg">
<g clip-path="url(#clip0_89_2536)">
<path d="M62.04 31.3044V24.7827C62.04 22.0152 60.9274 19.3611 58.947 17.4042C56.9667 15.4473 54.2807 14.3479 51.48 14.3479H10.56C10.024 14.3485 9.49355 14.2415 9.00064 14.0336C8.50774 13.8256 8.06268 13.5209 7.69244 13.138C7.3222 12.7551 7.03447 12.3019 6.84669 11.8058C6.65891 11.3098 6.57499 10.7813 6.6 10.2522C6.6742 9.22589 7.1441 8.26681 7.91282 7.57272C8.68154 6.87864 9.69048 6.50248 10.7316 6.5218H51.48C52.1991 6.5262 52.9034 6.724 53.5173 7.09396C54.1312 7.46393 54.6316 7.9921 54.9648 8.6218C55.3674 9.39151 56.0629 9.97165 56.8984 10.2346C57.7339 10.4976 58.6409 10.4218 59.4198 10.024C60.1987 9.62615 60.7858 8.93886 61.052 8.11329C61.3181 7.28772 61.2414 6.3915 60.8388 5.6218C59.9481 3.92877 58.6047 2.50948 56.9546 1.51831C55.3046 0.527128 53.411 0.00200826 51.48 6.10352e-05L10.56 6.10352e-05C7.75931 6.10352e-05 5.07334 1.09944 3.09295 3.05634C1.11257 5.01324 0 7.66737 0 10.4348L0 49.5653C0 52.3328 1.11257 54.9869 3.09295 56.9438C5.07334 58.9007 7.75931 60.0001 10.56 60.0001H51.48C54.2807 60.0001 56.9667 58.9007 58.947 56.9438C60.9274 54.9869 62.04 52.3328 62.04 49.5653V43.0435H55.44V49.5653C55.44 50.6031 55.0228 51.5984 54.2801 52.3322C53.5375 53.0661 52.5303 53.4783 51.48 53.4783H10.56C9.50974 53.4783 8.5025 53.0661 7.75986 52.3322C7.01721 51.5984 6.6 50.6031 6.6 49.5653V20.1131C7.85855 20.6143 9.20307 20.8712 10.56 20.8696H51.48C52.5303 20.8696 53.5375 21.2819 54.2801 22.0157C55.0228 22.7496 55.44 23.7449 55.44 24.7827V31.3044H62.04Z" fill="#C0D4C9"/>
<path d="M59.4001 33.9131V40.4348H42.2401V33.9131H59.4001ZM60.3373 27.3914H41.3029C39.8011 27.3914 38.3607 27.9809 37.2987 29.0303C36.2368 30.0797 35.6401 31.503 35.6401 32.987V41.3609C35.6401 42.845 36.2368 44.2683 37.2987 45.3176C38.3607 46.367 39.8011 46.9566 41.3029 46.9566H60.3373C61.8392 46.9566 63.2796 46.367 64.3415 45.3176C65.4035 44.2683 66.0001 42.845 66.0001 41.3609V32.987C66.0001 31.503 65.4035 30.0797 64.3415 29.0303C63.2796 27.9809 61.8392 27.3914 60.3373 27.3914Z" fill="#81B441"/>
</g>
<defs>
<clipPath id="clip0_89_2536">
<rect width="66" height="60" fill="white"/>
</clipPath>
</defs>
</svg>
