<svg width="66" height="67" viewBox="0 0 66 67" fill="none" xmlns="http://www.w3.org/2000/svg">
<path d="M57.5157 11.8911H35.689C34.813 11.8911 33.9728 12.2391 33.3534 12.8585C32.7339 13.478 32.3859 14.3181 32.3859 15.1942C32.3859 16.0702 32.7339 16.9103 33.3534 17.5298C33.9728 18.1492 34.813 18.4972 35.689 18.4972H57.5157C57.7897 18.4948 58.0609 18.5529 58.3098 18.6673C58.5588 18.7817 58.7795 18.9496 58.9561 19.1591C59.1328 19.3685 59.2611 19.6144 59.3318 19.8791C59.4026 20.1438 59.414 20.4208 59.3655 20.6905L54.358 44.6972C54.2832 45.1301 54.0579 45.5225 53.7219 45.8054C53.3859 46.0882 52.9607 46.2433 52.5215 46.2431H31.1175C30.6783 46.2433 30.2532 46.0882 29.9171 45.8054C29.5811 45.5225 29.3558 45.1301 29.281 44.6972L21.9746 2.64247C21.8274 1.89633 21.4253 1.22463 20.8371 0.742515C20.2489 0.2604 19.5114 -0.00210118 18.7508 1.26676e-05H3.66238C3.15906 0.00039517 2.66249 0.115797 2.21058 0.337404C1.75867 0.559012 1.36338 0.880963 1.0549 1.27867C0.746423 1.67638 0.532912 2.13933 0.430676 2.63215C0.328439 3.12498 0.340181 3.63465 0.465005 4.12225C0.665772 4.85209 1.10555 5.49348 1.71397 5.94381C2.32239 6.39414 3.06428 6.62736 3.82093 6.60616H16.0555L22.8202 45.8203C23.1607 47.7783 24.1779 49.5546 25.6943 50.8393C27.2108 52.1239 29.1302 52.8353 31.1175 52.8492H52.5215C54.518 52.8477 56.4499 52.1419 57.9773 50.8562C59.5047 49.5705 60.5296 47.7872 60.8717 45.8203L65.8791 21.8003C66.0868 20.5831 66.0263 19.3351 65.7017 18.1437C65.3771 16.9523 64.7963 15.8461 63.9999 14.9024C63.2034 13.9588 62.2105 13.2004 61.0905 12.6803C59.9706 12.1601 58.7506 11.8908 57.5157 11.8911Z" fill="#C0D4C9"/>
<path d="M48.4257 30.3884C49.3017 30.3884 50.1418 30.0404 50.7613 29.421C51.3807 28.8015 51.7287 27.9614 51.7287 27.0853C51.7287 26.2093 51.3807 25.3692 50.7613 24.7497C50.1418 24.1303 49.3017 23.7823 48.4257 23.7823H37.8558C36.9798 23.7823 36.1396 24.1303 35.5202 24.7497C34.9007 25.3692 34.5527 26.2093 34.5527 27.0853C34.5527 27.9614 34.9007 28.8015 35.5202 29.421C36.1396 30.0404 36.9798 30.3884 37.8558 30.3884H48.4257Z" fill="#C0D4C9"/>
<path d="M32.5708 66.0615C35.1248 66.0615 37.1951 63.9912 37.1951 61.4372C37.1951 58.8833 35.1248 56.8129 32.5708 56.8129C30.0169 56.8129 27.9465 58.8833 27.9465 61.4372C27.9465 63.9912 30.0169 66.0615 32.5708 66.0615Z" fill="#81B441"/>
<path d="M51.0682 66.0615C53.6221 66.0615 55.6925 63.9912 55.6925 61.4372C55.6925 58.8833 53.6221 56.8129 51.0682 56.8129C48.5142 56.8129 46.4438 58.8833 46.4438 61.4372C46.4438 63.9912 48.5142 66.0615 51.0682 66.0615Z" fill="#81B441"/>
<path d="M49.0863 37.655C49.0863 36.779 48.7383 35.9388 48.1189 35.3194C47.4994 34.6999 46.6593 34.3519 45.7833 34.3519H39.1771C38.3011 34.3519 37.4609 34.6999 36.8415 35.3194C36.222 35.9388 35.874 36.779 35.874 37.655C35.874 38.531 36.222 39.3712 36.8415 39.9906C37.4609 40.6101 38.3011 40.9581 39.1771 40.9581H45.7833C46.6593 40.9581 47.4994 40.6101 48.1189 39.9906C48.7383 39.3712 49.0863 38.531 49.0863 37.655Z" fill="#81B441"/>
</svg>
