<svg width="67" height="67" viewBox="0 0 67 67" fill="none" xmlns="http://www.w3.org/2000/svg">
<path d="M35.9982 37.2613L47.9574 30.7635C48.3272 30.533 48.6479 30.2317 48.901 29.8769C49.154 29.5221 49.3345 29.1208 49.4321 28.6961C49.5296 28.2714 49.5423 27.8315 49.4694 27.4019C49.3964 26.9722 49.2393 26.5612 49.0071 26.1924C48.5413 25.446 47.7984 24.9149 46.9414 24.7156C46.0845 24.5163 45.1834 24.6651 44.4361 25.1294L32.4769 31.6272C32.1059 31.8567 31.784 32.1572 31.5297 32.5115C31.2753 32.8658 31.0935 33.2669 30.9947 33.6917C30.8959 34.1165 30.8821 34.5566 30.954 34.9868C31.0259 35.417 31.1822 35.8287 31.4138 36.1983C31.6433 36.571 31.9444 36.8945 32.2998 37.1501C32.6551 37.4056 33.0577 37.5881 33.4841 37.687C33.9104 37.7858 34.3522 37.7991 34.7838 37.7261C35.2153 37.653 35.6281 37.495 35.9982 37.2613Z" fill="#81B441"/>
<path d="M33.5798 0.560059C27.0096 0.560059 20.5868 2.50838 15.1238 6.15863C9.66082 9.80889 5.40294 14.9971 2.8886 21.0673C0.374257 27.1374 -0.283609 33.8169 0.998191 40.2609C2.27999 46.705 5.44388 52.6242 10.0898 57.2701C14.7357 61.916 20.6549 65.0799 27.0989 66.3617C33.543 67.6435 40.2224 66.9856 46.2926 64.4713C52.3627 61.9569 57.551 57.699 61.2012 52.236C64.8515 46.773 66.7998 40.3503 66.7998 33.78C66.7998 24.9695 63.2999 16.5199 57.0699 10.29C50.84 4.06001 42.3903 0.560059 33.5798 0.560059ZM33.5798 60.356C28.3236 60.356 23.1854 58.7973 18.815 55.8771C14.4446 52.9569 11.0383 48.8063 9.02685 43.9502C7.01537 39.0941 6.48908 33.7505 7.51452 28.5953C8.53996 23.4401 11.0711 18.7047 14.7878 14.988C18.5045 11.2713 23.2399 8.74014 28.3951 7.7147C33.5504 6.68926 38.8939 7.21555 43.75 9.22703C48.6061 11.2385 52.7567 14.6448 55.677 19.0152C58.5972 23.3856 60.1558 28.5238 60.1558 33.78C60.1558 40.8284 57.3559 47.5881 52.3719 52.5721C47.3879 57.556 40.6282 60.356 33.5798 60.356Z" fill="#C0D4C9"/>
<path d="M22.7102 18.7645C22.056 18.2062 21.2107 17.9233 20.3522 17.9755C19.4937 18.0277 18.6889 18.4108 18.1071 19.0442C17.5253 19.6777 17.2118 20.5121 17.2327 21.3719C17.2535 22.2318 17.607 23.05 18.2189 23.6545L31.9985 36.9425C32.3161 37.2563 32.6936 37.5028 33.1086 37.6674C33.5236 37.832 33.9675 37.9112 34.4139 37.9004C34.8602 37.8896 35.2997 37.7889 35.7062 37.6044C36.1128 37.4199 36.4779 37.1553 36.7799 36.8265C37.0819 36.4977 37.3146 36.1114 37.4639 35.6907C37.6133 35.27 37.6763 34.8235 37.6492 34.3779C37.6221 33.9323 37.5055 33.4967 37.3063 33.0971C37.1071 32.6976 36.8294 32.3423 36.4898 32.0525L22.7102 18.7645Z" fill="#C0D4C9"/>
</svg>
