<svg width="66" height="64" viewBox="0 0 66 64" fill="none" xmlns="http://www.w3.org/2000/svg">
<path d="M56.605 21.9867H48.9376C54.1892 0.979988 39.7471 0.979987 39.7471 0.979987H36.1104C35.2505 0.97875 34.4002 1.16074 33.6162 1.51383C32.8322 1.86693 32.1324 2.38302 31.5635 3.02774C30.9945 3.67246 30.5695 4.43101 30.3167 5.25286C30.0638 6.07471 29.989 6.941 30.0972 7.79403L30.281 9.30388C30.462 10.7129 30.1513 12.1412 29.4014 13.3477L25.0162 19.6628C24.7902 20.03 24.6388 20.4381 24.5707 20.8639C24.5025 21.2896 24.5188 21.7246 24.6188 22.1441C24.7188 22.5635 24.9004 22.9591 25.1533 23.3083C25.4062 23.6575 25.7255 23.9534 26.0928 24.1792C26.829 24.6225 27.7102 24.7581 28.5456 24.5566C29.381 24.3551 30.1035 23.8328 30.5567 23.1026L36.0972 14.9232C36.7477 13.8922 37.102 12.7022 37.1213 11.4833C37.1409 11.2123 37.1409 10.9403 37.1213 10.6693L36.9375 9.21198C36.9119 9.00771 36.929 8.80034 36.9879 8.60306C37.0467 8.40578 37.146 8.22291 37.2793 8.06607C37.4127 7.90924 37.5773 7.78189 37.7625 7.6921C37.9478 7.60232 38.1497 7.55208 38.3554 7.54457H39.7471C40.7639 7.66952 41.6988 8.16503 42.373 8.93626C43.0819 9.84218 44.4999 12.7569 42.5962 20.398L40.5349 28.5512H56.0667C56.5299 28.55 56.9872 28.6564 57.4023 28.8619C57.8175 29.0674 58.1793 29.3664 58.4593 29.7355C58.7393 30.1046 58.9298 30.5336 59.0158 30.9888C59.1019 31.444 59.0811 31.9129 58.9551 32.3587L53.7034 51.291C53.528 51.9181 53.1545 52.4717 52.6387 52.8692C52.1229 53.2667 51.4924 53.4868 50.8413 53.4967H22.2328C21.7734 53.4896 21.3171 53.5747 20.8911 53.7469C20.4651 53.9191 20.0779 54.1749 19.7523 54.4992C19.4268 54.8235 19.1695 55.2098 18.9957 55.6351C18.8219 56.0605 18.7351 56.5164 18.7405 56.9759C18.7907 57.8118 19.1586 58.597 19.7688 59.1705C20.379 59.7441 21.1853 60.0628 22.0228 60.0612H51.1564C53.1585 60.0547 55.1037 59.3946 56.6962 58.1812C58.2887 56.9679 59.4415 55.2677 59.9792 53.3391L65.4409 33.5797C65.8092 32.2199 65.86 30.7935 65.5893 29.4109C65.3185 28.0283 64.7336 26.7265 63.8795 25.606C63.0255 24.4855 61.9253 23.5763 60.664 22.9487C59.4026 22.3212 58.0138 21.992 56.605 21.9867Z" fill="#C0D4C9"/>
<path d="M19.8042 25.9254H4.54807C3.43729 25.9254 2.372 26.3667 1.58656 27.1521C0.801119 27.9376 0.359863 29.0028 0.359863 30.1136L0.359863 59.8118C0.359863 60.9226 0.801119 61.9879 1.58656 62.7733C2.372 63.5588 3.43729 64 4.54807 64H19.8042C20.9149 64 21.9802 63.5588 22.7657 62.7733C23.5511 61.9879 23.9924 60.9226 23.9924 59.8118V30.1136C23.9924 29.0028 23.5511 27.9376 22.7657 27.1521C21.9802 26.3667 20.9149 25.9254 19.8042 25.9254ZM17.4278 55.965C17.4278 56.3549 17.2729 56.729 16.9971 57.0047C16.7213 57.2805 16.3473 57.4354 15.9573 57.4354H8.39492C8.00492 57.4354 7.6309 57.2805 7.35514 57.0047C7.07937 56.729 6.92445 56.3549 6.92445 55.965V33.9605C6.92445 33.7674 6.96248 33.5761 7.03638 33.3977C7.11028 33.2193 7.21859 33.0572 7.35514 32.9207C7.49168 32.7841 7.65379 32.6758 7.83219 32.6019C8.0106 32.528 8.20181 32.49 8.39492 32.49H15.9573C16.3473 32.49 16.7213 32.6449 16.9971 32.9207C17.2729 33.1965 17.4278 33.5705 17.4278 33.9605V55.965Z" fill="#81B441"/>
</svg>
