<svg width="65" height="65" viewBox="0 0 65 65" fill="none" xmlns="http://www.w3.org/2000/svg">
<g clip-path="url(#clip0_89_2592)">
<path d="M54.496 6.5H52V3.25C52 2.38805 51.6576 1.5614 51.0481 0.951903C50.4386 0.34241 49.6119 0 48.75 0C47.888 0 47.0614 0.34241 46.4519 0.951903C45.8424 1.5614 45.5 2.38805 45.5 3.25V6.5H19.5V3.25C19.5 2.38805 19.1576 1.5614 18.5481 0.951903C17.9386 0.34241 17.112 0 16.25 0C15.388 0 14.5614 0.34241 13.9519 0.951903C13.3424 1.5614 13 2.38805 13 3.25V6.5H10.504C7.71817 6.5 5.04643 7.60667 3.07655 9.57655C1.10667 11.5464 0 14.2182 0 17.004L0 54.496C0 57.2818 1.10667 59.9536 3.07655 61.9234C5.04643 63.8933 7.71817 65 10.504 65H54.496C57.2818 65 59.9536 63.8933 61.9234 61.9234C63.8933 59.9536 65 57.2818 65 54.496V17.004C65 14.2182 63.8933 11.5464 61.9234 9.57655C59.9536 7.60667 57.2818 6.5 54.496 6.5ZM58.5 54.496C58.5 55.5579 58.0781 56.5764 57.3273 57.3273C56.5764 58.0781 55.5579 58.5 54.496 58.5H10.504C9.44207 58.5 8.42364 58.0781 7.67274 57.3273C6.92185 56.5764 6.5 55.5579 6.5 54.496V17.004C6.5 15.9421 6.92185 14.9236 7.67274 14.1727C8.42364 13.4218 9.44207 13 10.504 13H13V16.25C13 17.112 13.3424 17.9386 13.9519 18.5481C14.5614 19.1576 15.388 19.5 16.25 19.5C17.112 19.5 17.9386 19.1576 18.5481 18.5481C19.1576 17.9386 19.5 17.112 19.5 16.25V13H45.5V16.25C45.5 17.112 45.8424 17.9386 46.4519 18.5481C47.0614 19.1576 47.888 19.5 48.75 19.5C49.6119 19.5 50.4386 19.1576 51.0481 18.5481C51.6576 17.9386 52 17.112 52 16.25V13H54.496C55.5579 13 56.5764 13.4218 57.3273 14.1727C58.0781 14.9236 58.5 15.9421 58.5 17.004V54.496Z" fill="#C0D4C9"/>
<path d="M32.5 36.4C34.2949 36.4 35.75 34.9449 35.75 33.15C35.75 31.3551 34.2949 29.9 32.5 29.9C30.7051 29.9 29.25 31.3551 29.25 33.15C29.25 34.9449 30.7051 36.4 32.5 36.4Z" fill="#C0D4C9"/>
<path d="M32.5 48.1C34.2949 48.1 35.75 46.6449 35.75 44.85C35.75 43.0551 34.2949 41.6 32.5 41.6C30.7051 41.6 29.25 43.0551 29.25 44.85C29.25 46.6449 30.7051 48.1 32.5 48.1Z" fill="#C0D4C9"/>
<path d="M20.8 48.1C22.595 48.1 24.05 46.6449 24.05 44.85C24.05 43.0551 22.595 41.6 20.8 41.6C19.0051 41.6 17.55 43.0551 17.55 44.85C17.55 46.6449 19.0051 48.1 20.8 48.1Z" fill="#C0D4C9"/>
<path d="M44.2 36.4C45.9949 36.4 47.45 34.9449 47.45 33.15C47.45 31.3551 45.9949 29.9 44.2 29.9C42.405 29.9 40.95 31.3551 40.95 33.15C40.95 34.9449 42.405 36.4 44.2 36.4Z" fill="#81B441"/>
<path d="M44.2 48.1C45.9949 48.1 47.45 46.645 47.45 44.85C47.45 43.0551 45.9949 41.6 44.2 41.6C42.405 41.6 40.95 43.0551 40.95 44.85C40.95 46.645 42.405 48.1 44.2 48.1Z" fill="#81B441"/>
</g>
<defs>
<clipPath id="clip0_89_2592">
<rect width="65" height="65" fill="white"/>
</clipPath>
</defs>
</svg>
