<svg width="65" height="73" viewBox="0 0 65 73" fill="none" xmlns="http://www.w3.org/2000/svg">
<path d="M54.4163 0.0600586H10.7791C8.01578 0.0600586 5.3656 1.30191 3.4116 3.51242C1.45761 5.72293 0.359863 8.72102 0.359863 11.8472L0.359863 61.2129C0.359863 64.339 1.45761 67.3371 3.4116 69.5476C5.3656 71.7581 8.01578 73 10.7791 73H54.4163C57.1797 73 59.8299 71.7581 61.7839 69.5476C63.7379 67.3371 64.8356 64.339 64.8356 61.2129V11.8472C64.8356 8.72102 63.7379 5.72293 61.7839 3.51242C59.8299 1.30191 57.1797 0.0600586 54.4163 0.0600586ZM58.3881 61.2129C58.3881 62.4045 57.9696 63.5474 57.2248 64.39C56.4799 65.2326 55.4697 65.706 54.4163 65.706H10.7791C9.72579 65.706 8.71557 65.2326 7.97073 64.39C7.22589 63.5474 6.80744 62.4045 6.80744 61.2129V11.8472C6.80744 10.6555 7.22589 9.51267 7.97073 8.67005C8.71557 7.82743 9.72579 7.35405 10.7791 7.35405H54.4163C55.4697 7.35405 56.4799 7.82743 57.2248 8.67005C57.9696 9.51267 58.3881 10.6555 58.3881 11.8472V61.2129Z" fill="#C0D4C9"/>
<path d="M48.7168 17.5654H16.4789C15.6239 17.5654 14.8039 17.9497 14.1994 18.6336C13.5948 19.3176 13.2551 20.2452 13.2551 21.2124C13.2551 22.1797 13.5948 23.1073 14.1994 23.7912C14.8039 24.4752 15.6239 24.8594 16.4789 24.8594H48.7168C49.5718 24.8594 50.3918 24.4752 50.9964 23.7912C51.6009 23.1073 51.9406 22.1797 51.9406 21.2124C51.9406 20.2452 51.6009 19.3176 50.9964 18.6336C50.3918 17.9497 49.5718 17.5654 48.7168 17.5654ZM51.9406 33.6122H16.4789C15.6239 33.6122 14.8039 33.9965 14.1994 34.6804C13.5948 35.3643 13.2551 36.292 13.2551 37.2592C13.2551 38.2265 13.5948 39.1541 14.1994 39.838C14.8039 40.522 15.6239 40.9062 16.4789 40.9062H51.9406C52.7956 40.9062 53.6156 40.522 54.2202 39.838C54.8247 39.1541 55.1644 38.2265 55.1644 37.2592C55.1644 36.292 54.8247 35.3643 54.2202 34.6804C53.6156 33.9965 52.7956 33.6122 51.9406 33.6122Z" fill="#C0D4C9"/>
<path d="M41.0192 50H15.9808C14.3345 50 13 51.567 13 53.5C13 55.433 14.3345 57 15.9808 57H41.0192C42.6655 57 44 55.433 44 53.5C44 51.567 42.6655 50 41.0192 50Z" fill="#81B441"/>
</svg>
