<svg width="69" height="69" viewBox="0 0 69 69" fill="none" xmlns="http://www.w3.org/2000/svg">
<path fill-rule="evenodd" clip-rule="evenodd" d="M34.5 69.001C53.5538 69.001 69 53.5548 69 34.501C69 15.4472 53.5538 0.000976562 34.5 0.000976562C15.4462 0.000976562 0 15.4472 0 34.501C0 53.5548 15.4462 69.001 34.5 69.001Z" fill="#9FF037" fill-opacity="0.097195"/>
<path d="M28.3125 36.0451L32.4375 40.0856L40.6875 32.0045M51 36.0451C51 45.0577 39.7388 51.5884 35.8229 53.5871C35.3995 53.8032 35.1876 53.9113 34.8939 53.9673C34.665 54.0109 34.335 54.0109 34.1061 53.9673C33.8124 53.9113 33.6005 53.8032 33.1771 53.5871C29.2612 51.5884 18 45.0577 18 36.0451V28.4036C18 26.7883 18 25.9807 18.2697 25.2865C18.5079 24.6732 18.8951 24.126 19.3977 23.6922C19.9666 23.2011 20.7386 22.9175 22.2826 22.3503L33.3413 18.2882C33.7701 18.1307 33.9844 18.052 34.2051 18.0208C34.4006 17.9931 34.5994 17.9931 34.7949 18.0208C35.0156 18.052 35.2299 18.1307 35.6587 18.2882L46.7174 22.3503C48.2614 22.9175 49.0334 23.2011 49.6022 23.6922C50.1049 24.126 50.492 24.6732 50.7302 25.2865C51 25.9807 51 26.7883 51 28.4036V36.0451Z" stroke="white" stroke-width="4" stroke-linecap="round" stroke-linejoin="round"/>
</svg>
