<svg width="69" height="69" viewBox="0 0 69 69" fill="none" xmlns="http://www.w3.org/2000/svg">
<path fill-rule="evenodd" clip-rule="evenodd" d="M34.5 69.001C53.5538 69.001 69 53.5548 69 34.501C69 15.4472 53.5538 0.000976562 34.5 0.000976562C15.4462 0.000976562 0 15.4472 0 34.501C0 53.5548 15.4462 69.001 34.5 69.001Z" fill="#9FF037" fill-opacity="0.097195"/>
<path d="M32.4118 37.001H23.5882C23.2635 37.001 23 36.7253 23 36.3856V21.6164C23 21.2767 23.2635 21.001 23.5882 21.001H32.4118C32.7365 21.001 33 21.2767 33 21.6164V36.3856C33 36.7253 32.7365 37.001 32.4118 37.001Z" fill="white"/>
<path d="M32.4118 49.001H23.5882C23.2635 49.001 23 48.713 23 48.3581V40.6438C23 40.289 23.2635 40.001 23.5882 40.001H32.4118C32.7365 40.001 33 40.289 33 40.6438V48.3581C33 48.713 32.7365 49.001 32.4118 49.001Z" fill="white"/>
<path d="M46.4118 30.001H37.5882C37.2635 30.001 37 29.713 37 29.3581V21.6438C37 21.289 37.2635 21.001 37.5882 21.001H46.4118C46.7365 21.001 47 21.289 47 21.6438V29.3581C47 29.713 46.7365 30.001 46.4118 30.001Z" fill="white"/>
<path d="M46.4118 49.001H37.5882C37.2635 49.001 37 48.7253 37 48.3856V33.6164C37 33.2767 37.2635 33.001 37.5882 33.001H46.4118C46.7365 33.001 47 33.2767 47 33.6164V48.3856C47 48.7253 46.7365 49.001 46.4118 49.001Z" fill="white"/>
</svg>
