<svg width="69" height="69" viewBox="0 0 69 69" fill="none" xmlns="http://www.w3.org/2000/svg">
<path fill-rule="evenodd" clip-rule="evenodd" d="M34.5 69.001C53.5538 69.001 69 53.5548 69 34.501C69 15.4472 53.5538 0.000976562 34.5 0.000976562C15.4462 0.000976562 0 15.4472 0 34.501C0 53.5548 15.4462 69.001 34.5 69.001Z" fill="#9FF037" fill-opacity="0.097195"/>
<path d="M34.23 40.5038C37.4162 40.5038 39.9991 37.921 39.9991 34.7348C39.9991 31.5485 37.4162 28.9657 34.23 28.9657C31.0437 28.9657 28.4609 31.5485 28.4609 34.7348C28.4609 37.921 31.0437 40.5038 34.23 40.5038Z" stroke="white" stroke-width="3" stroke-miterlimit="10" stroke-linecap="round" stroke-linejoin="round"/>
<path d="M15 36.4269V33.0424C15 31.0424 16.6346 29.3887 18.6537 29.3887C22.1344 29.3887 23.5574 26.9272 21.8075 23.9081C20.8075 22.1774 21.4037 19.9274 23.1536 18.9275L26.4804 17.0237C27.9996 16.1199 29.9611 16.6583 30.8649 18.1775L31.0764 18.5429C32.8072 21.562 35.6532 21.562 37.4032 18.5429L37.6147 18.1775C38.5185 16.6583 40.48 16.1199 41.9992 17.0237L45.326 18.9275C47.076 19.9274 47.6721 22.1774 46.6721 23.9081C44.9222 26.9272 46.3452 29.3887 49.8259 29.3887C51.8258 29.3887 53.4796 31.0232 53.4796 33.0424V36.4269C53.4796 38.4268 51.8451 40.0806 49.8259 40.0806C46.3452 40.0806 44.9222 42.5421 46.6721 45.5612C47.6721 47.3112 47.076 49.5419 45.326 50.5418L41.9992 52.4456C40.48 53.3494 38.5185 52.811 37.6147 51.2918L37.4032 50.9264C35.6725 47.9073 32.8264 47.9073 31.0764 50.9264L30.8649 51.2918C29.9611 52.811 27.9996 53.3494 26.4804 52.4456L23.1536 50.5418C21.4037 49.5419 20.8075 47.2919 21.8075 45.5612C23.5574 42.5421 22.1344 40.0806 18.6537 40.0806C16.6346 40.0806 15 38.4268 15 36.4269Z" stroke="white" stroke-width="3" stroke-miterlimit="10" stroke-linecap="round" stroke-linejoin="round"/>
</svg>
