<svg width="69" height="69" viewBox="0 0 69 69" fill="none" xmlns="http://www.w3.org/2000/svg">
<path fill-rule="evenodd" clip-rule="evenodd" d="M34.5 69.001C53.5538 69.001 69 53.5548 69 34.501C69 15.4472 53.5538 0.000976562 34.5 0.000976562C15.4462 0.000976562 0 15.4472 0 34.501C0 53.5548 15.4462 69.001 34.5 69.001Z" fill="#9FF037" fill-opacity="0.097195"/>
<path fill-rule="evenodd" clip-rule="evenodd" d="M34.345 41.7017C31.3944 41.7017 28.3967 39.9502 26.6472 37.6318C18.2537 37.6318 18 49.6225 18 49.6225H50.688C50.688 49.6225 51.3469 37.5786 41.9078 37.5786C40.1603 39.9256 37.2956 41.7017 34.345 41.7017Z" fill="white"/>
<path fill-rule="evenodd" clip-rule="evenodd" d="M41.3758 27.3271C41.3758 30.777 38.2267 37.374 34.3389 37.374C30.4573 37.374 27.3062 30.775 27.3062 27.3271C27.3062 23.8793 30.4553 21.0801 34.3389 21.0801C38.2267 21.0821 41.3758 23.8813 41.3758 27.3271Z" fill="white"/>
<path fill-rule="evenodd" clip-rule="evenodd" d="M44.5146 24.3499C44.5146 23.7033 43.6143 23.1816 42.497 23.1775V21.8454C42.497 21.6469 42.5727 17 34.3634 17C26.1582 17 26.2339 21.6469 26.2339 21.8454V23.2245C26.2134 23.2245 26.197 23.2184 26.1786 23.2184C25.0675 23.2184 24.1733 23.732 24.1733 24.3684V30.0036C24.1733 30.6359 25.0696 31.1515 26.1786 31.1515C27.2877 31.1515 28.188 30.6359 28.188 30.0036V24.3684C28.188 24.2804 28.1327 24.2006 28.1 24.1187V22.582C28.1 22.4408 27.5107 18.9337 34.3634 18.9337C41.2182 18.9337 40.5061 22.4408 40.5061 22.582V24.2006C40.4938 24.2517 40.4549 24.2967 40.4549 24.3499V30.1141C40.4549 30.7627 41.3614 31.2886 42.4848 31.2886C42.5093 31.2886 42.5277 31.2804 42.5523 31.2804V33.386H40.5388V35.3708H44.5351L44.5146 24.3499Z" fill="white"/>
</svg>
