<svg width="26" height="27" viewBox="0 0 26 27" fill="none" xmlns="http://www.w3.org/2000/svg">
<path d="M25.5006 15.5H24.0006V10.4999C23.9998 10.2242 23.7763 10.0007 23.5006 9.99996H21.0004V6.49993C21.0004 6.36745 20.9478 6.24017 20.854 6.14638C20.7602 6.05259 20.6332 6 20.5005 6H17.0006V0.499937C17.0006 0.36745 16.9477 0.240171 16.854 0.146384C16.7602 0.0528451 16.6331 0 16.5004 0H4.50021C4.22406 0 4.00002 0.223791 4.00002 0.499937V6H2.5002C1.83722 6.00074 1.20186 6.26448 0.733171 6.73316C0.264489 7.20183 0.00101626 7.83725 0 8.49991V24.5001C0.000248096 25.1631 0.26374 25.7987 0.732664 26.2676C1.20135 26.7363 1.83728 26.9997 2.5002 27H23.5C23.7757 26.9993 23.9992 26.7757 24 26.5001V21.4999H25.5001C25.6325 21.4999 25.7598 21.4473 25.8536 21.3535C25.9472 21.2598 26 21.1327 26 21V16.0001C26 15.8674 25.9472 15.7404 25.8536 15.6466C25.7598 15.5528 25.6325 15.5002 25.5001 15.5002L25.5006 15.5ZM20.0005 7.00038V10.0002H17.0006V7.00038H20.0005ZM5.00042 1.00039H16.0002V10.0005H15.0003V4.50047C15.0003 4.36799 14.9475 4.24071 14.8537 4.14692C14.7599 4.05313 14.6329 4.00054 14.5001 4.00054C14.1024 4.00004 13.7213 3.842 13.44 3.56064C13.1589 3.27953 13.0006 2.89817 13.0003 2.5005C13.0003 2.36802 12.9475 2.24074 12.8537 2.14695C12.7599 2.05316 12.6329 2.00057 12.5001 2.00057H8.50006C8.22391 2.00057 8.00011 2.22436 8.00011 2.5005C7.99962 2.89822 7.84157 3.27958 7.56046 3.56064C7.2791 3.842 6.89773 4.00004 6.5003 4.00054C6.22415 4.00054 6.00011 4.22433 6.00011 4.50047V10.0005H5.00023L5.00042 1.00039ZM12.9501 10.0005C12.7953 9.24184 12.2976 8.59799 11.6026 8.25659C10.9077 7.91544 10.0936 7.91544 9.39868 8.25659C8.70375 8.59799 8.20603 9.24184 8.05118 10.0005H7.00068V4.95029C7.48053 4.8513 7.92091 4.6141 8.26752 4.2675C8.61413 3.92089 8.85132 3.48048 8.95032 3.00068H12.0509C12.1497 3.48052 12.3871 3.92089 12.7337 4.2675C13.0801 4.6141 13.5208 4.8513 14.0006 4.95029V10.0005H12.9501ZM11.915 10.0005H9.08631C9.225 9.60803 9.5205 9.29094 9.90211 9.12472C10.284 8.95873 10.7174 8.95873 11.099 9.12472C11.4809 9.29095 11.7764 9.60803 11.9151 10.0005H11.915ZM2.5006 7.0007H4.00067V10.0005H2.5006C1.96467 10.0005 1.46947 9.71472 1.20149 9.25048C0.933528 8.78652 0.933528 8.21461 1.20149 7.75043C1.46946 7.28647 1.96471 7.0007 2.5006 7.0007ZM23.0006 26.0007H2.5006C2.10312 25.9995 1.72226 25.8409 1.44114 25.5601C1.16003 25.279 1.00173 24.8981 1.00049 24.5006V10.5006C1.00372 10.5028 1.11909 10.5777 1.20196 10.6283C1.59224 10.8697 2.04159 10.9985 2.50056 11.0005H23.0005V15.5004L21.5007 15.5007C20.4289 15.5007 19.4384 16.0723 18.9025 17.0005C18.3666 17.9286 18.3666 19.0724 18.9025 20.0006C19.4384 20.9287 20.4289 21.5004 21.5007 21.5004H23.0008L23.0006 26.0007ZM25.0006 20.5007H21.5007C20.7861 20.5007 20.1259 20.1196 19.7686 19.5005C19.4113 18.8818 19.4113 18.1196 19.7686 17.5008C20.1259 16.8818 20.7861 16.5007 21.5007 16.5007H25.0008L25.0006 20.5007ZM21.5007 17.5008C21.766 17.5008 22.0203 17.606 22.2079 17.7936C22.3954 17.9812 22.5006 18.2355 22.5006 18.5007C22.5006 18.766 22.3954 19.0202 22.2079 19.2078C22.0203 19.3954 21.766 19.5006 21.5007 19.5006C21.2355 19.5006 20.9812 19.3954 20.7936 19.2078C20.606 19.0203 20.5006 18.766 20.5006 18.5007C20.5006 18.2355 20.606 17.9812 20.7936 17.7936C20.9812 17.606 21.2355 17.5008 21.5007 17.5008Z" fill="white"/>
</svg>
