<svg width="35" height="23" viewBox="0 0 35 23" fill="none" xmlns="http://www.w3.org/2000/svg">
<path d="M33.3671 0.922119H1.63273C1.26759 0.922119 0.97168 1.21803 0.97168 1.58317V21.4169C0.97168 21.5924 1.04123 21.7604 1.16524 21.8844C1.28925 22.0084 1.45722 22.078 1.63273 22.078H33.3671C33.5426 22.078 33.7105 22.0084 33.8346 21.8844C33.9586 21.7604 34.0284 21.5924 34.0284 21.4169V1.58317C34.0284 1.40799 33.9586 1.23969 33.8346 1.11568C33.7105 0.991668 33.5426 0.922119 33.3671 0.922119ZM32.706 2.2442V4.22766H2.29443V2.2442H32.706ZM32.706 7.53329H2.29443V5.54983H32.706V7.53329ZM2.29443 20.7558V8.8552H32.706V20.7558H2.29443ZM28.7394 14.1446C28.2739 14.1456 27.8173 14.2699 27.4157 14.5052C26.8773 14.1909 26.2451 14.077 25.631 14.1833C25.0169 14.2896 24.4602 14.6095 24.0589 15.0865C23.6576 15.5635 23.4376 16.1668 23.4379 16.7898C23.4382 17.4131 23.6583 18.0164 24.0599 18.4931C24.4614 18.9698 25.0185 19.2893 25.6329 19.3949C26.247 19.5009 26.8789 19.3867 27.4169 19.0721C28.1282 19.4841 28.9906 19.5419 29.7501 19.2279C30.5099 18.9143 31.0804 18.2647 31.2933 17.4711C31.5062 16.6772 31.3376 15.8295 30.8373 15.1774C30.3367 14.5255 29.5611 14.1436 28.7393 14.1446L28.7394 14.1446ZM26.0949 18.1112C25.7154 18.1112 25.3538 17.9482 25.1029 17.6634C24.8516 17.3786 24.7352 16.9997 24.7827 16.6231C24.8303 16.2465 25.0376 15.9086 25.3516 15.6953C25.6655 15.4817 26.0563 15.4138 26.4237 15.5083C26.2932 15.7511 26.2003 16.0122 26.1485 16.2832C26.1147 16.4495 26.0967 16.6191 26.095 16.7891C26.1003 17.2359 26.2131 17.6752 26.4237 18.0695C26.3165 18.0971 26.2058 18.1112 26.0949 18.1112ZM28.7394 18.1112C28.3887 18.1112 28.0525 17.9718 27.8044 17.7241C27.5564 17.4761 27.417 17.1395 27.417 16.7891C27.417 16.4384 27.5564 16.1018 27.8044 15.8541C28.0525 15.6061 28.3887 15.4666 28.7394 15.4666C29.0902 15.4666 29.4264 15.6061 29.6744 15.8541C29.9224 16.1018 30.0616 16.4384 30.0616 16.7891C30.0609 17.1395 29.9215 17.4754 29.6738 17.7234C29.4258 17.9711 29.0898 18.1105 28.7394 18.1112ZM6.92197 16.1277H4.27747V14.8057H6.92197V16.1277ZM8.24405 14.8057H14.1942V16.1277H8.24405V14.8057ZM4.27747 17.4502H14.1943V18.7722H4.27747V17.4502Z" fill="white"/>
</svg>
