<svg width="26" height="29" viewBox="0 0 26 29" fill="none" xmlns="http://www.w3.org/2000/svg">
<path d="M25.5001 6.7322H9.00035V6.2144C9.00035 5.92839 8.77632 5.6966 8.50018 5.6966C8.22404 5.6966 8.00025 5.92839 8.00025 6.2144V22.7857C8.00025 23.0717 8.22404 23.3038 8.50018 23.3038C8.77632 23.3038 9.00035 23.0717 9.00035 22.7857V22.2679H25.5001C25.6326 22.2679 25.7598 22.2134 25.8536 22.1163C25.9472 22.0192 26 21.8873 26 21.7501V7.24972C26 7.1125 25.9472 6.98067 25.8536 6.88353C25.7598 6.78639 25.6326 6.73191 25.5001 6.73191V6.7322ZM25.0001 7.7678V9.32145H9.00029V7.76806L25.0001 7.7678ZM25.0001 11.9108H9.00029V10.3574H24.9995L25.0001 11.9108ZM9.00029 21.2325V12.9469H24.9995V21.2325H9.00029ZM21.9997 16.0537C21.6479 16.0547 21.3024 16.1521 20.9986 16.3361C20.5917 16.0902 20.1136 16.0008 19.6495 16.0843C19.185 16.1676 18.764 16.4181 18.4603 16.7915C18.1569 17.1651 17.9906 17.6377 17.9906 18.1259C17.9909 18.6139 18.1574 19.0865 18.461 19.4599C18.7647 19.8332 19.186 20.0836 19.6505 20.1665C20.1149 20.2495 20.5928 20.1601 20.9996 19.9137C21.5375 20.2367 22.1898 20.2819 22.7644 20.036C23.339 19.7903 23.7704 19.2815 23.9314 18.6596C24.0925 18.0378 23.9649 17.3735 23.5863 16.8629C23.208 16.3523 22.6215 16.0532 21.9997 16.0537ZM19.9998 19.161C19.6425 19.161 19.3123 18.9637 19.1337 18.6432C18.955 18.3225 18.955 17.9278 19.1337 17.6074C19.3123 17.2869 19.6425 17.0896 19.9998 17.0896C20.0837 17.0896 20.1673 17.1006 20.2484 17.1224C19.9353 17.7094 19.9169 18.4174 20.1993 19.0209C20.2159 19.0567 20.2298 19.0934 20.2484 19.1281C20.1673 19.1499 20.0837 19.161 19.9998 19.161ZM21.9997 19.161C21.7345 19.1605 21.4805 19.0513 21.2929 18.8573C21.1056 18.663 21.0001 18.3999 20.9996 18.1251C20.9979 17.8299 21.1202 17.5485 21.3351 17.3545C21.5172 17.1836 21.7541 17.0893 21.9997 17.0895C22.357 17.0895 22.687 17.2869 22.8656 17.6073C23.0443 17.9278 23.0443 18.3225 22.8656 18.6432C22.687 18.9636 22.357 19.161 21.9997 19.161ZM15.9999 24.8574H1.00035V4.14289H15.9999V5.69655H16.9997L17 2.58924C16.999 1.90284 16.7355 1.24472 16.2668 0.75936C15.7981 0.273996 15.1627 0.000789424 14.4998 0H2.50011C1.83715 0.000770938 1.20182 0.273937 0.733144 0.75936C0.264479 1.24478 0.00101623 1.90291 0 2.58924V26.4108C0.000992409 27.0974 0.264479 27.7555 0.733144 28.2409C1.20181 28.7263 1.83721 28.9992 2.50011 29H14.4998C15.1628 28.9992 15.7981 28.7263 16.2668 28.2409C16.7355 27.7555 16.9989 27.0974 17 26.4108V23.3037H15.9999L15.9999 24.8574ZM2.50056 1.03586H14.5003C14.898 1.03637 15.2794 1.20032 15.5604 1.49147C15.8418 1.78288 15.9998 2.17761 16.0003 2.58949V3.1073H1.00079V2.58949C1.00128 2.17757 1.15932 1.78283 1.44067 1.49147C1.72177 1.20032 2.10313 1.03637 2.50079 1.03586H2.50056ZM14.5003 27.9651H2.50056C2.10285 27.9646 1.72149 27.8009 1.44044 27.5095C1.1591 27.2183 1.00105 26.8233 1.00056 26.4114V25.8936H16.0001V26.4114C15.9996 26.8234 15.8415 27.2184 15.5602 27.5095C15.2791 27.8009 14.8977 27.9646 14.5001 27.9651H14.5003ZM13.0005 2.07197C13.0005 1.86254 13.1224 1.67366 13.3092 1.59349C13.496 1.51332 13.7109 1.55777 13.854 1.70579C13.9969 1.8538 14.0398 2.0766 13.9624 2.2701C13.885 2.4636 13.7027 2.58978 13.5005 2.58978C13.2243 2.58978 13.0005 2.35799 13.0005 2.07197ZM9.0006 26.9296C9.0006 27.139 8.87878 27.3279 8.69196 27.4081C8.50514 27.4883 8.29004 27.4441 8.14688 27.2958C8.00398 27.1478 7.9613 26.925 8.03871 26.7315C8.11612 26.538 8.29822 26.4118 8.50043 26.4118C8.63316 26.4118 8.76044 26.4663 8.85397 26.5634C8.94776 26.6606 9.0006 26.7924 9.0006 26.9296Z" fill="white"/>
</svg>
