<svg width="23" height="26" viewBox="0 0 23 26" fill="none" xmlns="http://www.w3.org/2000/svg">
<path d="M3.44983 8.47831H19.55C19.7024 8.47831 19.8487 8.41885 19.9566 8.31283C20.0645 8.20681 20.1249 8.06293 20.1249 7.91316V3.3914C20.1249 3.24135 20.0645 3.09775 19.9566 2.99173C19.8487 2.88571 19.7024 2.82626 19.55 2.82626H3.44983C3.13226 2.82626 2.8749 3.07924 2.8749 3.3914V7.91316C2.8749 8.06293 2.93539 8.20681 3.04324 8.31283C3.1511 8.41885 3.29747 8.47831 3.44983 8.47831ZM4.02476 3.95655H18.9752V7.34767H4.02549L4.02476 3.95655ZM22.4251 0H0.574931C0.257361 0 0 0.253261 0 0.565426V25.4349C0 25.5849 0.0604887 25.7285 0.168343 25.8345C0.276198 25.9405 0.42257 26 0.574931 26H22.4251C22.5777 26 22.7238 25.9405 22.8317 25.8345C22.9395 25.7285 23 25.5849 23 25.4349V0.565426C23 0.415378 22.9395 0.271778 22.8317 0.165757C22.7238 0.0597373 22.5777 0 22.4251 0ZM21.8501 24.8694H1.15043V1.13085H21.8501V24.8694ZM3.44983 13.0001H5.74981C5.90246 13.0001 6.04855 12.9407 6.1564 12.8347C6.26426 12.7286 6.32474 12.5848 6.32474 12.435V10.1742C6.32474 10.0241 6.26425 9.8805 6.1564 9.77448C6.04855 9.66846 5.90246 9.60872 5.74981 9.60872H3.44983C3.13226 9.60872 2.8749 9.86199 2.8749 10.1742V12.435C2.8749 12.5848 2.93539 12.7286 3.04324 12.8347C3.1511 12.9407 3.29747 13.0001 3.44983 13.0001ZM4.02476 10.7393H5.17461V11.8696H4.02505L4.02476 10.7393ZM10.3499 9.60902L8.04988 9.60874C7.73231 9.60874 7.47495 9.862 7.47495 10.1742V12.435C7.47495 12.5848 7.53544 12.7287 7.64329 12.8347C7.75115 12.9407 7.89752 13.0002 8.04988 13.0002H10.3499C10.5025 13.0002 10.6486 12.9407 10.7564 12.8347C10.8643 12.7287 10.9248 12.5848 10.9248 12.435V10.1742C10.9248 10.0241 10.8643 9.88052 10.7564 9.7745C10.6486 9.66847 10.5025 9.60874 10.3499 9.60874V9.60902ZM9.77493 11.8699L8.62479 11.8696V10.7393H9.77464L9.77493 11.8699ZM14.9499 9.60902L12.6499 9.60874C12.3323 9.60874 12.075 9.862 12.075 10.1742V12.435C12.075 12.5848 12.1355 12.7287 12.2433 12.8347C12.3512 12.9407 12.4975 13.0002 12.6499 13.0002H14.9499C15.1025 13.0002 15.2486 12.9407 15.3565 12.8347C15.4643 12.7287 15.5248 12.5848 15.5248 12.435V10.1742C15.5248 10.0241 15.4643 9.88052 15.3565 9.7745C15.2486 9.66847 15.1025 9.60874 14.9499 9.60874V9.60902ZM14.375 11.8699L13.2248 11.8696V10.7393H14.3747L14.375 11.8699ZM19.5499 9.60902L17.2499 9.60874C16.9324 9.60874 16.675 9.862 16.675 10.1742V12.435C16.675 12.5848 16.7355 12.7287 16.8434 12.8347C16.9512 12.9407 17.0976 13.0002 17.2499 13.0002H19.5499C19.7023 13.0002 19.8487 12.9407 19.9565 12.8347C20.0644 12.7287 20.1249 12.5848 20.1249 12.435V10.1742C20.1249 10.0241 20.0644 9.88052 19.9565 9.7745C19.8487 9.66847 19.7023 9.60874 19.5499 9.60874V9.60902ZM18.975 11.8699L17.8249 11.8696V10.7393H18.9747L18.975 11.8699ZM3.44967 17.5219H5.74965C5.9023 17.5219 6.04838 17.4622 6.15624 17.3564C6.2641 17.2504 6.32458 17.1065 6.32458 16.9568V14.6959C6.32458 14.5459 6.26409 14.4023 6.15624 14.2962C6.04839 14.1902 5.9023 14.1305 5.74965 14.1305H3.44967C3.1321 14.1305 2.87474 14.3837 2.87474 14.6959V16.9568C2.87474 17.1065 2.93523 17.2504 3.04308 17.3564C3.15094 17.4622 3.29731 17.5219 3.44967 17.5219ZM4.0246 15.2611H5.17445V16.3913H4.02489L4.0246 15.2611ZM10.3497 14.1308L8.04972 14.1305C7.73215 14.1305 7.47479 14.3838 7.47479 14.6959V16.9568C7.47479 17.1065 7.53527 17.2504 7.64313 17.3564C7.75098 17.4622 7.89736 17.5219 8.04972 17.5219H10.3497C10.5023 17.5219 10.6484 17.4622 10.7563 17.3564C10.8641 17.2504 10.9246 17.1065 10.9246 16.9568V14.6959C10.9246 14.5459 10.8641 14.4023 10.7563 14.2963C10.6484 14.1902 10.5023 14.1305 10.3497 14.1305V14.1308ZM9.77477 16.3916L8.62463 16.3913V15.2611H9.77448L9.77477 16.3916ZM14.9497 14.1308L12.6498 14.1305C12.3322 14.1305 12.0748 14.3838 12.0748 14.6959V16.9568C12.0748 17.1065 12.1353 17.2504 12.2432 17.3564C12.351 17.4622 12.4974 17.5219 12.6498 17.5219H14.9497C15.1024 17.5219 15.2485 17.4622 15.3563 17.3564C15.4642 17.2504 15.5247 17.1065 15.5247 16.9568V14.6959C15.5247 14.5459 15.4642 14.4023 15.3563 14.2963C15.2485 14.1902 15.1024 14.1305 14.9497 14.1305V14.1308ZM14.3748 16.3916L13.2247 16.3913V15.2611H14.3745L14.3748 16.3916ZM19.5498 14.1308L17.2498 14.1305C16.9322 14.1305 16.6749 14.3838 16.6749 14.6959V21.4782C16.6749 21.6283 16.7353 21.7719 16.8432 21.8779C16.9511 21.9839 17.0974 22.0437 17.2498 22.0437H19.5498C19.7021 22.0437 19.8485 21.9839 19.9564 21.8779C20.0642 21.7719 20.1247 21.6283 20.1247 21.4782V14.6959C20.1247 14.5459 20.0642 14.4023 19.9564 14.2963C19.8485 14.1902 19.7021 14.1305 19.5498 14.1305V14.1308ZM18.9748 20.9131H17.8247V15.2611H18.9745L18.9748 20.9131ZM3.44951 22.0437H5.74949C5.90214 22.0437 6.04822 21.9839 6.15608 21.8779C6.26394 21.7719 6.32442 21.6283 6.32442 21.4782V19.2174C6.32442 19.0676 6.26393 18.9237 6.15608 18.8177C6.04822 18.712 5.90214 18.6522 5.74949 18.6522H3.44951C3.13194 18.6522 2.87458 18.9052 2.87458 19.2174V21.4782C2.87458 21.6283 2.93507 21.7719 3.04292 21.8779C3.15078 21.9839 3.29715 22.0437 3.44951 22.0437ZM4.02444 19.7828H5.17429V20.9131H4.02473L4.02444 19.7828ZM10.3495 18.6525L8.04956 18.6523C7.73199 18.6523 7.47463 18.9052 7.47463 19.2174V21.4782C7.47463 21.6283 7.53511 21.7719 7.64297 21.8779C7.75082 21.9839 7.8972 22.0437 8.04956 22.0437H10.3495C10.5022 22.0437 10.6483 21.9839 10.7561 21.8779C10.864 21.7719 10.9245 21.6283 10.9245 21.4782V19.2174C10.9245 19.0676 10.864 18.9238 10.7561 18.8177C10.6483 18.712 10.5022 18.6523 10.3495 18.6523V18.6525ZM9.77461 20.9134L8.62447 20.9131V19.7828H9.77432L9.77461 20.9134ZM14.9496 18.6525L12.6496 18.6523C12.332 18.6523 12.0747 18.9052 12.0747 19.2174V21.4782C12.0747 21.6283 12.1351 21.7719 12.243 21.8779C12.3509 21.9839 12.4972 22.0437 12.6496 22.0437H14.9496C15.1022 22.0437 15.2483 21.9839 15.3562 21.8779C15.464 21.7719 15.5245 21.6283 15.5245 21.4782V19.2174C15.5245 19.0676 15.464 18.9238 15.3562 18.8177C15.2483 18.712 15.1022 18.6523 14.9496 18.6523V18.6525ZM14.3746 20.9134L13.2245 20.9131V19.7828H14.3744L14.3746 20.9134Z" fill="white"/>
</svg>
