<svg width="29" height="26" viewBox="0 0 29 26" fill="none" xmlns="http://www.w3.org/2000/svg">
<path fill-rule="evenodd" clip-rule="evenodd" d="M0 13.8132C0 13.2609 0.447715 12.8132 1 12.8132H23.6667C24.219 12.8132 24.6667 13.2609 24.6667 13.8132C24.6667 14.3655 24.219 14.8132 23.6667 14.8132H1C0.447715 14.8132 0 14.3655 0 13.8132Z" fill="white"/>
<path fill-rule="evenodd" clip-rule="evenodd" d="M5.05045 6.75883C3.54565 6.84876 2.92614 7.1614 2.5987 7.57454C2.22656 8.04407 2 8.91376 2 10.7067V20.0267C2 22.0174 2.27772 22.8627 2.7124 23.2916C3.15171 23.7251 4.01924 24.0001 6.04004 24.0001H18.6266C20.6133 24.0001 21.4855 23.7363 21.9314 23.3167C22.3597 22.9138 22.6463 22.1231 22.6667 20.2348V10.7067C22.6667 8.71602 22.3889 7.8708 21.9543 7.44186C21.515 7.00836 20.6474 6.7334 18.6266 6.7334H6.04004C5.69245 6.7334 5.36656 6.74568 5.05045 6.75883ZM4.95837 4.76093C5.2795 4.74755 5.64419 4.7334 6.04004 4.7334H18.6266C20.6325 4.7334 22.285 4.95843 23.359 6.01827C24.4377 7.08267 24.6667 8.72411 24.6667 10.7067V20.2506C24.6466 22.1585 24.3932 23.7467 23.3019 24.7734C22.2278 25.7839 20.6 26.0001 18.6266 26.0001H6.04004C4.03417 26.0001 2.38168 25.775 1.30764 24.7152C0.228966 23.6508 0 22.0094 0 20.0267V10.7067C0 8.8997 0.19344 7.38939 1.0313 6.33226C1.91324 5.21951 3.29201 4.85922 4.94103 4.76181L4.95837 4.76093Z" fill="white"/>
<path fill-rule="evenodd" clip-rule="evenodd" d="M6.04528 4.73333H18.6266C20.6325 4.73333 22.285 4.95837 23.359 6.0182C24.4377 7.0826 24.6667 8.72404 24.6667 10.7067V19.1195C25.4388 18.9723 25.8303 18.7254 26.068 18.4255C26.4401 17.956 26.6667 17.0863 26.6667 15.2933V5.97333C26.6667 3.98262 26.3889 3.1374 25.9543 2.70847C25.515 2.27497 24.6474 2 22.6266 2H10.04C8.0534 2 7.18119 2.2638 6.73523 2.68335C6.39506 3.00337 6.14426 3.56813 6.04528 4.73333ZM5.36481 1.22665C6.43887 0.216199 8.06668 0 10.04 0H22.6266C24.6325 0 26.285 0.225034 27.359 1.28487C28.4377 2.34927 28.6667 3.99071 28.6667 5.97333V15.2933C28.6667 17.1004 28.4732 18.6107 27.6354 19.6678C26.7534 20.7806 25.3747 21.1409 23.7256 21.2383C23.4507 21.2545 23.1812 21.1566 22.9807 20.9677C22.7803 20.7787 22.6667 20.5155 22.6667 20.24V10.7067C22.6667 8.71595 22.3889 7.87073 21.9543 7.4418C21.515 7.0083 20.6474 6.73333 18.6266 6.73333H6.04004C5.68922 6.73333 5.3605 6.74585 5.04163 6.75913C4.7676 6.77055 4.50091 6.66892 4.30398 6.47802C4.10705 6.28713 3.99717 6.02373 4.00006 5.74947C4.02014 3.84156 4.27343 2.2534 5.36481 1.22665Z" fill="white"/>
<path fill-rule="evenodd" clip-rule="evenodd" d="M4.3335 20.7466C4.3335 20.1943 4.78121 19.7466 5.3335 19.7466H7.62679C8.17908 19.7466 8.62679 20.1943 8.62679 20.7466C8.62679 21.2989 8.17908 21.7466 7.62679 21.7466H5.3335C4.78121 21.7466 4.3335 21.2989 4.3335 20.7466Z" fill="white"/>
<path fill-rule="evenodd" clip-rule="evenodd" d="M9.47998 20.7466C9.47998 20.1943 9.9277 19.7466 10.48 19.7466H15.0666C15.6189 19.7466 16.0666 20.1943 16.0666 20.7466C16.0666 21.2989 15.6189 21.7466 15.0666 21.7466H10.48C9.9277 21.7466 9.47998 21.2989 9.47998 20.7466Z" fill="white"/>
</svg>
