<svg width="28" height="28" viewBox="0 0 28 28" fill="none" xmlns="http://www.w3.org/2000/svg">
<path fill-rule="evenodd" clip-rule="evenodd" d="M12.7868 10.78C12.3819 10.78 11.9702 11.1468 11.9702 11.69C11.9702 12.1014 12.0584 12.2497 12.1027 12.3061C12.1552 12.3729 12.2602 12.4562 12.5411 12.5565L16.0553 13.7823C16.4664 13.9287 16.9362 14.1584 17.2871 14.6077C17.6458 15.0671 17.7918 15.64 17.7918 16.2984C17.7918 17.7307 16.6833 18.9584 15.2251 18.9584H13.0318C11.439 18.9584 10.2085 17.6196 10.2085 16.0417C10.2085 15.5584 10.6002 15.1667 11.0835 15.1667C11.5667 15.1667 11.9585 15.5584 11.9585 16.0417C11.9585 16.7272 12.478 17.2084 13.0318 17.2084H15.2251C15.6337 17.2084 16.0418 16.8494 16.0418 16.2984C16.0418 15.8951 15.9545 15.7446 15.9078 15.6848C15.8535 15.6152 15.7463 15.5302 15.4709 15.4319L11.9567 14.206C11.5511 14.0617 11.0791 13.8361 10.7264 13.3869C10.3652 12.927 10.2202 12.352 10.2202 11.69C10.2202 10.2732 11.325 9.03003 12.7868 9.03003H14.9802C16.573 9.03003 17.8035 10.3688 17.8035 11.9467C17.8035 12.4299 17.4118 12.8217 16.9285 12.8217C16.4453 12.8217 16.0535 12.4299 16.0535 11.9467C16.0535 11.2612 15.534 10.78 14.9802 10.78H12.7868Z" fill="white"/>
<path fill-rule="evenodd" clip-rule="evenodd" d="M14 7.875C14.4832 7.875 14.875 8.26675 14.875 8.75V19.25C14.875 19.7332 14.4832 20.125 14 20.125C13.5168 20.125 13.125 19.7332 13.125 19.25V8.75C13.125 8.26675 13.5168 7.875 14 7.875Z" fill="white"/>
<path fill-rule="evenodd" clip-rule="evenodd" d="M14.0002 3.20825C8.04341 3.20825 3.2085 8.04317 3.2085 13.9999C3.2085 19.9567 8.04341 24.7916 14.0002 24.7916C19.9569 24.7916 24.7918 19.9567 24.7918 13.9999C24.7918 13.5167 25.1836 13.1249 25.6668 13.1249C26.1501 13.1249 26.5418 13.5167 26.5418 13.9999C26.5418 20.9232 20.9234 26.5416 14.0002 26.5416C7.07691 26.5416 1.4585 20.9232 1.4585 13.9999C1.4585 7.07667 7.07691 1.45825 14.0002 1.45825C14.4834 1.45825 14.8752 1.85 14.8752 2.33325C14.8752 2.8165 14.4834 3.20825 14.0002 3.20825Z" fill="white"/>
<path fill-rule="evenodd" clip-rule="evenodd" d="M20.125 2.33325C20.125 1.85 20.5168 1.45825 21 1.45825H25.6667C26.1499 1.45825 26.5417 1.85 26.5417 2.33325V6.99992C26.5417 7.48317 26.1499 7.87492 25.6667 7.87492C25.1834 7.87492 24.7917 7.48317 24.7917 6.99992V3.20825H21C20.5168 3.20825 20.125 2.8165 20.125 2.33325Z" fill="white"/>
<path fill-rule="evenodd" clip-rule="evenodd" d="M26.2856 1.71453C26.6273 2.05624 26.6273 2.61026 26.2856 2.95197L20.4522 8.7853C20.1105 9.12701 19.5565 9.12701 19.2148 8.7853C18.8731 8.44359 18.8731 7.88958 19.2148 7.54787L25.0481 1.71453C25.3898 1.37282 25.9438 1.37282 26.2856 1.71453Z" fill="white"/>
</svg>
