<svg width="28" height="28" viewBox="0 0 28 28" fill="none" xmlns="http://www.w3.org/2000/svg">
<path fill-rule="evenodd" clip-rule="evenodd" d="M21.0199 3.20826C20.2042 3.21029 19.542 3.87339 19.542 4.67825V11.9583H22.657C23.3913 11.9583 23.9057 11.7296 24.2345 11.4008C24.5634 11.0719 24.792 10.5576 24.792 9.82325V6.99992C24.792 5.9612 24.3682 5.01251 23.6812 4.31486C23.0021 3.63691 22.0564 3.21889 21.0199 3.20826ZM17.792 4.67825C17.792 2.89435 19.2511 1.45825 21.0237 1.45825H21.0317L21.0317 1.45829C22.5358 1.47209 23.9209 2.07966 24.9207 3.07953L24.925 3.0838L24.925 3.08382C25.9167 4.0893 26.542 5.47305 26.542 6.99992V9.82325C26.542 10.9322 26.1873 11.9229 25.4719 12.6382C24.7566 13.3535 23.766 13.7083 22.657 13.7083H18.667C18.1837 13.7083 17.792 13.3165 17.792 12.8333V4.67825Z" fill="white"/>
<path fill-rule="evenodd" clip-rule="evenodd" d="M2.69208 3.12782C3.631 2.04056 5.07103 1.45825 7.00016 1.45825H21.0002C21.4834 1.45825 21.8752 1.85 21.8752 2.33325C21.8752 2.8165 21.4834 3.20825 21.0002 3.20825C20.2001 3.20825 19.5418 3.8665 19.5418 4.66659V24.4999C19.5418 26.182 17.6209 27.1324 16.2786 26.1358L16.2759 26.1337L14.2716 24.6335C14.171 24.5561 14.0102 24.5607 13.9072 24.6636L11.9472 26.6236C11.1505 27.4203 9.84979 27.4203 9.05308 26.6236L9.05122 26.6218L7.11645 24.6753C7.11627 24.6751 7.11663 24.6755 7.11645 24.6753C7.00068 24.56 6.83412 24.5544 6.72016 24.6399L4.72851 26.1307C4.72773 26.1313 4.72694 26.1319 4.72616 26.1325C3.37494 27.1533 1.4585 26.1839 1.4585 24.4999V6.99992C1.4585 5.59657 1.77388 4.1911 2.69208 3.12782ZM18.1439 3.20825H7.00016C5.42929 3.20825 4.53599 3.67011 4.01658 4.2716C3.47644 4.89707 3.2085 5.82493 3.2085 6.99992V24.4999C3.2085 24.7516 3.48311 24.8787 3.67176 24.7358L3.67579 24.7328L5.67016 23.2399C6.48935 22.6255 7.62968 22.7137 8.35389 23.4379L8.35575 23.4397L10.2905 25.3862C10.2903 25.386 10.2907 25.3864 10.2905 25.3862C10.4039 25.499 10.5967 25.4993 10.7098 25.3862L12.6698 23.4262C13.3819 22.7141 14.5243 22.6241 15.3334 23.2423L17.3218 24.7307C17.3221 24.7309 17.3224 24.7312 17.3228 24.7314C17.5204 24.877 17.7918 24.7308 17.7918 24.4999V4.66659C17.7918 4.1421 17.9189 3.64624 18.1439 3.20825Z" fill="white"/>
<path fill-rule="evenodd" clip-rule="evenodd" d="M6.125 10.5C6.125 10.0168 6.51675 9.625 7 9.625H14C14.4832 9.625 14.875 10.0168 14.875 10.5C14.875 10.9832 14.4832 11.375 14 11.375H7C6.51675 11.375 6.125 10.9832 6.125 10.5Z" fill="white"/>
<path fill-rule="evenodd" clip-rule="evenodd" d="M7 15.1665C7 14.6833 7.39175 14.2915 7.875 14.2915H13.125C13.6082 14.2915 14 14.6833 14 15.1665C14 15.6498 13.6082 16.0415 13.125 16.0415H7.875C7.39175 16.0415 7 15.6498 7 15.1665Z" fill="white"/>
</svg>
