<svg width="431" height="270" viewBox="0 0 431 270" fill="none" xmlns="http://www.w3.org/2000/svg">
<g filter="url(#filter0_d_89_1962)">
<path d="M354.86 140.29C359.534 146.343 359.534 154.212 354.86 160.265" stroke="#B6B6B6" stroke-width="1.5" stroke-linecap="round" stroke-linejoin="round"/>
<path d="M359.759 136.194C366.347 144.724 366.347 155.817 359.759 164.347" stroke="#B6B6B6" stroke-width="1.5" stroke-linecap="round" stroke-linejoin="round"/>
<path d="M349.722 142.937C353.157 147.371 353.157 153.156 349.722 157.59" stroke="#B6B6B6" stroke-width="1.5" stroke-linecap="round" stroke-linejoin="round"/>
<path d="M344.57 146.611C346.287 148.835 346.287 151.72 344.57 153.945" stroke="#B6B6B6" stroke-width="1.5" stroke-linecap="round" stroke-linejoin="round"/>
</g>
<g filter="url(#filter1_b_89_1962)">
<rect width="431" height="270" rx="22" fill="url(#paint0_linear_89_1962)"/>
<rect x="1" y="1" width="429" height="268" rx="21" stroke="url(#paint1_linear_89_1962)" stroke-opacity="0.63" stroke-width="2"/>
</g>
<g filter="url(#filter2_d_89_1962)">
<mask id="path-7-outside-1_89_1962" maskUnits="userSpaceOnUse" x="56" y="221" width="166" height="11" fill="black">
<rect fill="white" x="56" y="221" width="166" height="11"/>
<path d="M57.6707 222.322V226.953C57.6707 227.4 57.689 227.789 57.7257 228.119C57.7624 228.442 57.8394 228.713 57.9567 228.933C58.074 229.146 58.2427 229.303 58.4627 229.406C58.6827 229.509 58.9797 229.56 59.3537 229.56C59.7277 229.56 60.0247 229.509 60.2447 229.406C60.4647 229.303 60.6334 229.146 60.7507 228.933C60.868 228.713 60.945 228.442 60.9817 228.119C61.0184 227.789 61.0367 227.4 61.0367 226.953V222.322H61.6967V226.821C61.6967 227.408 61.6637 227.91 61.5977 228.328C61.539 228.739 61.4217 229.08 61.2457 229.351C61.077 229.622 60.8387 229.82 60.5307 229.945C60.23 230.07 59.8377 230.132 59.3537 230.132C58.8697 230.132 58.4737 230.07 58.1657 229.945C57.865 229.82 57.6267 229.622 57.4507 229.351C57.282 229.08 57.1647 228.739 57.0987 228.328C57.04 227.91 57.0107 227.408 57.0107 226.821V222.322H57.6707ZM72.5451 230.132C72.2005 230.132 71.8925 230.099 71.6211 230.033C71.3498 229.967 71.1041 229.879 70.8841 229.769C70.6641 229.652 70.4661 229.512 70.2901 229.351C70.1215 229.19 69.9675 229.014 69.8281 228.823L70.3121 228.427C70.5981 228.794 70.9135 229.076 71.2581 229.274C71.6028 229.465 72.0391 229.56 72.5671 229.56C73.1831 229.56 73.6561 229.424 73.9861 229.153C74.3161 228.874 74.4811 228.475 74.4811 227.954C74.4811 227.477 74.3418 227.125 74.0631 226.898C73.7918 226.671 73.4031 226.517 72.8971 226.436L72.0391 226.293C71.6578 226.227 71.3388 226.128 71.0821 225.996C70.8328 225.864 70.6311 225.71 70.4771 225.534C70.3231 225.351 70.2131 225.149 70.1471 224.929C70.0885 224.709 70.0591 224.482 70.0591 224.247C70.0591 223.558 70.2828 223.044 70.7301 222.707C71.1848 222.362 71.7935 222.19 72.5561 222.19C73.1795 222.19 73.6891 222.293 74.0851 222.498C74.4885 222.696 74.8111 222.971 75.0531 223.323L74.5911 223.73C74.3711 223.422 74.0998 223.184 73.7771 223.015C73.4618 222.846 73.0475 222.762 72.5341 222.762C71.9621 222.762 71.5148 222.887 71.1921 223.136C70.8768 223.378 70.7191 223.741 70.7191 224.225C70.7191 224.672 70.8511 225.013 71.1151 225.248C71.3791 225.475 71.7715 225.629 72.2921 225.71L73.1391 225.853C73.5278 225.919 73.8505 226.022 74.1071 226.161C74.3638 226.293 74.5691 226.451 74.7231 226.634C74.8771 226.817 74.9835 227.019 75.0421 227.239C75.1081 227.459 75.1411 227.69 75.1411 227.932C75.1411 228.636 74.9138 229.179 74.4591 229.56C74.0045 229.941 73.3665 230.132 72.5451 230.132ZM83.5035 230V222.322H88.1345V222.894H84.1635V225.82H87.9915V226.392H84.1635V229.428H88.1345V230H83.5035ZM97.3549 230H96.6949V222.322H99.4449C100.127 222.322 100.644 222.516 100.996 222.905C101.348 223.286 101.524 223.811 101.524 224.478C101.524 225.101 101.363 225.6 101.04 225.974C100.725 226.348 100.255 226.553 99.6319 226.59H99.4669L101.546 230H100.809L98.7849 226.623H97.3549V230ZM99.4339 226.062C99.8959 226.062 100.244 225.937 100.479 225.688C100.714 225.439 100.831 225.123 100.831 224.742V224.214C100.831 223.833 100.714 223.517 100.479 223.268C100.244 223.019 99.8959 222.894 99.4339 222.894H97.3549V226.062H99.4339ZM110.436 223.169H110.381V230H109.776V222.322H110.711L113.802 229.109H113.857V222.322H114.462V230H113.527L110.436 223.169ZM127.489 230L126.763 227.657H123.859L123.122 230H122.44L124.882 222.322H125.751L128.182 230H127.489ZM125.344 223.026H125.267L124.013 227.085H126.598L125.344 223.026ZM140.372 223.312H140.306L138.502 227.525L136.698 223.312H136.632V230H136.027V222.322H136.885L138.491 226.117H138.546L140.141 222.322H140.977V230H140.372V223.312ZM149.461 230V222.322H154.092V222.894H150.121V225.82H153.949V226.392H150.121V229.428H154.092V230H149.461ZM176.393 223.169H176.338V230H175.733V222.322H176.668L179.759 229.109H179.814V222.322H180.419V230H179.484L176.393 223.169ZM193.446 230L192.72 227.657H189.816L189.079 230H188.397L190.839 222.322H191.708L194.139 230H193.446ZM191.301 223.026H191.224L189.97 227.085H192.555L191.301 223.026ZM206.329 223.312H206.263L204.459 227.525L202.655 223.312H202.589V230H201.984V222.322H202.842L204.448 226.117H204.503L206.098 222.322H206.934V230H206.329V223.312ZM215.418 230V222.322H220.049V222.894H216.078V225.82H219.906V226.392H216.078V229.428H220.049V230H215.418Z"/>
</mask>
<path d="M57.6707 222.322V226.953C57.6707 227.4 57.689 227.789 57.7257 228.119C57.7624 228.442 57.8394 228.713 57.9567 228.933C58.074 229.146 58.2427 229.303 58.4627 229.406C58.6827 229.509 58.9797 229.56 59.3537 229.56C59.7277 229.56 60.0247 229.509 60.2447 229.406C60.4647 229.303 60.6334 229.146 60.7507 228.933C60.868 228.713 60.945 228.442 60.9817 228.119C61.0184 227.789 61.0367 227.4 61.0367 226.953V222.322H61.6967V226.821C61.6967 227.408 61.6637 227.91 61.5977 228.328C61.539 228.739 61.4217 229.08 61.2457 229.351C61.077 229.622 60.8387 229.82 60.5307 229.945C60.23 230.07 59.8377 230.132 59.3537 230.132C58.8697 230.132 58.4737 230.07 58.1657 229.945C57.865 229.82 57.6267 229.622 57.4507 229.351C57.282 229.08 57.1647 228.739 57.0987 228.328C57.04 227.91 57.0107 227.408 57.0107 226.821V222.322H57.6707ZM72.5451 230.132C72.2005 230.132 71.8925 230.099 71.6211 230.033C71.3498 229.967 71.1041 229.879 70.8841 229.769C70.6641 229.652 70.4661 229.512 70.2901 229.351C70.1215 229.19 69.9675 229.014 69.8281 228.823L70.3121 228.427C70.5981 228.794 70.9135 229.076 71.2581 229.274C71.6028 229.465 72.0391 229.56 72.5671 229.56C73.1831 229.56 73.6561 229.424 73.9861 229.153C74.3161 228.874 74.4811 228.475 74.4811 227.954C74.4811 227.477 74.3418 227.125 74.0631 226.898C73.7918 226.671 73.4031 226.517 72.8971 226.436L72.0391 226.293C71.6578 226.227 71.3388 226.128 71.0821 225.996C70.8328 225.864 70.6311 225.71 70.4771 225.534C70.3231 225.351 70.2131 225.149 70.1471 224.929C70.0885 224.709 70.0591 224.482 70.0591 224.247C70.0591 223.558 70.2828 223.044 70.7301 222.707C71.1848 222.362 71.7935 222.19 72.5561 222.19C73.1795 222.19 73.6891 222.293 74.0851 222.498C74.4885 222.696 74.8111 222.971 75.0531 223.323L74.5911 223.73C74.3711 223.422 74.0998 223.184 73.7771 223.015C73.4618 222.846 73.0475 222.762 72.5341 222.762C71.9621 222.762 71.5148 222.887 71.1921 223.136C70.8768 223.378 70.7191 223.741 70.7191 224.225C70.7191 224.672 70.8511 225.013 71.1151 225.248C71.3791 225.475 71.7715 225.629 72.2921 225.71L73.1391 225.853C73.5278 225.919 73.8505 226.022 74.1071 226.161C74.3638 226.293 74.5691 226.451 74.7231 226.634C74.8771 226.817 74.9835 227.019 75.0421 227.239C75.1081 227.459 75.1411 227.69 75.1411 227.932C75.1411 228.636 74.9138 229.179 74.4591 229.56C74.0045 229.941 73.3665 230.132 72.5451 230.132ZM83.5035 230V222.322H88.1345V222.894H84.1635V225.82H87.9915V226.392H84.1635V229.428H88.1345V230H83.5035ZM97.3549 230H96.6949V222.322H99.4449C100.127 222.322 100.644 222.516 100.996 222.905C101.348 223.286 101.524 223.811 101.524 224.478C101.524 225.101 101.363 225.6 101.04 225.974C100.725 226.348 100.255 226.553 99.6319 226.59H99.4669L101.546 230H100.809L98.7849 226.623H97.3549V230ZM99.4339 226.062C99.8959 226.062 100.244 225.937 100.479 225.688C100.714 225.439 100.831 225.123 100.831 224.742V224.214C100.831 223.833 100.714 223.517 100.479 223.268C100.244 223.019 99.8959 222.894 99.4339 222.894H97.3549V226.062H99.4339ZM110.436 223.169H110.381V230H109.776V222.322H110.711L113.802 229.109H113.857V222.322H114.462V230H113.527L110.436 223.169ZM127.489 230L126.763 227.657H123.859L123.122 230H122.44L124.882 222.322H125.751L128.182 230H127.489ZM125.344 223.026H125.267L124.013 227.085H126.598L125.344 223.026ZM140.372 223.312H140.306L138.502 227.525L136.698 223.312H136.632V230H136.027V222.322H136.885L138.491 226.117H138.546L140.141 222.322H140.977V230H140.372V223.312ZM149.461 230V222.322H154.092V222.894H150.121V225.82H153.949V226.392H150.121V229.428H154.092V230H149.461ZM176.393 223.169H176.338V230H175.733V222.322H176.668L179.759 229.109H179.814V222.322H180.419V230H179.484L176.393 223.169ZM193.446 230L192.72 227.657H189.816L189.079 230H188.397L190.839 222.322H191.708L194.139 230H193.446ZM191.301 223.026H191.224L189.97 227.085H192.555L191.301 223.026ZM206.329 223.312H206.263L204.459 227.525L202.655 223.312H202.589V230H201.984V222.322H202.842L204.448 226.117H204.503L206.098 222.322H206.934V230H206.329V223.312ZM215.418 230V222.322H220.049V222.894H216.078V225.82H219.906V226.392H216.078V229.428H220.049V230H215.418Z" fill="#C5C5C5" fill-opacity="0.8" shape-rendering="crispEdges"/>
<path d="M57.6707 222.322H58.6707V221.322H57.6707V222.322ZM57.7257 228.119L56.7318 228.229L56.7321 228.232L57.7257 228.119ZM57.9567 228.933L57.0744 229.404L57.0777 229.41L57.0811 229.416L57.9567 228.933ZM58.4627 229.406L58.0398 230.312L58.4627 229.406ZM60.2447 229.406L60.6676 230.312L60.2447 229.406ZM60.7507 228.933L61.6263 229.416L61.6297 229.41L61.6331 229.404L60.7507 228.933ZM60.9817 228.119L61.9753 228.232L61.9756 228.229L60.9817 228.119ZM61.0367 222.322V221.322H60.0367V222.322H61.0367ZM61.6967 222.322H62.6967V221.322H61.6967V222.322ZM61.5977 228.328L60.6099 228.172L60.6088 228.179L60.6078 228.187L61.5977 228.328ZM61.2457 229.351L60.4067 228.807L60.4015 228.815L60.3964 228.823L61.2457 229.351ZM60.5307 229.945L60.1555 229.018L60.1477 229.021L60.5307 229.945ZM58.1657 229.945L57.7827 230.869L57.7905 230.872L58.1657 229.945ZM57.4507 229.351L56.6014 229.879L56.6065 229.887L56.6118 229.895L57.4507 229.351ZM57.0987 228.328L56.1084 228.467L56.1098 228.477L56.1114 228.487L57.0987 228.328ZM57.0107 222.322V221.322H56.0107V222.322H57.0107ZM56.6707 222.322V226.953H58.6707V222.322H56.6707ZM56.6707 226.953C56.6707 227.425 56.69 227.853 56.7318 228.229L58.7196 228.009C58.6881 227.725 58.6707 227.375 58.6707 226.953H56.6707ZM56.7321 228.232C56.7789 228.644 56.8828 229.044 57.0744 229.404L58.8391 228.462C58.796 228.382 58.7458 228.24 58.7193 228.006L56.7321 228.232ZM57.0811 229.416C57.3007 229.814 57.6278 230.12 58.0398 230.312L58.8856 228.5C58.8576 228.487 58.8474 228.477 58.8323 228.45L57.0811 229.416ZM58.0398 230.312C58.4444 230.501 58.9048 230.56 59.3537 230.56V228.56C59.0546 228.56 58.921 228.516 58.8856 228.5L58.0398 230.312ZM59.3537 230.56C59.8026 230.56 60.263 230.501 60.6676 230.312L59.8218 228.5C59.7864 228.516 59.6528 228.56 59.3537 228.56V230.56ZM60.6676 230.312C61.0796 230.12 61.4067 229.814 61.6263 229.416L59.8751 228.45C59.86 228.477 59.8498 228.487 59.8218 228.5L60.6676 230.312ZM61.6331 229.404C61.8246 229.044 61.9285 228.644 61.9753 228.232L59.9881 228.006C59.9616 228.24 59.9115 228.382 59.8684 228.462L61.6331 229.404ZM61.9756 228.229C62.0175 227.853 62.0367 227.425 62.0367 226.953H60.0367C60.0367 227.375 60.0193 227.725 59.9878 228.009L61.9756 228.229ZM62.0367 226.953V222.322H60.0367V226.953H62.0367ZM61.0367 223.322H61.6967V221.322H61.0367V223.322ZM60.6967 222.322V226.821H62.6967V222.322H60.6967ZM60.6967 226.821C60.6967 227.374 60.6654 227.821 60.6099 228.172L62.5855 228.484C62.6621 227.999 62.6967 227.442 62.6967 226.821H60.6967ZM60.6078 228.187C60.564 228.493 60.4848 228.686 60.4067 228.807L62.0847 229.895C62.3586 229.473 62.5141 228.985 62.5877 228.469L60.6078 228.187ZM60.3964 228.823C60.3442 228.907 60.2756 228.969 60.1555 229.018L60.9059 230.872C61.4018 230.671 61.8098 230.338 62.095 229.879L60.3964 228.823ZM60.1477 229.021C60.0126 229.077 59.7644 229.132 59.3537 229.132V231.132C59.911 231.132 60.4475 231.062 60.9137 230.869L60.1477 229.021ZM59.3537 229.132C58.9446 229.132 58.6884 229.078 58.5409 229.018L57.7905 230.872C58.259 231.062 58.7948 231.132 59.3537 231.132V229.132ZM58.5487 229.021C58.4337 228.974 58.3548 228.907 58.2897 228.807L56.6118 229.895C56.8986 230.337 57.2964 230.667 57.7827 230.869L58.5487 229.021ZM58.3 228.823C58.2191 228.693 58.137 228.487 58.086 228.169L56.1114 228.487C56.1924 228.991 56.345 229.466 56.6014 229.879L58.3 228.823ZM58.089 228.189C58.0387 227.831 58.0107 227.378 58.0107 226.821H56.0107C56.0107 227.438 56.0413 227.989 56.1084 228.467L58.089 228.189ZM58.0107 226.821V222.322H56.0107V226.821H58.0107ZM57.0107 223.322H57.6707V221.322H57.0107V223.322ZM71.6211 230.033L71.3848 231.005L71.6211 230.033ZM70.8841 229.769L70.4135 230.651L70.4251 230.658L70.4369 230.663L70.8841 229.769ZM70.2901 229.351L69.5989 230.074L69.6066 230.081L69.6144 230.088L70.2901 229.351ZM69.8281 228.823L69.1949 228.049L68.4621 228.649L69.0207 229.413L69.8281 228.823ZM70.3121 228.427L71.1006 227.812L70.4711 227.005L69.6789 227.653L70.3121 228.427ZM71.2581 229.274L70.76 230.141L70.767 230.145L70.7741 230.149L71.2581 229.274ZM73.9861 229.153L74.6213 229.925L74.6313 229.917L73.9861 229.153ZM74.0631 226.898L73.4208 227.665L73.431 227.673L74.0631 226.898ZM72.8971 226.436L72.7327 227.422L72.7397 227.424L72.8971 226.436ZM72.0391 226.293L71.8686 227.278L71.8747 227.279L72.0391 226.293ZM71.0821 225.996L70.6142 226.88L70.6248 226.885L71.0821 225.996ZM70.4771 225.534L69.7114 226.177L69.7179 226.185L69.7245 226.193L70.4771 225.534ZM70.1471 224.929L69.1809 225.187L69.1849 225.202L69.1893 225.216L70.1471 224.929ZM70.7301 222.707L71.3322 223.505L71.3342 223.504L70.7301 222.707ZM74.0851 222.498L73.6248 223.386L73.6346 223.391L73.6444 223.396L74.0851 222.498ZM75.0531 223.323L75.7141 224.073L76.3795 223.487L75.8772 222.756L75.0531 223.323ZM74.5911 223.73L73.7774 224.311L74.4211 225.212L75.2522 224.48L74.5911 223.73ZM73.7771 223.015L73.3054 223.897L73.3139 223.901L73.7771 223.015ZM71.1921 223.136L71.8009 223.929L71.8036 223.927L71.1921 223.136ZM71.1151 225.248L70.4508 225.995L70.4566 226.001L70.4626 226.006L71.1151 225.248ZM72.2921 225.71L72.4586 224.724L72.4452 224.722L72.2921 225.71ZM73.1391 225.853L73.3065 224.867L73.3056 224.867L73.1391 225.853ZM74.1071 226.161L73.63 227.04L73.6398 227.045L73.6498 227.05L74.1071 226.161ZM74.7231 226.634L73.9574 227.277L74.7231 226.634ZM75.0421 227.239L74.0759 227.497L74.0799 227.512L74.0843 227.526L75.0421 227.239ZM74.4591 229.56L75.1017 230.326V230.326L74.4591 229.56ZM72.5451 229.132C72.2623 229.132 72.0359 229.105 71.8575 229.061L71.3848 231.005C71.749 231.093 72.1386 231.132 72.5451 231.132V229.132ZM71.8575 229.061C71.6495 229.011 71.4758 228.947 71.3313 228.875L70.4369 230.663C70.7324 230.811 71.0501 230.923 71.3848 231.005L71.8575 229.061ZM71.3547 228.887C71.2056 228.807 71.0771 228.716 70.9658 228.614L69.6144 230.088C69.8551 230.309 70.1226 230.496 70.4135 230.651L71.3547 228.887ZM70.9813 228.628C70.8557 228.508 70.7405 228.377 70.6355 228.233L69.0207 229.413C69.1944 229.651 69.3872 229.871 69.5989 230.074L70.9813 228.628ZM70.4614 229.597L70.9454 229.201L69.6789 227.653L69.1949 228.049L70.4614 229.597ZM69.5236 229.042C69.8759 229.494 70.2858 229.869 70.76 230.141L71.7562 228.407C71.5411 228.283 71.3204 228.094 71.1006 227.812L69.5236 229.042ZM70.7741 230.149C71.3088 230.445 71.9252 230.56 72.5671 230.56V228.56C72.153 228.56 71.8967 228.484 71.7422 228.399L70.7741 230.149ZM72.5671 230.56C73.3149 230.56 74.0479 230.397 74.6212 229.925L73.351 228.381C73.2644 228.452 73.0514 228.56 72.5671 228.56V230.56ZM74.6313 229.917C75.2326 229.409 75.4811 228.703 75.4811 227.954H73.4811C73.4811 228.247 73.3996 228.339 73.3409 228.389L74.6313 229.917ZM75.4811 227.954C75.4811 227.282 75.2772 226.598 74.6952 226.123L73.431 227.673C73.4335 227.675 73.4342 227.676 73.435 227.677C73.436 227.678 73.4406 227.685 73.4468 227.701C73.4598 227.733 73.4811 227.81 73.4811 227.954H75.4811ZM74.7053 226.131C74.2467 225.747 73.6639 225.546 73.0546 225.448L72.7397 227.424C73.1423 227.488 73.3368 227.594 73.4209 227.665L74.7053 226.131ZM73.0615 225.45L72.2035 225.307L71.8747 227.279L72.7327 227.422L73.0615 225.45ZM72.2097 225.308C71.8965 225.253 71.6812 225.18 71.5395 225.107L70.6248 226.885C70.9964 227.076 71.4191 227.201 71.8686 227.278L72.2097 225.308ZM71.55 225.112C71.3869 225.026 71.2887 224.943 71.2297 224.875L69.7245 226.193C69.9736 226.477 70.2787 226.702 70.6142 226.88L71.55 225.112ZM71.2428 224.891C71.1726 224.807 71.1301 224.726 71.1049 224.642L69.1893 225.216C69.2961 225.572 69.4736 225.894 69.7114 226.177L71.2428 224.891ZM71.1133 224.671C71.0778 224.538 71.0591 224.397 71.0591 224.247H69.0591C69.0591 224.566 69.0991 224.88 69.1809 225.187L71.1133 224.671ZM71.0591 224.247C71.0591 223.791 71.1934 223.61 71.3322 223.505L70.128 221.909C69.3721 222.479 69.0591 223.324 69.0591 224.247H71.0591ZM71.3342 223.504C71.5647 223.329 71.9386 223.19 72.5561 223.19V221.19C71.6483 221.19 70.8048 221.395 70.126 221.91L71.3342 223.504ZM72.5561 223.19C73.0793 223.19 73.4162 223.278 73.6248 223.386L74.5454 221.61C73.9621 221.308 73.2796 221.19 72.5561 221.19V223.19ZM73.6444 223.396C73.902 223.522 74.0894 223.686 74.2291 223.89L75.8772 222.756C75.5328 222.256 75.0749 221.87 74.5258 221.6L73.6444 223.396ZM74.3921 222.573L73.9301 222.98L75.2522 224.48L75.7141 224.073L74.3921 222.573ZM75.4049 223.149C75.0973 222.718 74.7078 222.373 74.2404 222.129L73.3139 223.901C73.4918 223.994 73.6449 224.126 73.7774 224.311L75.4049 223.149ZM74.2488 222.133C73.7389 221.861 73.145 221.762 72.5341 221.762V223.762C72.9499 223.762 73.1846 223.832 73.3055 223.897L74.2488 222.133ZM72.5341 221.762C71.828 221.762 71.1368 221.915 70.5807 222.345L71.8036 223.927C71.8928 223.858 72.0962 223.762 72.5341 223.762V221.762ZM70.5833 222.343C69.9671 222.816 69.7191 223.506 69.7191 224.225H71.7191C71.7191 223.976 71.7864 223.94 71.8009 223.929L70.5833 222.343ZM69.7191 224.225C69.7191 224.876 69.9191 225.523 70.4508 225.995L71.7795 224.501C71.7706 224.493 71.7614 224.483 71.7507 224.455C71.738 224.422 71.7191 224.352 71.7191 224.225H69.7191ZM70.4626 226.006C70.9232 226.402 71.5215 226.603 72.139 226.698L72.4452 224.722C72.0214 224.656 71.835 224.548 71.7676 224.49L70.4626 226.006ZM72.1256 226.696L72.9726 226.839L73.3056 224.867L72.4586 224.724L72.1256 226.696ZM72.9717 226.839C73.2874 226.892 73.4972 226.968 73.63 227.04L74.5842 225.282C74.2037 225.076 73.7682 224.946 73.3065 224.867L72.9717 226.839ZM73.6498 227.05C73.812 227.134 73.9045 227.214 73.9574 227.277L75.4888 225.991C75.2338 225.687 74.9155 225.452 74.5645 225.272L73.6498 227.05ZM73.9574 227.277C74.0221 227.354 74.0569 227.426 74.0759 227.497L76.0084 226.981C75.91 226.612 75.7321 226.28 75.4888 225.991L73.9574 227.277ZM74.0843 227.526C74.1209 227.648 74.1411 227.782 74.1411 227.932H76.1411C76.1411 227.598 76.0954 227.27 75.9999 226.952L74.0843 227.526ZM74.1411 227.932C74.1411 228.401 74.0018 228.638 73.8165 228.794L75.1017 230.326C75.8258 229.719 76.1411 228.871 76.1411 227.932H74.1411ZM73.8165 228.794C73.6004 228.975 73.2211 229.132 72.5451 229.132V231.132C73.5118 231.132 74.4085 230.908 75.1017 230.326L73.8165 228.794ZM83.5035 230H82.5035V231H83.5035V230ZM83.5035 222.322V221.322H82.5035V222.322H83.5035ZM88.1345 222.322H89.1345V221.322H88.1345V222.322ZM88.1345 222.894V223.894H89.1345V222.894H88.1345ZM84.1635 222.894V221.894H83.1635V222.894H84.1635ZM84.1635 225.82H83.1635V226.82H84.1635V225.82ZM87.9915 225.82H88.9915V224.82H87.9915V225.82ZM87.9915 226.392V227.392H88.9915V226.392H87.9915ZM84.1635 226.392V225.392H83.1635V226.392H84.1635ZM84.1635 229.428H83.1635V230.428H84.1635V229.428ZM88.1345 229.428H89.1345V228.428H88.1345V229.428ZM88.1345 230V231H89.1345V230H88.1345ZM84.5035 230V222.322H82.5035V230H84.5035ZM83.5035 223.322H88.1345V221.322H83.5035V223.322ZM87.1345 222.322V222.894H89.1345V222.322H87.1345ZM88.1345 221.894H84.1635V223.894H88.1345V221.894ZM83.1635 222.894V225.82H85.1635V222.894H83.1635ZM84.1635 226.82H87.9915V224.82H84.1635V226.82ZM86.9915 225.82V226.392H88.9915V225.82H86.9915ZM87.9915 225.392H84.1635V227.392H87.9915V225.392ZM83.1635 226.392V229.428H85.1635V226.392H83.1635ZM84.1635 230.428H88.1345V228.428H84.1635V230.428ZM87.1345 229.428V230H89.1345V229.428H87.1345ZM88.1345 229H83.5035V231H88.1345V229ZM97.3549 230V231H98.3549V230H97.3549ZM96.6949 230H95.6949V231H96.6949V230ZM96.6949 222.322V221.322H95.6949V222.322H96.6949ZM100.996 222.905L100.255 223.576L100.261 223.583L100.996 222.905ZM101.04 225.974L100.283 225.321L100.275 225.329L101.04 225.974ZM99.6319 226.59V227.59H99.6613L99.6907 227.588L99.6319 226.59ZM99.4669 226.59V225.59H97.6861L98.6131 227.111L99.4669 226.59ZM101.546 230V231H103.327L102.4 229.479L101.546 230ZM100.809 230L99.9512 230.514L100.242 231H100.809V230ZM98.7849 226.623L99.6427 226.109L99.3514 225.623H98.7849V226.623ZM97.3549 226.623V225.623H96.3549V226.623H97.3549ZM100.479 223.268L101.207 222.583V222.583L100.479 223.268ZM97.3549 222.894V221.894H96.3549V222.894H97.3549ZM97.3549 226.062H96.3549V227.062H97.3549V226.062ZM97.3549 229H96.6949V231H97.3549V229ZM97.6949 230V222.322H95.6949V230H97.6949ZM96.6949 223.322H99.4449V221.322H96.6949V223.322ZM99.4449 223.322C99.9344 223.322 100.145 223.455 100.255 223.576L101.737 222.234C101.143 221.577 100.319 221.322 99.4449 221.322V223.322ZM100.261 223.583C100.398 223.732 100.524 223.988 100.524 224.478H102.524C102.524 223.634 102.298 222.841 101.731 222.227L100.261 223.583ZM100.524 224.478C100.524 224.926 100.411 225.172 100.283 225.321L101.797 226.627C102.314 226.028 102.524 225.276 102.524 224.478H100.524ZM100.275 225.329C100.183 225.439 100.003 225.566 99.5732 225.592L99.6907 227.588C100.508 227.54 101.267 227.257 101.804 226.619L100.275 225.329ZM99.6319 225.59H99.4669V227.59H99.6319V225.59ZM98.6131 227.111L100.692 230.521L102.4 229.479L100.321 226.069L98.6131 227.111ZM101.546 229H100.809V231H101.546V229ZM101.667 229.486L99.6427 226.109L97.9272 227.137L99.9512 230.514L101.667 229.486ZM98.7849 225.623H97.3549V227.623H98.7849V225.623ZM96.3549 226.623V230H98.3549V226.623H96.3549ZM99.4339 227.062C100.072 227.062 100.724 226.886 101.207 226.373L99.7507 225.003C99.7503 225.003 99.7423 225.014 99.7047 225.027C99.6618 225.042 99.5775 225.062 99.4339 225.062V227.062ZM101.207 226.373C101.637 225.917 101.831 225.347 101.831 224.742H99.8309C99.8309 224.9 99.7904 224.96 99.7507 225.003L101.207 226.373ZM101.831 224.742V224.214H99.8309V224.742H101.831ZM101.831 224.214C101.831 223.609 101.637 223.039 101.207 222.583L99.7507 223.953C99.7904 223.996 99.8309 224.056 99.8309 224.214H101.831ZM101.207 222.583C100.724 222.07 100.072 221.894 99.4339 221.894V223.894C99.5775 223.894 99.6618 223.914 99.7047 223.929C99.7423 223.942 99.7503 223.953 99.7507 223.953L101.207 222.583ZM99.4339 221.894H97.3549V223.894H99.4339V221.894ZM96.3549 222.894V226.062H98.3549V222.894H96.3549ZM97.3549 227.062H99.4339V225.062H97.3549V227.062ZM110.436 223.169L111.347 222.757L111.081 222.169H110.436V223.169ZM110.381 223.169V222.169H109.381V223.169H110.381ZM110.381 230V231H111.381V230H110.381ZM109.776 230H108.776V231H109.776V230ZM109.776 222.322V221.322H108.776V222.322H109.776ZM110.711 222.322L111.621 221.908L111.355 221.322H110.711V222.322ZM113.802 229.109L112.892 229.523L113.159 230.109H113.802V229.109ZM113.857 229.109V230.109H114.857V229.109H113.857ZM113.857 222.322V221.322H112.857V222.322H113.857ZM114.462 222.322H115.462V221.322H114.462V222.322ZM114.462 230V231H115.462V230H114.462ZM113.527 230L112.616 230.412L112.882 231H113.527V230ZM110.436 222.169H110.381V224.169H110.436V222.169ZM109.381 223.169V230H111.381V223.169H109.381ZM110.381 229H109.776V231H110.381V229ZM110.776 230V222.322H108.776V230H110.776ZM109.776 223.322H110.711V221.322H109.776V223.322ZM109.801 222.736L112.892 229.523L114.712 228.695L111.621 221.908L109.801 222.736ZM113.802 230.109H113.857V228.109H113.802V230.109ZM114.857 229.109V222.322H112.857V229.109H114.857ZM113.857 223.322H114.462V221.322H113.857V223.322ZM113.462 222.322V230H115.462V222.322H113.462ZM114.462 229H113.527V231H114.462V229ZM114.438 229.588L111.347 222.757L109.525 223.581L112.616 230.412L114.438 229.588ZM127.489 230L126.534 230.296L126.752 231H127.489V230ZM126.763 227.657L127.718 227.361L127.5 226.657H126.763V227.657ZM123.859 227.657V226.657H123.125L122.905 227.357L123.859 227.657ZM123.122 230V231H123.855L124.076 230.3L123.122 230ZM122.44 230L121.487 229.697L121.072 231H122.44V230ZM124.882 222.322V221.322H124.15L123.929 222.019L124.882 222.322ZM125.751 222.322L126.704 222.02L126.483 221.322H125.751V222.322ZM128.182 230V231H129.547L129.135 229.698L128.182 230ZM125.344 223.026L126.299 222.731L126.081 222.026H125.344V223.026ZM125.267 223.026V222.026H124.529L124.311 222.731L125.267 223.026ZM124.013 227.085L123.057 226.79L122.657 228.085H124.013V227.085ZM126.598 227.085V228.085H127.953L127.553 226.79L126.598 227.085ZM128.444 229.704L127.718 227.361L125.808 227.953L126.534 230.296L128.444 229.704ZM126.763 226.657H123.859V228.657H126.763V226.657ZM122.905 227.357L122.168 229.7L124.076 230.3L124.813 227.957L122.905 227.357ZM123.122 229H122.44V231H123.122V229ZM123.393 230.303L125.835 222.625L123.929 222.019L121.487 229.697L123.393 230.303ZM124.882 223.322H125.751V221.322H124.882V223.322ZM124.797 222.624L127.228 230.302L129.135 229.698L126.704 222.02L124.797 222.624ZM128.182 229H127.489V231H128.182V229ZM125.344 222.026H125.267V224.026H125.344V222.026ZM124.311 222.731L123.057 226.79L124.968 227.38L126.222 223.321L124.311 222.731ZM124.013 228.085H126.598V226.085H124.013V228.085ZM127.553 226.79L126.299 222.731L124.388 223.321L125.642 227.38L127.553 226.79ZM140.372 223.312H141.372V222.312H140.372V223.312ZM140.306 223.312V222.312H139.647L139.387 222.918L140.306 223.312ZM138.502 227.525L137.583 227.919L138.502 230.065L139.421 227.919L138.502 227.525ZM136.698 223.312L137.617 222.918L137.358 222.312H136.698V223.312ZM136.632 223.312V222.312H135.632V223.312H136.632ZM136.632 230V231H137.632V230H136.632ZM136.027 230H135.027V231H136.027V230ZM136.027 222.322V221.322H135.027V222.322H136.027ZM136.885 222.322L137.806 221.932L137.548 221.322H136.885V222.322ZM138.491 226.117L137.57 226.507L137.828 227.117H138.491V226.117ZM138.546 226.117V227.117H139.211L139.468 226.504L138.546 226.117ZM140.141 222.322V221.322H139.477L139.219 221.935L140.141 222.322ZM140.977 222.322H141.977V221.322H140.977V222.322ZM140.977 230V231H141.977V230H140.977ZM140.372 230H139.372V231H140.372V230ZM140.372 222.312H140.306V224.312H140.372V222.312ZM139.387 222.918L137.583 227.131L139.421 227.919L141.225 223.706L139.387 222.918ZM139.421 227.131L137.617 222.918L135.779 223.706L137.583 227.919L139.421 227.131ZM136.698 222.312H136.632V224.312H136.698V222.312ZM135.632 223.312V230H137.632V223.312H135.632ZM136.632 229H136.027V231H136.632V229ZM137.027 230V222.322H135.027V230H137.027ZM136.027 223.322H136.885V221.322H136.027V223.322ZM135.964 222.712L137.57 226.507L139.412 225.727L137.806 221.932L135.964 222.712ZM138.491 227.117H138.546V225.117H138.491V227.117ZM139.468 226.504L141.063 222.709L139.219 221.935L137.624 225.73L139.468 226.504ZM140.141 223.322H140.977V221.322H140.141V223.322ZM139.977 222.322V230H141.977V222.322H139.977ZM140.977 229H140.372V231H140.977V229ZM141.372 230V223.312H139.372V230H141.372ZM149.461 230H148.461V231H149.461V230ZM149.461 222.322V221.322H148.461V222.322H149.461ZM154.092 222.322H155.092V221.322H154.092V222.322ZM154.092 222.894V223.894H155.092V222.894H154.092ZM150.121 222.894V221.894H149.121V222.894H150.121ZM150.121 225.82H149.121V226.82H150.121V225.82ZM153.949 225.82H154.949V224.82H153.949V225.82ZM153.949 226.392V227.392H154.949V226.392H153.949ZM150.121 226.392V225.392H149.121V226.392H150.121ZM150.121 229.428H149.121V230.428H150.121V229.428ZM154.092 229.428H155.092V228.428H154.092V229.428ZM154.092 230V231H155.092V230H154.092ZM150.461 230V222.322H148.461V230H150.461ZM149.461 223.322H154.092V221.322H149.461V223.322ZM153.092 222.322V222.894H155.092V222.322H153.092ZM154.092 221.894H150.121V223.894H154.092V221.894ZM149.121 222.894V225.82H151.121V222.894H149.121ZM150.121 226.82H153.949V224.82H150.121V226.82ZM152.949 225.82V226.392H154.949V225.82H152.949ZM153.949 225.392H150.121V227.392H153.949V225.392ZM149.121 226.392V229.428H151.121V226.392H149.121ZM150.121 230.428H154.092V228.428H150.121V230.428ZM153.092 229.428V230H155.092V229.428H153.092ZM154.092 229H149.461V231H154.092V229ZM176.393 223.169L177.304 222.757L177.038 222.169H176.393V223.169ZM176.338 223.169V222.169H175.338V223.169H176.338ZM176.338 230V231H177.338V230H176.338ZM175.733 230H174.733V231H175.733V230ZM175.733 222.322V221.322H174.733V222.322H175.733ZM176.668 222.322L177.578 221.908L177.312 221.322H176.668V222.322ZM179.759 229.109L178.849 229.523L179.116 230.109H179.759V229.109ZM179.814 229.109V230.109H180.814V229.109H179.814ZM179.814 222.322V221.322H178.814V222.322H179.814ZM180.419 222.322H181.419V221.322H180.419V222.322ZM180.419 230V231H181.419V230H180.419ZM179.484 230L178.573 230.412L178.839 231H179.484V230ZM176.393 222.169H176.338V224.169H176.393V222.169ZM175.338 223.169V230H177.338V223.169H175.338ZM176.338 229H175.733V231H176.338V229ZM176.733 230V222.322H174.733V230H176.733ZM175.733 223.322H176.668V221.322H175.733V223.322ZM175.758 222.736L178.849 229.523L180.669 228.695L177.578 221.908L175.758 222.736ZM179.759 230.109H179.814V228.109H179.759V230.109ZM180.814 229.109V222.322H178.814V229.109H180.814ZM179.814 223.322H180.419V221.322H179.814V223.322ZM179.419 222.322V230H181.419V222.322H179.419ZM180.419 229H179.484V231H180.419V229ZM180.395 229.588L177.304 222.757L175.482 223.581L178.573 230.412L180.395 229.588ZM193.446 230L192.491 230.296L192.709 231H193.446V230ZM192.72 227.657L193.675 227.361L193.457 226.657H192.72V227.657ZM189.816 227.657V226.657H189.082L188.862 227.357L189.816 227.657ZM189.079 230V231H189.813L190.033 230.3L189.079 230ZM188.397 230L187.444 229.697L187.029 231H188.397V230ZM190.839 222.322V221.322H190.107L189.886 222.019L190.839 222.322ZM191.708 222.322L192.661 222.02L192.44 221.322H191.708V222.322ZM194.139 230V231H195.504L195.092 229.698L194.139 230ZM191.301 223.026L192.256 222.731L192.038 222.026H191.301V223.026ZM191.224 223.026V222.026H190.486L190.268 222.731L191.224 223.026ZM189.97 227.085L189.014 226.79L188.614 228.085H189.97V227.085ZM192.555 227.085V228.085H193.91L193.51 226.79L192.555 227.085ZM194.401 229.704L193.675 227.361L191.765 227.953L192.491 230.296L194.401 229.704ZM192.72 226.657H189.816V228.657H192.72V226.657ZM188.862 227.357L188.125 229.7L190.033 230.3L190.77 227.957L188.862 227.357ZM189.079 229H188.397V231H189.079V229ZM189.35 230.303L191.792 222.625L189.886 222.019L187.444 229.697L189.35 230.303ZM190.839 223.322H191.708V221.322H190.839V223.322ZM190.754 222.624L193.185 230.302L195.092 229.698L192.661 222.02L190.754 222.624ZM194.139 229H193.446V231H194.139V229ZM191.301 222.026H191.224V224.026H191.301V222.026ZM190.268 222.731L189.014 226.79L190.925 227.38L192.179 223.321L190.268 222.731ZM189.97 228.085H192.555V226.085H189.97V228.085ZM193.51 226.79L192.256 222.731L190.345 223.321L191.599 227.38L193.51 226.79ZM206.329 223.312H207.329V222.312H206.329V223.312ZM206.263 223.312V222.312H205.604L205.344 222.918L206.263 223.312ZM204.459 227.525L203.54 227.919L204.459 230.065L205.378 227.919L204.459 227.525ZM202.655 223.312L203.574 222.918L203.315 222.312H202.655V223.312ZM202.589 223.312V222.312H201.589V223.312H202.589ZM202.589 230V231H203.589V230H202.589ZM201.984 230H200.984V231H201.984V230ZM201.984 222.322V221.322H200.984V222.322H201.984ZM202.842 222.322L203.763 221.932L203.505 221.322H202.842V222.322ZM204.448 226.117L203.527 226.507L203.786 227.117H204.448V226.117ZM204.503 226.117V227.117H205.168L205.425 226.504L204.503 226.117ZM206.098 222.322V221.322H205.434L205.176 221.935L206.098 222.322ZM206.934 222.322H207.934V221.322H206.934V222.322ZM206.934 230V231H207.934V230H206.934ZM206.329 230H205.329V231H206.329V230ZM206.329 222.312H206.263V224.312H206.329V222.312ZM205.344 222.918L203.54 227.131L205.378 227.919L207.182 223.706L205.344 222.918ZM205.378 227.131L203.574 222.918L201.736 223.706L203.54 227.919L205.378 227.131ZM202.655 222.312H202.589V224.312H202.655V222.312ZM201.589 223.312V230H203.589V223.312H201.589ZM202.589 229H201.984V231H202.589V229ZM202.984 230V222.322H200.984V230H202.984ZM201.984 223.322H202.842V221.322H201.984V223.322ZM201.921 222.712L203.527 226.507L205.369 225.727L203.763 221.932L201.921 222.712ZM204.448 227.117H204.503V225.117H204.448V227.117ZM205.425 226.504L207.02 222.709L205.176 221.935L203.581 225.73L205.425 226.504ZM206.098 223.322H206.934V221.322H206.098V223.322ZM205.934 222.322V230H207.934V222.322H205.934ZM206.934 229H206.329V231H206.934V229ZM207.329 230V223.312H205.329V230H207.329ZM215.418 230H214.418V231H215.418V230ZM215.418 222.322V221.322H214.418V222.322H215.418ZM220.049 222.322H221.049V221.322H220.049V222.322ZM220.049 222.894V223.894H221.049V222.894H220.049ZM216.078 222.894V221.894H215.078V222.894H216.078ZM216.078 225.82H215.078V226.82H216.078V225.82ZM219.906 225.82H220.906V224.82H219.906V225.82ZM219.906 226.392V227.392H220.906V226.392H219.906ZM216.078 226.392V225.392H215.078V226.392H216.078ZM216.078 229.428H215.078V230.428H216.078V229.428ZM220.049 229.428H221.049V228.428H220.049V229.428ZM220.049 230V231H221.049V230H220.049ZM216.418 230V222.322H214.418V230H216.418ZM215.418 223.322H220.049V221.322H215.418V223.322ZM219.049 222.322V222.894H221.049V222.322H219.049ZM220.049 221.894H216.078V223.894H220.049V221.894ZM215.078 222.894V225.82H217.078V222.894H215.078ZM216.078 226.82H219.906V224.82H216.078V226.82ZM218.906 225.82V226.392H220.906V225.82H218.906ZM219.906 225.392H216.078V227.392H219.906V225.392ZM215.078 226.392V229.428H217.078V226.392H215.078ZM216.078 230.428H220.049V228.428H216.078V230.428ZM219.049 229.428V230H221.049V229.428H219.049ZM220.049 229H215.418V231H220.049V229Z" fill="white" fill-opacity="0.03" mask="url(#path-7-outside-1_89_1962)"/>
</g>
<g filter="url(#filter3_d_89_1962)">
<path d="M62.0417 79H54.7137V77.624L58.3617 74.264C58.8844 73.784 59.3217 73.2773 59.6737 72.744C60.0257 72.2 60.2017 71.656 60.2017 71.112V70.92C60.2017 70.3013 60.0311 69.8 59.6897 69.416C59.3484 69.032 58.8311 68.84 58.1377 68.84C57.7964 68.84 57.4977 68.888 57.2417 68.984C56.9857 69.08 56.7617 69.2133 56.5697 69.384C56.3884 69.5547 56.2337 69.7573 56.1057 69.992C55.9884 70.216 55.8924 70.4613 55.8177 70.728L54.6177 70.264C54.7244 69.9333 54.8684 69.6133 55.0497 69.304C55.2417 68.984 55.4764 68.7013 55.7537 68.456C56.0417 68.2107 56.3831 68.0133 56.7777 67.864C57.1831 67.7147 57.6577 67.64 58.2017 67.64C58.7457 67.64 59.2311 67.72 59.6577 67.88C60.0844 68.04 60.4417 68.264 60.7297 68.552C61.0177 68.84 61.2364 69.1813 61.3857 69.576C61.5457 69.9707 61.6257 70.408 61.6257 70.888C61.6257 71.3253 61.5617 71.7307 61.4337 72.104C61.3164 72.4773 61.1511 72.8347 60.9377 73.176C60.7244 73.5067 60.4631 73.832 60.1537 74.152C59.8551 74.472 59.5297 74.792 59.1777 75.112L56.1697 77.816H62.0417V79ZM78.9368 79H71.6088V77.624L75.2568 74.264C75.7794 73.784 76.2168 73.2773 76.5688 72.744C76.9208 72.2 77.0968 71.656 77.0968 71.112V70.92C77.0968 70.3013 76.9261 69.8 76.5848 69.416C76.2434 69.032 75.7261 68.84 75.0328 68.84C74.6914 68.84 74.3928 68.888 74.1368 68.984C73.8808 69.08 73.6568 69.2133 73.4648 69.384C73.2834 69.5547 73.1288 69.7573 73.0008 69.992C72.8834 70.216 72.7874 70.4613 72.7128 70.728L71.5128 70.264C71.6194 69.9333 71.7634 69.6133 71.9448 69.304C72.1368 68.984 72.3714 68.7013 72.6488 68.456C72.9368 68.2107 73.2781 68.0133 73.6728 67.864C74.0781 67.7147 74.5528 67.64 75.0968 67.64C75.6408 67.64 76.1261 67.72 76.5528 67.88C76.9794 68.04 77.3368 68.264 77.6248 68.552C77.9128 68.84 78.1314 69.1813 78.2808 69.576C78.4408 69.9707 78.5208 70.408 78.5208 70.888C78.5208 71.3253 78.4568 71.7307 78.3288 72.104C78.2114 72.4773 78.0461 72.8347 77.8328 73.176C77.6194 73.5067 77.3581 73.832 77.0488 74.152C76.7501 74.472 76.4248 74.792 76.0728 75.112L73.0648 77.816H78.9368V79ZM88.7117 79V77.816H91.8317V68.824H91.7197L88.9037 71.448L88.1197 70.6L91.0797 67.832H93.1757V77.816H96.0557V79H88.7117ZM108.375 72.568C109.132 72.568 109.697 72.3973 110.071 72.056C110.455 71.704 110.647 71.256 110.647 70.712V70.6C110.647 70.0133 110.46 69.576 110.087 69.288C109.724 68.9893 109.244 68.84 108.647 68.84C108.071 68.84 107.601 68.968 107.239 69.224C106.876 69.4693 106.577 69.8053 106.343 70.232L105.351 69.464C105.489 69.24 105.655 69.0213 105.847 68.808C106.049 68.584 106.284 68.3867 106.551 68.216C106.817 68.0453 107.127 67.9067 107.479 67.8C107.831 67.6933 108.231 67.64 108.679 67.64C109.148 67.64 109.591 67.704 110.007 67.832C110.423 67.9493 110.78 68.1307 111.079 68.376C111.388 68.6107 111.628 68.904 111.799 69.256C111.98 69.608 112.071 70.008 112.071 70.456C112.071 70.8187 112.012 71.144 111.895 71.432C111.788 71.72 111.639 71.9707 111.447 72.184C111.255 72.3973 111.025 72.5787 110.759 72.728C110.503 72.8773 110.225 72.9893 109.927 73.064V73.128C110.225 73.192 110.513 73.2987 110.791 73.448C111.079 73.5867 111.329 73.7733 111.543 74.008C111.767 74.232 111.943 74.5093 112.071 74.84C112.209 75.16 112.279 75.528 112.279 75.944C112.279 76.424 112.188 76.8667 112.007 77.272C111.825 77.6667 111.569 78.008 111.239 78.296C110.908 78.5733 110.508 78.792 110.039 78.952C109.569 79.112 109.052 79.192 108.487 79.192C108.007 79.192 107.58 79.1387 107.207 79.032C106.833 78.9253 106.503 78.7813 106.215 78.6C105.927 78.4187 105.671 78.216 105.447 77.992C105.233 77.768 105.041 77.5333 104.871 77.288L105.879 76.52C106.017 76.744 106.167 76.9467 106.327 77.128C106.497 77.3093 106.684 77.464 106.887 77.592C107.089 77.72 107.319 77.8213 107.575 77.896C107.831 77.96 108.129 77.992 108.471 77.992C109.26 77.992 109.857 77.816 110.263 77.464C110.668 77.1013 110.871 76.5893 110.871 75.928V75.8C110.871 75.1387 110.668 74.632 110.263 74.28C109.857 73.9173 109.26 73.736 108.471 73.736H107.159V72.568H108.375ZM143.717 79V76.808H138.325V75.624L142.997 67.832H144.997V75.688H146.613V76.808H144.997V79H143.717ZM139.589 75.688H143.717V68.872H143.637L139.589 75.688ZM162.58 69.016H157.684L157.364 73.272H157.476C157.743 72.8987 158.042 72.6 158.372 72.376C158.714 72.152 159.178 72.04 159.764 72.04C160.244 72.04 160.687 72.12 161.092 72.28C161.498 72.44 161.85 72.6693 162.148 72.968C162.447 73.256 162.676 73.6133 162.836 74.04C163.007 74.4667 163.092 74.952 163.092 75.496C163.092 76.04 163.007 76.5413 162.836 77C162.666 77.448 162.415 77.8373 162.084 78.168C161.764 78.488 161.37 78.7387 160.9 78.92C160.442 79.1013 159.919 79.192 159.332 79.192C158.863 79.192 158.447 79.1387 158.084 79.032C157.732 78.9253 157.418 78.7813 157.14 78.6C156.863 78.4187 156.618 78.216 156.404 77.992C156.202 77.768 156.015 77.5333 155.844 77.288L156.852 76.52C156.991 76.744 157.135 76.9467 157.284 77.128C157.444 77.3093 157.615 77.464 157.796 77.592C157.988 77.72 158.207 77.8213 158.452 77.896C158.698 77.96 158.991 77.992 159.332 77.992C160.1 77.992 160.682 77.7893 161.076 77.384C161.471 76.9787 161.668 76.408 161.668 75.672V75.512C161.668 74.776 161.471 74.2053 161.076 73.8C160.682 73.3947 160.1 73.192 159.332 73.192C158.82 73.192 158.415 73.288 158.116 73.48C157.828 73.6613 157.567 73.88 157.332 74.136L156.196 73.976L156.596 67.832H162.58V69.016ZM176.324 79.192C175.748 79.192 175.225 79.096 174.756 78.904C174.297 78.7013 173.902 78.4187 173.572 78.056C173.252 77.6827 173.006 77.2293 172.836 76.696C172.665 76.1627 172.58 75.5653 172.58 74.904C172.58 74.072 172.702 73.2933 172.948 72.568C173.193 71.832 173.508 71.1653 173.892 70.568C174.286 69.96 174.718 69.4267 175.188 68.968C175.657 68.4987 176.116 68.12 176.564 67.832H178.292C177.694 68.2693 177.161 68.696 176.692 69.112C176.222 69.528 175.812 69.9653 175.46 70.424C175.108 70.872 174.809 71.3573 174.564 71.88C174.318 72.392 174.121 72.9733 173.972 73.624L174.052 73.656C174.318 73.1973 174.66 72.8187 175.076 72.52C175.502 72.2107 176.057 72.056 176.74 72.056C177.22 72.056 177.662 72.136 178.068 72.296C178.473 72.456 178.82 72.6853 179.108 72.984C179.396 73.2827 179.62 73.6453 179.78 74.072C179.95 74.4987 180.036 74.9733 180.036 75.496C180.036 76.04 179.945 76.5413 179.764 77C179.593 77.448 179.342 77.8373 179.012 78.168C178.692 78.488 178.302 78.7387 177.844 78.92C177.385 79.1013 176.878 79.192 176.324 79.192ZM176.308 78.024C177.044 78.024 177.614 77.8213 178.02 77.416C178.436 77.0107 178.644 76.4293 178.644 75.672V75.544C178.644 74.7867 178.436 74.2053 178.02 73.8C177.614 73.3947 177.044 73.192 176.308 73.192C175.572 73.192 174.996 73.3947 174.58 73.8C174.174 74.2053 173.972 74.7867 173.972 75.544V75.672C173.972 76.4293 174.174 77.0107 174.58 77.416C174.996 77.8213 175.572 78.024 176.308 78.024ZM192.578 72.568C193.336 72.568 193.901 72.3973 194.274 72.056C194.658 71.704 194.85 71.256 194.85 70.712V70.6C194.85 70.0133 194.664 69.576 194.29 69.288C193.928 68.9893 193.448 68.84 192.85 68.84C192.274 68.84 191.805 68.968 191.442 69.224C191.08 69.4693 190.781 69.8053 190.546 70.232L189.554 69.464C189.693 69.24 189.858 69.0213 190.05 68.808C190.253 68.584 190.488 68.3867 190.754 68.216C191.021 68.0453 191.33 67.9067 191.682 67.8C192.034 67.6933 192.434 67.64 192.882 67.64C193.352 67.64 193.794 67.704 194.21 67.832C194.626 67.9493 194.984 68.1307 195.282 68.376C195.592 68.6107 195.832 68.904 196.002 69.256C196.184 69.608 196.274 70.008 196.274 70.456C196.274 70.8187 196.216 71.144 196.098 71.432C195.992 71.72 195.842 71.9707 195.65 72.184C195.458 72.3973 195.229 72.5787 194.962 72.728C194.706 72.8773 194.429 72.9893 194.13 73.064V73.128C194.429 73.192 194.717 73.2987 194.994 73.448C195.282 73.5867 195.533 73.7733 195.746 74.008C195.97 74.232 196.146 74.5093 196.274 74.84C196.413 75.16 196.482 75.528 196.482 75.944C196.482 76.424 196.392 76.8667 196.21 77.272C196.029 77.6667 195.773 78.008 195.442 78.296C195.112 78.5733 194.712 78.792 194.242 78.952C193.773 79.112 193.256 79.192 192.69 79.192C192.21 79.192 191.784 79.1387 191.41 79.032C191.037 78.9253 190.706 78.7813 190.418 78.6C190.13 78.4187 189.874 78.216 189.65 77.992C189.437 77.768 189.245 77.5333 189.074 77.288L190.082 76.52C190.221 76.744 190.37 76.9467 190.53 77.128C190.701 77.3093 190.888 77.464 191.09 77.592C191.293 77.72 191.522 77.8213 191.778 77.896C192.034 77.96 192.333 77.992 192.674 77.992C193.464 77.992 194.061 77.816 194.466 77.464C194.872 77.1013 195.074 76.5893 195.074 75.928V75.8C195.074 75.1387 194.872 74.632 194.466 74.28C194.061 73.9173 193.464 73.736 192.674 73.736H191.362V72.568H192.578ZM226.737 79.192C226.161 79.192 225.639 79.096 225.169 78.904C224.711 78.7013 224.316 78.4187 223.985 78.056C223.665 77.6827 223.42 77.2293 223.249 76.696C223.079 76.1627 222.993 75.5653 222.993 74.904C222.993 74.072 223.116 73.2933 223.361 72.568C223.607 71.832 223.921 71.1653 224.305 70.568C224.7 69.96 225.132 69.4267 225.601 68.968C226.071 68.4987 226.529 68.12 226.977 67.832H228.705C228.108 68.2693 227.575 68.696 227.105 69.112C226.636 69.528 226.225 69.9653 225.873 70.424C225.521 70.872 225.223 71.3573 224.977 71.88C224.732 72.392 224.535 72.9733 224.385 73.624L224.465 73.656C224.732 73.1973 225.073 72.8187 225.489 72.52C225.916 72.2107 226.471 72.056 227.153 72.056C227.633 72.056 228.076 72.136 228.481 72.296C228.887 72.456 229.233 72.6853 229.521 72.984C229.809 73.2827 230.033 73.6453 230.193 74.072C230.364 74.4987 230.449 74.9733 230.449 75.496C230.449 76.04 230.359 76.5413 230.177 77C230.007 77.448 229.756 77.8373 229.425 78.168C229.105 78.488 228.716 78.7387 228.257 78.92C227.799 79.1013 227.292 79.192 226.737 79.192ZM226.721 78.024C227.457 78.024 228.028 77.8213 228.433 77.416C228.849 77.0107 229.057 76.4293 229.057 75.672V75.544C229.057 74.7867 228.849 74.2053 228.433 73.8C228.028 73.3947 227.457 73.192 226.721 73.192C225.985 73.192 225.409 73.3947 224.993 73.8C224.588 74.2053 224.385 74.7867 224.385 75.544V75.672C224.385 76.4293 224.588 77.0107 224.993 77.416C225.409 77.8213 225.985 78.024 226.721 78.024ZM241.616 79L245.888 68.984H241.12V71.064H239.92V67.832H247.248V69.016L243.056 79H241.616ZM260.511 79.192C259.871 79.192 259.311 79.112 258.831 78.952C258.351 78.7813 257.946 78.552 257.615 78.264C257.295 77.976 257.05 77.6347 256.879 77.24C256.719 76.8453 256.639 76.4187 256.639 75.96C256.639 75.192 256.847 74.584 257.263 74.136C257.679 73.688 258.223 73.3733 258.895 73.192V73.064C258.309 72.8613 257.839 72.536 257.487 72.088C257.146 71.6293 256.975 71.08 256.975 70.44C256.975 69.5867 257.285 68.9093 257.903 68.408C258.522 67.896 259.391 67.64 260.511 67.64C261.631 67.64 262.501 67.896 263.119 68.408C263.738 68.9093 264.047 69.5867 264.047 70.44C264.047 71.08 263.871 71.6293 263.519 72.088C263.178 72.536 262.714 72.8613 262.127 73.064V73.192C262.799 73.3733 263.343 73.688 263.759 74.136C264.175 74.584 264.383 75.192 264.383 75.96C264.383 76.4187 264.298 76.8453 264.127 77.24C263.967 77.6347 263.722 77.976 263.391 78.264C263.071 78.552 262.671 78.7813 262.191 78.952C261.711 79.112 261.151 79.192 260.511 79.192ZM260.511 78.024C261.29 78.024 261.893 77.8533 262.319 77.512C262.746 77.16 262.959 76.664 262.959 76.024V75.688C262.959 75.048 262.746 74.5573 262.319 74.216C261.893 73.864 261.29 73.688 260.511 73.688C259.733 73.688 259.13 73.864 258.703 74.216C258.277 74.5573 258.063 75.048 258.063 75.688V76.024C258.063 76.664 258.277 77.16 258.703 77.512C259.13 77.8533 259.733 78.024 260.511 78.024ZM260.511 72.568C261.215 72.568 261.749 72.4187 262.111 72.12C262.474 71.8213 262.655 71.384 262.655 70.808V70.568C262.655 69.992 262.474 69.5547 262.111 69.256C261.749 68.9573 261.215 68.808 260.511 68.808C259.807 68.808 259.274 68.9573 258.911 69.256C258.549 69.5547 258.367 69.992 258.367 70.568V70.808C258.367 71.384 258.549 71.8213 258.911 72.12C259.274 72.4187 259.807 72.568 260.511 72.568ZM281.134 71.928C281.134 72.76 281.012 73.544 280.766 74.28C280.521 75.0053 280.201 75.672 279.806 76.28C279.422 76.8773 278.996 77.4107 278.526 77.88C278.057 78.3387 277.598 78.712 277.15 79H275.422C276.02 78.5627 276.553 78.136 277.022 77.72C277.492 77.304 277.902 76.872 278.254 76.424C278.606 75.9653 278.905 75.48 279.15 74.968C279.396 74.4453 279.593 73.8587 279.742 73.208L279.662 73.176C279.396 73.6347 279.049 74.0187 278.622 74.328C278.206 74.6267 277.657 74.776 276.974 74.776C276.494 74.776 276.052 74.696 275.646 74.536C275.241 74.376 274.894 74.1467 274.606 73.848C274.318 73.5493 274.089 73.192 273.918 72.776C273.758 72.3493 273.678 71.8693 273.678 71.336C273.678 70.792 273.764 70.296 273.934 69.848C274.116 69.3893 274.366 69 274.686 68.68C275.017 68.3493 275.406 68.0933 275.854 67.912C276.313 67.7307 276.825 67.64 277.39 67.64C277.966 67.64 278.484 67.7413 278.942 67.944C279.412 68.136 279.806 68.4187 280.126 68.792C280.457 69.1547 280.708 69.6027 280.878 70.136C281.049 70.6693 281.134 71.2667 281.134 71.928ZM277.406 73.64C278.142 73.64 278.713 73.4373 279.118 73.032C279.534 72.6267 279.742 72.0453 279.742 71.288V71.16C279.742 70.4027 279.534 69.8213 279.118 69.416C278.713 69.0107 278.142 68.808 277.406 68.808C276.67 68.808 276.094 69.0107 275.678 69.416C275.273 69.8213 275.07 70.4027 275.07 71.16V71.288C275.07 72.0453 275.273 72.6267 275.678 73.032C276.094 73.4373 276.67 73.64 277.406 73.64ZM322.024 79.192C321.448 79.192 320.925 79.096 320.456 78.904C319.997 78.7013 319.602 78.4187 319.272 78.056C318.952 77.6827 318.706 77.2293 318.536 76.696C318.365 76.1627 318.28 75.5653 318.28 74.904C318.28 74.072 318.402 73.2933 318.648 72.568C318.893 71.832 319.208 71.1653 319.592 70.568C319.986 69.96 320.418 69.4267 320.888 68.968C321.357 68.4987 321.816 68.12 322.264 67.832H323.992C323.394 68.2693 322.861 68.696 322.392 69.112C321.922 69.528 321.512 69.9653 321.16 70.424C320.808 70.872 320.509 71.3573 320.264 71.88C320.018 72.392 319.821 72.9733 319.672 73.624L319.752 73.656C320.018 73.1973 320.36 72.8187 320.776 72.52C321.202 72.2107 321.757 72.056 322.44 72.056C322.92 72.056 323.362 72.136 323.768 72.296C324.173 72.456 324.52 72.6853 324.808 72.984C325.096 73.2827 325.32 73.6453 325.48 74.072C325.65 74.4987 325.736 74.9733 325.736 75.496C325.736 76.04 325.645 76.5413 325.464 77C325.293 77.448 325.042 77.8373 324.712 78.168C324.392 78.488 324.002 78.7387 323.544 78.92C323.085 79.1013 322.578 79.192 322.024 79.192ZM322.008 78.024C322.744 78.024 323.314 77.8213 323.72 77.416C324.136 77.0107 324.344 76.4293 324.344 75.672V75.544C324.344 74.7867 324.136 74.2053 323.72 73.8C323.314 73.3947 322.744 73.192 322.008 73.192C321.272 73.192 320.696 73.3947 320.28 73.8C319.874 74.2053 319.672 74.7867 319.672 75.544V75.672C319.672 76.4293 319.874 77.0107 320.28 77.416C320.696 77.8213 321.272 78.024 322.008 78.024ZM340.102 79V76.808H334.71V75.624L339.382 67.832H341.382V75.688H342.998V76.808H341.382V79H340.102ZM335.974 75.688H340.102V68.872H340.022L335.974 75.688ZM358.965 69.016H354.069L353.749 73.272H353.861C354.128 72.8987 354.427 72.6 354.757 72.376C355.099 72.152 355.563 72.04 356.149 72.04C356.629 72.04 357.072 72.12 357.477 72.28C357.883 72.44 358.235 72.6693 358.533 72.968C358.832 73.256 359.061 73.6133 359.221 74.04C359.392 74.4667 359.477 74.952 359.477 75.496C359.477 76.04 359.392 76.5413 359.221 77C359.051 77.448 358.8 77.8373 358.469 78.168C358.149 78.488 357.755 78.7387 357.285 78.92C356.827 79.1013 356.304 79.192 355.717 79.192C355.248 79.192 354.832 79.1387 354.469 79.032C354.117 78.9253 353.803 78.7813 353.525 78.6C353.248 78.4187 353.003 78.216 352.789 77.992C352.587 77.768 352.4 77.5333 352.229 77.288L353.237 76.52C353.376 76.744 353.52 76.9467 353.669 77.128C353.829 77.3093 354 77.464 354.181 77.592C354.373 77.72 354.592 77.8213 354.837 77.896C355.083 77.96 355.376 77.992 355.717 77.992C356.485 77.992 357.067 77.7893 357.461 77.384C357.856 76.9787 358.053 76.408 358.053 75.672V75.512C358.053 74.776 357.856 74.2053 357.461 73.8C357.067 73.3947 356.485 73.192 355.717 73.192C355.205 73.192 354.8 73.288 354.501 73.48C354.213 73.6613 353.952 73.88 353.717 74.136L352.581 73.976L352.981 67.832H358.965V69.016ZM370.693 79L374.965 68.984H370.197V71.064H368.997V67.832H376.325V69.016L372.133 79H370.693Z" fill="#D5D5D5" fill-opacity="0.8" shape-rendering="crispEdges"/>
</g>
<path d="M58.4315 33.12C57.3915 33.12 56.5835 32.832 56.0075 32.256C55.4315 31.68 55.1235 30.9 55.0835 29.916C55.0755 29.676 55.0715 29.3 55.0715 28.788C55.0715 28.268 55.0755 27.892 55.0835 27.66C55.1155 26.684 55.4195 25.912 55.9955 25.344C56.5795 24.768 57.3915 24.48 58.4315 24.48C59.1355 24.48 59.7315 24.608 60.2195 24.864C60.7075 25.12 61.0755 25.428 61.3235 25.788C61.5715 26.14 61.7035 26.468 61.7195 26.772V26.796C61.7195 26.86 61.6915 26.916 61.6355 26.964C61.5875 27.004 61.5315 27.024 61.4675 27.024H60.7955C60.7235 27.024 60.6675 27.008 60.6275 26.976C60.5955 26.944 60.5635 26.884 60.5315 26.796C60.4035 26.42 60.1675 26.104 59.8235 25.848C59.4795 25.592 59.0155 25.464 58.4315 25.464C57.7595 25.464 57.2315 25.648 56.8475 26.016C56.4635 26.384 56.2595 26.952 56.2355 27.72C56.2275 27.952 56.2235 28.308 56.2235 28.788C56.2235 29.26 56.2275 29.616 56.2355 29.856C56.2595 30.632 56.4635 31.204 56.8475 31.572C57.2315 31.94 57.7595 32.124 58.4315 32.124C59.1115 32.124 59.6555 31.94 60.0635 31.572C60.4715 31.196 60.6755 30.636 60.6755 29.892V29.376H58.8395C58.7595 29.376 58.6915 29.348 58.6355 29.292C58.5875 29.236 58.5635 29.168 58.5635 29.088V28.728C58.5635 28.648 58.5875 28.58 58.6355 28.524C58.6915 28.468 58.7595 28.44 58.8395 28.44H61.5275C61.6155 28.44 61.6835 28.468 61.7315 28.524C61.7875 28.572 61.8155 28.64 61.8155 28.728V29.868C61.8155 30.516 61.6795 31.088 61.4075 31.584C61.1435 32.072 60.7555 32.452 60.2435 32.724C59.7315 32.988 59.1275 33.12 58.4315 33.12ZM68.004 33C67.924 33 67.86 32.976 67.812 32.928C67.764 32.872 67.74 32.804 67.74 32.724V24.888C67.74 24.8 67.764 24.732 67.812 24.684C67.86 24.628 67.924 24.6 68.004 24.6H70.932C71.844 24.6 72.556 24.816 73.068 25.248C73.588 25.672 73.848 26.292 73.848 27.108C73.848 27.716 73.696 28.216 73.392 28.608C73.088 29 72.664 29.272 72.12 29.424L73.968 32.628C73.992 32.676 74.004 32.72 74.004 32.76C74.004 32.824 73.98 32.88 73.932 32.928C73.884 32.976 73.828 33 73.764 33H73.236C73.116 33 73.02 32.972 72.948 32.916C72.884 32.86 72.824 32.78 72.768 32.676L71.004 29.604H68.868V32.724C68.868 32.804 68.84 32.872 68.784 32.928C68.728 32.976 68.66 33 68.58 33H68.004ZM70.884 28.62C72.092 28.62 72.696 28.112 72.696 27.096C72.696 26.08 72.092 25.572 70.884 25.572H68.868V28.62H70.884ZM82.7798 33.12C81.7398 33.12 80.9358 32.848 80.3678 32.304C79.7998 31.752 79.4998 30.924 79.4678 29.82C79.4598 29.58 79.4558 29.24 79.4558 28.8C79.4558 28.36 79.4598 28.024 79.4678 27.792C79.4998 26.704 79.8078 25.88 80.3918 25.32C80.9838 24.76 81.7798 24.48 82.7798 24.48C83.7798 24.48 84.5718 24.76 85.1558 25.32C85.7398 25.88 86.0478 26.704 86.0798 27.792C86.0958 28.256 86.1038 28.592 86.1038 28.8C86.1038 29 86.0958 29.34 86.0798 29.82C86.0478 30.924 85.7478 31.752 85.1798 32.304C84.6198 32.848 83.8198 33.12 82.7798 33.12ZM82.7798 32.124C83.4198 32.124 83.9318 31.932 84.3158 31.548C84.6998 31.156 84.9078 30.56 84.9398 29.76C84.9558 29.28 84.9638 28.96 84.9638 28.8C84.9638 28.624 84.9558 28.304 84.9398 27.84C84.9078 27.04 84.6998 26.444 84.3158 26.052C83.9318 25.66 83.4198 25.464 82.7798 25.464C82.1398 25.464 81.6238 25.66 81.2318 26.052C80.8478 26.444 80.6438 27.04 80.6198 27.84C80.6118 28.072 80.6078 28.392 80.6078 28.8C80.6078 29.2 80.6118 29.52 80.6198 29.76C80.6438 30.56 80.8478 31.156 81.2318 31.548C81.6158 31.932 82.1318 32.124 82.7798 32.124ZM92.3535 33C92.2735 33 92.2055 32.976 92.1495 32.928C92.1015 32.872 92.0775 32.804 92.0775 32.724V24.888C92.0775 24.8 92.1015 24.732 92.1495 24.684C92.1975 24.628 92.2655 24.6 92.3535 24.6H92.9175C93.0615 24.6 93.1615 24.66 93.2175 24.78L95.7735 29.688L98.3535 24.78C98.4175 24.66 98.5135 24.6 98.6415 24.6H99.2055C99.2935 24.6 99.3615 24.628 99.4095 24.684C99.4575 24.732 99.4815 24.8 99.4815 24.888V32.724C99.4815 32.804 99.4535 32.872 99.3975 32.928C99.3495 32.976 99.2855 33 99.2055 33H98.6535C98.5735 33 98.5095 32.976 98.4615 32.928C98.4135 32.872 98.3895 32.804 98.3895 32.724V26.76L96.3375 30.732C96.2575 30.9 96.1295 30.984 95.9535 30.984H95.5935C95.4255 30.984 95.2975 30.9 95.2095 30.732L93.1695 26.76V32.724C93.1695 32.804 93.1415 32.872 93.0855 32.928C93.0375 32.976 92.9735 33 92.8935 33H92.3535ZM106.057 33C105.977 33 105.913 32.976 105.865 32.928C105.817 32.872 105.793 32.804 105.793 32.724V24.888C105.793 24.8 105.817 24.732 105.865 24.684C105.913 24.628 105.977 24.6 106.057 24.6H109.093C109.997 24.6 110.705 24.82 111.217 25.26C111.737 25.692 111.997 26.324 111.997 27.156C111.997 27.988 111.737 28.62 111.217 29.052C110.705 29.484 109.997 29.7 109.093 29.7H106.933V32.724C106.933 32.804 106.905 32.872 106.849 32.928C106.801 32.976 106.737 33 106.657 33H106.057ZM109.033 28.728C110.241 28.728 110.845 28.204 110.845 27.156C110.845 26.644 110.693 26.252 110.389 25.98C110.093 25.708 109.641 25.572 109.033 25.572H106.933V28.728H109.033ZM116.624 33C116.56 33 116.504 32.976 116.456 32.928C116.408 32.88 116.384 32.824 116.384 32.76L116.408 32.628L119.384 24.864C119.448 24.688 119.576 24.6 119.768 24.6H120.536C120.728 24.6 120.856 24.688 120.92 24.864L123.896 32.628L123.92 32.76C123.92 32.824 123.892 32.88 123.836 32.928C123.788 32.976 123.732 33 123.668 33H123.104C123.024 33 122.956 32.98 122.9 32.94C122.852 32.892 122.82 32.844 122.804 32.796L122.132 31.068H118.16L117.5 32.796C117.436 32.932 117.336 33 117.2 33H116.624ZM118.508 30.072H121.796L120.152 25.764L118.508 30.072ZM131.08 33C131 33 130.932 32.976 130.876 32.928C130.828 32.872 130.804 32.804 130.804 32.724V29.88L127.912 24.996C127.888 24.948 127.876 24.896 127.876 24.84C127.876 24.776 127.9 24.72 127.948 24.672C127.996 24.624 128.052 24.6 128.116 24.6H128.692C128.836 24.6 128.94 24.668 129.004 24.804L131.38 28.728L133.744 24.804C133.824 24.668 133.928 24.6 134.056 24.6H134.632C134.696 24.6 134.752 24.624 134.8 24.672C134.856 24.72 134.884 24.776 134.884 24.84C134.884 24.88 134.868 24.932 134.836 24.996L131.944 29.88V32.724C131.944 32.804 131.916 32.872 131.86 32.928C131.812 32.976 131.744 33 131.656 33H131.08ZM140.771 33C140.691 33 140.623 32.976 140.567 32.928C140.519 32.872 140.495 32.804 140.495 32.724V24.888C140.495 24.8 140.519 24.732 140.567 24.684C140.615 24.628 140.683 24.6 140.771 24.6H141.335C141.479 24.6 141.579 24.66 141.635 24.78L144.191 29.688L146.771 24.78C146.835 24.66 146.931 24.6 147.059 24.6H147.623C147.711 24.6 147.779 24.628 147.827 24.684C147.875 24.732 147.899 24.8 147.899 24.888V32.724C147.899 32.804 147.871 32.872 147.815 32.928C147.767 32.976 147.703 33 147.623 33H147.071C146.991 33 146.927 32.976 146.879 32.928C146.831 32.872 146.807 32.804 146.807 32.724V26.76L144.755 30.732C144.675 30.9 144.547 30.984 144.371 30.984H144.011C143.843 30.984 143.715 30.9 143.627 30.732L141.587 26.76V32.724C141.587 32.804 141.559 32.872 141.503 32.928C141.455 32.976 141.391 33 141.311 33H140.771ZM154.474 33C154.394 33 154.33 32.976 154.282 32.928C154.234 32.872 154.21 32.804 154.21 32.724V24.888C154.21 24.8 154.234 24.732 154.282 24.684C154.33 24.628 154.394 24.6 154.474 24.6H159.406C159.494 24.6 159.562 24.628 159.61 24.684C159.666 24.732 159.694 24.8 159.694 24.888V25.32C159.694 25.4 159.666 25.464 159.61 25.512C159.562 25.56 159.494 25.584 159.406 25.584H155.314V28.26H159.142C159.23 28.26 159.298 28.288 159.346 28.344C159.402 28.392 159.43 28.46 159.43 28.548V28.956C159.43 29.036 159.402 29.104 159.346 29.16C159.298 29.208 159.23 29.232 159.142 29.232H155.314V32.004H159.502C159.59 32.004 159.658 32.032 159.706 32.088C159.762 32.136 159.79 32.204 159.79 32.292V32.724C159.79 32.804 159.762 32.872 159.706 32.928C159.65 32.976 159.582 33 159.502 33H154.474ZM165.94 33C165.86 33 165.796 32.976 165.748 32.928C165.7 32.872 165.676 32.804 165.676 32.724V24.888C165.676 24.8 165.7 24.732 165.748 24.684C165.796 24.628 165.86 24.6 165.94 24.6H166.468C166.548 24.6 166.608 24.616 166.648 24.648C166.688 24.68 166.728 24.72 166.768 24.768L170.788 30.96V24.888C170.788 24.8 170.812 24.732 170.86 24.684C170.916 24.628 170.984 24.6 171.064 24.6H171.604C171.692 24.6 171.76 24.628 171.808 24.684C171.864 24.732 171.892 24.8 171.892 24.888V32.712C171.892 32.792 171.864 32.86 171.808 32.916C171.76 32.972 171.696 33 171.616 33H171.076C170.94 33 170.844 32.944 170.788 32.832L166.768 26.7V32.724C166.768 32.804 166.74 32.872 166.684 32.928C166.636 32.976 166.572 33 166.492 33H165.94ZM180.308 33C180.228 33 180.16 32.976 180.104 32.928C180.056 32.872 180.032 32.804 180.032 32.724V25.632H177.716C177.636 25.632 177.568 25.608 177.512 25.56C177.464 25.504 177.44 25.436 177.44 25.356V24.888C177.44 24.8 177.464 24.732 177.512 24.684C177.568 24.628 177.636 24.6 177.716 24.6H183.476C183.564 24.6 183.632 24.628 183.68 24.684C183.728 24.732 183.752 24.8 183.752 24.888V25.356C183.752 25.436 183.724 25.504 183.668 25.56C183.62 25.608 183.556 25.632 183.476 25.632H181.172V32.724C181.172 32.804 181.144 32.872 181.088 32.928C181.032 32.976 180.964 33 180.884 33H180.308ZM191.951 33.12C191.295 33.12 190.723 33.016 190.235 32.808C189.755 32.6 189.387 32.328 189.131 31.992C188.883 31.648 188.751 31.28 188.735 30.888C188.735 30.824 188.759 30.768 188.807 30.72C188.855 30.672 188.915 30.648 188.987 30.648H189.575C189.719 30.648 189.819 30.728 189.875 30.888C189.947 31.224 190.151 31.516 190.487 31.764C190.831 32.004 191.319 32.124 191.951 32.124C192.631 32.124 193.139 32.004 193.475 31.764C193.811 31.524 193.979 31.192 193.979 30.768C193.979 30.496 193.895 30.272 193.727 30.096C193.567 29.92 193.323 29.768 192.995 29.64C192.675 29.504 192.191 29.34 191.543 29.148C190.927 28.972 190.435 28.784 190.067 28.584C189.707 28.384 189.435 28.14 189.251 27.852C189.067 27.556 188.975 27.184 188.975 26.736C188.975 26.304 189.091 25.92 189.323 25.584C189.555 25.24 189.891 24.972 190.331 24.78C190.771 24.58 191.291 24.48 191.891 24.48C192.515 24.48 193.047 24.592 193.487 24.816C193.935 25.032 194.275 25.308 194.507 25.644C194.739 25.972 194.863 26.304 194.879 26.64C194.879 26.712 194.855 26.772 194.807 26.82C194.759 26.868 194.699 26.892 194.627 26.892H194.027C193.963 26.892 193.903 26.872 193.847 26.832C193.791 26.792 193.751 26.732 193.727 26.652C193.679 26.308 193.487 26.024 193.151 25.8C192.815 25.576 192.395 25.464 191.891 25.464C191.347 25.464 190.915 25.572 190.595 25.788C190.275 25.996 190.115 26.308 190.115 26.724C190.115 27.004 190.187 27.232 190.331 27.408C190.483 27.584 190.711 27.74 191.015 27.876C191.327 28.012 191.779 28.168 192.371 28.344C193.051 28.536 193.583 28.728 193.967 28.92C194.359 29.112 194.651 29.352 194.843 29.64C195.035 29.92 195.131 30.284 195.131 30.732C195.131 31.484 194.843 32.072 194.267 32.496C193.699 32.912 192.927 33.12 191.951 33.12Z" fill="#B69E6E" fill-opacity="0.8"/>
<g opacity="0.8">
<rect x="46.25" y="133.625" width="42.5" height="32.2619" rx="3.75" fill="url(#paint2_linear_89_1962)" stroke="#9F7E3B" stroke-width="0.5"/>
<path d="M46.6719 143.453H58.7812C59.8858 143.453 60.7812 144.349 60.7812 145.453V151.348M60.7812 165.491V159.242M60.7812 159.242V151.348M60.7812 159.242H46.6719M60.7812 151.348H46.6719" stroke="black" stroke-opacity="0.76" stroke-width="0.5"/>
<path d="M88.3281 143.453H74.8906M74.8906 143.453V151.348M74.8906 143.453V134.047M74.8906 165.491V159.242M74.8906 159.242V151.348M74.8906 159.242H88.3281M74.8906 151.348H88.3281" stroke="black" stroke-opacity="0.76" stroke-width="0.5"/>
</g>
<defs>
<filter id="filter0_d_89_1962" x="333.743" y="133.378" width="41.7837" height="41.7837" filterUnits="userSpaceOnUse" color-interpolation-filters="sRGB">
<feFlood flood-opacity="0" result="BackgroundImageFix"/>
<feColorMatrix in="SourceAlpha" type="matrix" values="0 0 0 0 0 0 0 0 0 0 0 0 0 0 0 0 0 0 127 0" result="hardAlpha"/>
<feOffset dy="4"/>
<feGaussianBlur stdDeviation="2"/>
<feComposite in2="hardAlpha" operator="out"/>
<feColorMatrix type="matrix" values="0 0 0 0 0 0 0 0 0 0 0 0 0 0 0 0 0 0 0.25 0"/>
<feBlend mode="normal" in2="BackgroundImageFix" result="effect1_dropShadow_89_1962"/>
<feBlend mode="normal" in="SourceGraphic" in2="effect1_dropShadow_89_1962" result="shape"/>
</filter>
<filter id="filter1_b_89_1962" x="-44" y="-44" width="519" height="358" filterUnits="userSpaceOnUse" color-interpolation-filters="sRGB">
<feFlood flood-opacity="0" result="BackgroundImageFix"/>
<feGaussianBlur in="BackgroundImageFix" stdDeviation="22"/>
<feComposite in2="SourceAlpha" operator="in" result="effect1_backgroundBlur_89_1962"/>
<feBlend mode="normal" in="SourceGraphic" in2="effect1_backgroundBlur_89_1962" result="shape"/>
</filter>
<filter id="filter2_d_89_1962" x="56.0107" y="222.19" width="164.038" height="8.94214" filterUnits="userSpaceOnUse" color-interpolation-filters="sRGB">
<feFlood flood-opacity="0" result="BackgroundImageFix"/>
<feColorMatrix in="SourceAlpha" type="matrix" values="0 0 0 0 0 0 0 0 0 0 0 0 0 0 0 0 0 0 127 0" result="hardAlpha"/>
<feOffset dx="-1" dy="1"/>
<feComposite in2="hardAlpha" operator="out"/>
<feColorMatrix type="matrix" values="0 0 0 0 0 0 0 0 0 0 0 0 0 0 0 0 0 0 0.5 0"/>
<feBlend mode="normal" in2="BackgroundImageFix" result="effect1_dropShadow_89_1962"/>
<feBlend mode="normal" in="SourceGraphic" in2="effect1_dropShadow_89_1962" result="shape"/>
</filter>
<filter id="filter3_d_89_1962" x="49.6177" y="67.6399" width="329.707" height="20.552" filterUnits="userSpaceOnUse" color-interpolation-filters="sRGB">
<feFlood flood-opacity="0" result="BackgroundImageFix"/>
<feColorMatrix in="SourceAlpha" type="matrix" values="0 0 0 0 0 0 0 0 0 0 0 0 0 0 0 0 0 0 127 0" result="hardAlpha"/>
<feOffset dx="-1" dy="5"/>
<feGaussianBlur stdDeviation="2"/>
<feComposite in2="hardAlpha" operator="out"/>
<feColorMatrix type="matrix" values="0 0 0 0 0 0 0 0 0 0 0 0 0 0 0 0 0 0 0.5 0"/>
<feBlend mode="normal" in2="BackgroundImageFix" result="effect1_dropShadow_89_1962"/>
<feBlend mode="normal" in="SourceGraphic" in2="effect1_dropShadow_89_1962" result="shape"/>
</filter>
<linearGradient id="paint0_linear_89_1962" x1="-158.829" y1="-223.922" x2="533.741" y2="285.049" gradientUnits="userSpaceOnUse">
<stop stop-color="white" stop-opacity="0.39"/>
<stop offset="0.878276" stop-color="white" stop-opacity="0"/>
<stop offset="1" stop-color="#C4C4C4" stop-opacity="0"/>
</linearGradient>
<linearGradient id="paint1_linear_89_1962" x1="711.291" y1="327.656" x2="26.4943" y2="476.015" gradientUnits="userSpaceOnUse">
<stop offset="0.169141" stop-color="#7F7F7F" stop-opacity="0.23"/>
<stop offset="0.773958" stop-color="#5C5C5C"/>
</linearGradient>
<linearGradient id="paint2_linear_89_1962" x1="46" y1="133.375" x2="89" y2="166.297" gradientUnits="userSpaceOnUse">
<stop stop-color="#E6AC3C"/>
<stop offset="1" stop-color="#FFDA93"/>
</linearGradient>
</defs>
</svg>
