<svg width="197" height="132" viewBox="0 0 197 132" fill="none" xmlns="http://www.w3.org/2000/svg">
<rect width="197" height="132" rx="18" fill="#81B441"/>
<path d="M192 70.5401C192 70.5401 175.71 62.9336 164.692 63.0004C134.344 63.1846 140.247 118.309 110.076 121.79C87.1204 124.438 78.3078 101.247 55.4592 97.7071C40.8587 95.4452 26.7484 104.672 14 111.889" stroke="#E3F4F1" stroke-width="2.38098" stroke-linecap="round" stroke-linejoin="round"/>
<circle cx="55" cy="98" r="4" fill="white" stroke="#E3F4F1" stroke-width="2.38098"/>
<circle cx="109" cy="121" r="4" fill="white" stroke="#E3F4F1" stroke-width="2.38098"/>
<circle cx="165" cy="63" r="4" fill="white" stroke="#E3F4F1" stroke-width="2.38098"/>
<path d="M191 52L183.456 66.7901C171.433 90.364 148.45 107.589 122.021 106.255C116.586 105.981 111.288 105.429 106.596 104.47C83.2397 99.6968 74.1143 79.6511 50.3261 79.8139C27.5966 79.9696 18.5313 103.972 7 123" stroke="#C2F3A6" stroke-width="2.38098" stroke-linecap="round" stroke-linejoin="round"/>
<circle cx="50" cy="80" r="4" fill="white" stroke="#C2F3A6" stroke-width="2.38098"/>
<ellipse cx="106.5" cy="103" rx="3.5" ry="4" fill="white" stroke="#C2F3A6" stroke-width="2.38098"/>
<ellipse cx="162.5" cy="91" rx="3.5" ry="4" fill="white" stroke="#C2F3A6" stroke-width="2.38098"/>
<path d="M29.49 46.274C29.3433 46.274 29.2187 46.23 29.116 46.142C29.028 46.0393 28.984 45.9147 28.984 45.768V41.17H24.43C24.2833 41.17 24.1587 41.126 24.056 41.038C23.968 40.9353 23.924 40.8107 23.924 40.664V40.004C23.924 39.8573 23.968 39.74 24.056 39.652C24.1587 39.5493 24.2833 39.498 24.43 39.498H28.984V35.032C28.984 34.8707 29.028 34.746 29.116 34.658C29.2187 34.57 29.3433 34.526 29.49 34.526H30.194C30.3553 34.526 30.48 34.57 30.568 34.658C30.656 34.746 30.7 34.8707 30.7 35.032V39.498H35.254C35.4007 39.498 35.518 39.5493 35.606 39.652C35.7087 39.74 35.76 39.8573 35.76 40.004V40.664C35.76 40.8107 35.7087 40.9353 35.606 41.038C35.518 41.126 35.4007 41.17 35.254 41.17H30.7V45.768C30.7 45.9147 30.6487 46.0393 30.546 46.142C30.458 46.23 30.3407 46.274 30.194 46.274H29.49ZM37.711 47C37.5643 47 37.4396 46.956 37.337 46.868C37.249 46.7653 37.205 46.6407 37.205 46.494V45.834C37.205 45.4967 37.3883 45.174 37.755 44.866L42.551 40.092C43.6363 39.168 44.3843 38.4127 44.795 37.826C45.2056 37.2393 45.411 36.616 45.411 35.956C45.411 35.0907 45.169 34.416 44.685 33.932C44.201 33.4333 43.497 33.184 42.573 33.184C41.693 33.184 40.9963 33.4407 40.483 33.954C39.9696 34.4673 39.6543 35.1567 39.537 36.022C39.5076 36.1833 39.4343 36.308 39.317 36.396C39.1996 36.484 39.0823 36.528 38.965 36.528H37.909C37.777 36.528 37.667 36.484 37.579 36.396C37.491 36.308 37.447 36.2053 37.447 36.088C37.4763 35.3107 37.6816 34.5627 38.063 33.844C38.459 33.1107 39.0383 32.5167 39.801 32.062C40.5636 31.5927 41.4876 31.358 42.573 31.358C44.2156 31.358 45.4476 31.7907 46.269 32.656C47.105 33.5067 47.523 34.592 47.523 35.912C47.523 36.836 47.2956 37.672 46.841 38.42C46.401 39.1533 45.7043 39.9307 44.751 40.752L40.417 45.152H47.347C47.5083 45.152 47.633 45.196 47.721 45.284C47.809 45.372 47.853 45.4967 47.853 45.658V46.494C47.853 46.6407 47.8016 46.7653 47.699 46.868C47.611 46.956 47.4936 47 47.347 47H37.711ZM50.5586 47C50.4119 47 50.2873 46.956 50.1846 46.868C50.0966 46.7653 50.0526 46.6407 50.0526 46.494V45.834C50.0526 45.4967 50.2359 45.174 50.6026 44.866L55.3986 40.092C56.4839 39.168 57.2319 38.4127 57.6426 37.826C58.0533 37.2393 58.2586 36.616 58.2586 35.956C58.2586 35.0907 58.0166 34.416 57.5326 33.932C57.0486 33.4333 56.3446 33.184 55.4206 33.184C54.5406 33.184 53.8439 33.4407 53.3306 33.954C52.8173 34.4673 52.5019 35.1567 52.3846 36.022C52.3553 36.1833 52.2819 36.308 52.1646 36.396C52.0473 36.484 51.9299 36.528 51.8126 36.528H50.7566C50.6246 36.528 50.5146 36.484 50.4266 36.396C50.3386 36.308 50.2946 36.2053 50.2946 36.088C50.3239 35.3107 50.5293 34.5627 50.9106 33.844C51.3066 33.1107 51.8859 32.5167 52.6486 32.062C53.4113 31.5927 54.3353 31.358 55.4206 31.358C57.0633 31.358 58.2953 31.7907 59.1166 32.656C59.9526 33.5067 60.3706 34.592 60.3706 35.912C60.3706 36.836 60.1433 37.672 59.6886 38.42C59.2486 39.1533 58.5519 39.9307 57.5986 40.752L53.2646 45.152H60.1946C60.3559 45.152 60.4806 45.196 60.5686 45.284C60.6566 45.372 60.7006 45.4967 60.7006 45.658V46.494C60.7006 46.6407 60.6493 46.7653 60.5466 46.868C60.4586 46.956 60.3413 47 60.1946 47H50.5586ZM63.4063 47C63.2596 47 63.1349 46.956 63.0323 46.868C62.9443 46.7653 62.9003 46.6407 62.9003 46.494V45.834C62.9003 45.4967 63.0836 45.174 63.4503 44.866L68.2463 40.092C69.3316 39.168 70.0796 38.4127 70.4903 37.826C70.9009 37.2393 71.1063 36.616 71.1063 35.956C71.1063 35.0907 70.8643 34.416 70.3803 33.932C69.8963 33.4333 69.1923 33.184 68.2683 33.184C67.3883 33.184 66.6916 33.4407 66.1783 33.954C65.6649 34.4673 65.3496 35.1567 65.2323 36.022C65.2029 36.1833 65.1296 36.308 65.0123 36.396C64.8949 36.484 64.7776 36.528 64.6603 36.528H63.6043C63.4723 36.528 63.3623 36.484 63.2743 36.396C63.1863 36.308 63.1423 36.2053 63.1423 36.088C63.1716 35.3107 63.3769 34.5627 63.7583 33.844C64.1543 33.1107 64.7336 32.5167 65.4963 32.062C66.2589 31.5927 67.1829 31.358 68.2683 31.358C69.9109 31.358 71.1429 31.7907 71.9643 32.656C72.8003 33.5067 73.2183 34.592 73.2183 35.912C73.2183 36.836 72.9909 37.672 72.5363 38.42C72.0963 39.1533 71.3996 39.9307 70.4463 40.752L66.1123 45.152H73.0423C73.2036 45.152 73.3283 45.196 73.4163 45.284C73.5043 45.372 73.5483 45.4967 73.5483 45.658V46.494C73.5483 46.6407 73.4969 46.7653 73.3943 46.868C73.3063 46.956 73.1889 47 73.0423 47H63.4063ZM84.352 47C84.22 47 84.11 46.956 84.022 46.868C83.9487 46.7653 83.912 46.648 83.912 46.516C83.912 46.4133 83.9413 46.318 84 46.23L87.388 41.522C87.036 41.61 86.6253 41.654 86.156 41.654C85.1 41.6393 84.176 41.3973 83.384 40.928C82.592 40.444 81.9833 39.8207 81.558 39.058C81.1473 38.2807 80.942 37.452 80.942 36.572C80.942 35.692 81.1473 34.856 81.558 34.064C81.9833 33.272 82.6067 32.6267 83.428 32.128C84.264 31.6293 85.2687 31.38 86.442 31.38C87.6153 31.38 88.62 31.622 89.456 32.106C90.292 32.59 90.9227 33.228 91.348 34.02C91.7733 34.7973 91.986 35.6333 91.986 36.528C91.986 37.3347 91.8393 38.046 91.546 38.662C91.2673 39.278 90.8933 39.916 90.424 40.576L86.156 46.56C86.0533 46.692 85.9507 46.802 85.848 46.89C85.76 46.9633 85.628 47 85.452 47H84.352ZM86.442 39.916C87.0727 39.916 87.652 39.7767 88.18 39.498C88.708 39.2193 89.126 38.8307 89.434 38.332C89.742 37.8187 89.896 37.232 89.896 36.572C89.896 35.8973 89.742 35.3033 89.434 34.79C89.126 34.2767 88.708 33.8807 88.18 33.602C87.652 33.3233 87.0727 33.184 86.442 33.184C85.826 33.184 85.254 33.3233 84.726 33.602C84.2127 33.8807 83.802 34.2767 83.494 34.79C83.186 35.3033 83.032 35.8973 83.032 36.572C83.032 37.232 83.186 37.8187 83.494 38.332C83.802 38.8307 84.2127 39.2193 84.726 39.498C85.2393 39.7767 85.8113 39.916 86.442 39.916ZM97.35 47C97.218 47 97.108 46.956 97.02 46.868C96.9467 46.7653 96.91 46.648 96.91 46.516C96.91 46.4133 96.9394 46.318 96.998 46.23L100.386 41.522C100.034 41.61 99.6234 41.654 99.154 41.654C98.098 41.6393 97.174 41.3973 96.382 40.928C95.59 40.444 94.9814 39.8207 94.556 39.058C94.1454 38.2807 93.94 37.452 93.94 36.572C93.94 35.692 94.1454 34.856 94.556 34.064C94.9814 33.272 95.6047 32.6267 96.426 32.128C97.262 31.6293 98.2667 31.38 99.44 31.38C100.613 31.38 101.618 31.622 102.454 32.106C103.29 32.59 103.921 33.228 104.346 34.02C104.771 34.7973 104.984 35.6333 104.984 36.528C104.984 37.3347 104.837 38.046 104.544 38.662C104.265 39.278 103.891 39.916 103.422 40.576L99.154 46.56C99.0514 46.692 98.9487 46.802 98.846 46.89C98.758 46.9633 98.626 47 98.45 47H97.35ZM99.44 39.916C100.071 39.916 100.65 39.7767 101.178 39.498C101.706 39.2193 102.124 38.8307 102.432 38.332C102.74 37.8187 102.894 37.232 102.894 36.572C102.894 35.8973 102.74 35.3033 102.432 34.79C102.124 34.2767 101.706 33.8807 101.178 33.602C100.65 33.3233 100.071 33.184 99.44 33.184C98.824 33.184 98.252 33.3233 97.724 33.602C97.2107 33.8807 96.8 34.2767 96.492 34.79C96.184 35.3033 96.03 35.8973 96.03 36.572C96.03 37.232 96.184 37.8187 96.492 38.332C96.8 38.8307 97.2107 39.2193 97.724 39.498C98.2374 39.7767 98.8094 39.916 99.44 39.916ZM113.032 47.22C111.14 47.22 109.754 46.67 108.874 45.57C108.009 44.4553 107.547 43.0033 107.488 41.214L107.466 39.322L107.488 37.364C107.532 35.5893 107.994 34.152 108.874 33.052C109.769 31.9373 111.155 31.38 113.032 31.38C114.924 31.38 116.31 31.9373 117.19 33.052C118.085 34.152 118.554 35.5893 118.598 37.364C118.613 37.7747 118.62 38.4273 118.62 39.322C118.62 40.1873 118.613 40.818 118.598 41.214C118.539 43.0033 118.07 44.4553 117.19 45.57C116.325 46.67 114.939 47.22 113.032 47.22ZM113.032 45.394C114.161 45.394 115.012 45.02 115.584 44.272C116.156 43.524 116.457 42.468 116.486 41.104C116.501 40.6787 116.508 40.07 116.508 39.278C116.508 38.4713 116.501 37.87 116.486 37.474C116.457 36.1247 116.149 35.076 115.562 34.328C114.99 33.5653 114.147 33.184 113.032 33.184C111.917 33.184 111.074 33.5653 110.502 34.328C109.93 35.076 109.629 36.1247 109.6 37.474L109.578 39.278L109.6 41.104C109.629 42.468 109.93 43.524 110.502 44.272C111.074 45.02 111.917 45.394 113.032 45.394ZM127.836 47C127.689 47 127.572 46.956 127.484 46.868C127.396 46.7653 127.352 46.6407 127.352 46.494V32.128C127.352 31.9667 127.396 31.842 127.484 31.754C127.572 31.6513 127.689 31.6 127.836 31.6H133.402C135.059 31.6 136.357 32.0033 137.296 32.81C138.249 33.602 138.726 34.7607 138.726 36.286C138.726 37.8113 138.249 38.97 137.296 39.762C136.357 40.554 135.059 40.95 133.402 40.95H129.442V46.494C129.442 46.6407 129.391 46.7653 129.288 46.868C129.2 46.956 129.083 47 128.936 47H127.836ZM133.292 39.168C135.507 39.168 136.614 38.2073 136.614 36.286C136.614 35.3473 136.335 34.6287 135.778 34.13C135.235 33.6313 134.407 33.382 133.292 33.382H129.442V39.168H133.292Z" fill="white"/>
<path d="M42.056 24.12C41.016 24.12 40.212 23.848 39.644 23.304C39.076 22.752 38.776 21.924 38.744 20.82C38.736 20.58 38.732 20.24 38.732 19.8C38.732 19.36 38.736 19.024 38.744 18.792C38.776 17.704 39.084 16.88 39.668 16.32C40.26 15.76 41.056 15.48 42.056 15.48C43.056 15.48 43.848 15.76 44.432 16.32C45.016 16.88 45.324 17.704 45.356 18.792C45.372 19.256 45.38 19.592 45.38 19.8C45.38 20 45.372 20.34 45.356 20.82C45.324 21.924 45.024 22.752 44.456 23.304C43.896 23.848 43.096 24.12 42.056 24.12ZM42.056 23.124C42.696 23.124 43.208 22.932 43.592 22.548C43.976 22.156 44.184 21.56 44.216 20.76C44.232 20.28 44.24 19.96 44.24 19.8C44.24 19.624 44.232 19.304 44.216 18.84C44.184 18.04 43.976 17.444 43.592 17.052C43.208 16.66 42.696 16.464 42.056 16.464C41.416 16.464 40.9 16.66 40.508 17.052C40.124 17.444 39.92 18.04 39.896 18.84C39.888 19.072 39.884 19.392 39.884 19.8C39.884 20.2 39.888 20.52 39.896 20.76C39.92 21.56 40.124 22.156 40.508 22.548C40.892 22.932 41.408 23.124 42.056 23.124ZM52.4217 20.736C52.4297 20.816 52.4337 20.944 52.4337 21.12C52.4337 21.272 52.4297 21.38 52.4217 21.444C52.3897 22.252 52.1337 22.9 51.6537 23.388C51.1737 23.876 50.4977 24.12 49.6257 24.12C48.7297 24.12 48.0457 23.868 47.5737 23.364C47.1017 22.852 46.8457 22.148 46.8057 21.252V19.812C46.8137 18.668 46.9657 17.812 47.2617 17.244C47.5657 16.668 47.9897 16.256 48.5337 16.008C49.0857 15.752 49.9777 15.464 51.2097 15.144L51.5337 15.06L51.5937 15.048C51.6497 15.048 51.7017 15.068 51.7497 15.108C51.7977 15.148 51.8297 15.2 51.8457 15.264L51.9417 15.72L51.9537 15.792C51.9537 15.912 51.8897 15.992 51.7617 16.032C51.6657 16.056 51.4537 16.108 51.1257 16.188C50.2137 16.404 49.5537 16.592 49.1457 16.752C48.7457 16.912 48.4377 17.164 48.2217 17.508C48.0057 17.852 47.8857 18.364 47.8617 19.044C48.0537 18.756 48.3257 18.52 48.6777 18.336C49.0297 18.152 49.4057 18.06 49.8057 18.06C50.6137 18.06 51.2417 18.308 51.6897 18.804C52.1457 19.292 52.3897 19.936 52.4217 20.736ZM51.3177 21.384C51.3257 21.328 51.3297 21.24 51.3297 21.12C51.3297 20.976 51.3257 20.868 51.3177 20.796C51.3017 20.196 51.1497 19.736 50.8617 19.416C50.5737 19.088 50.1977 18.924 49.7337 18.924C49.2057 18.924 48.7777 19.088 48.4497 19.416C48.1217 19.736 47.9457 20.196 47.9217 20.796L47.9097 21.12L47.9217 21.384C47.9457 21.984 48.1057 22.448 48.4017 22.776C48.7057 23.096 49.1137 23.256 49.6257 23.256C50.1297 23.256 50.5337 23.096 50.8377 22.776C51.1417 22.448 51.3017 21.984 51.3177 21.384ZM56.4906 24.12C55.6106 24.12 54.9306 23.872 54.4506 23.376C53.9786 22.88 53.7266 22.22 53.6946 21.396L53.6826 20.88L53.6946 20.364C53.7266 19.54 53.9826 18.88 54.4626 18.384C54.9506 17.888 55.6266 17.64 56.4906 17.64C57.3546 17.64 58.0266 17.888 58.5066 18.384C58.9946 18.88 59.2546 19.54 59.2866 20.364C59.3026 20.54 59.3106 20.712 59.3106 20.88C59.3106 21.048 59.3026 21.22 59.2866 21.396C59.2546 22.22 58.9986 22.88 58.5186 23.376C58.0466 23.872 57.3706 24.12 56.4906 24.12ZM56.4906 23.22C57.0026 23.22 57.4066 23.06 57.7026 22.74C58.0066 22.412 58.1706 21.944 58.1946 21.336C58.2026 21.256 58.2066 21.104 58.2066 20.88C58.2066 20.656 58.2026 20.504 58.1946 20.424C58.1706 19.816 58.0066 19.352 57.7026 19.032C57.4066 18.704 57.0026 18.54 56.4906 18.54C55.9786 18.54 55.5706 18.704 55.2666 19.032C54.9706 19.352 54.8106 19.816 54.7866 20.424L54.7746 20.88L54.7866 21.336C54.8106 21.944 54.9706 22.412 55.2666 22.74C55.5706 23.06 55.9786 23.22 56.4906 23.22ZM61.1138 26.28C61.0338 26.28 60.9658 26.256 60.9098 26.208C60.8618 26.16 60.8378 26.092 60.8378 26.004V18.036C60.8378 17.948 60.8618 17.88 60.9098 17.832C60.9658 17.784 61.0338 17.76 61.1138 17.76H61.6178C61.7058 17.76 61.7738 17.784 61.8218 17.832C61.8698 17.88 61.8938 17.948 61.8938 18.036V18.564C62.3578 17.948 63.0178 17.64 63.8738 17.64C64.7138 17.64 65.3418 17.908 65.7578 18.444C66.1818 18.972 66.4058 19.648 66.4298 20.472C66.4378 20.56 66.4418 20.696 66.4418 20.88C66.4418 21.064 66.4378 21.2 66.4298 21.288C66.4058 22.104 66.1818 22.78 65.7578 23.316C65.3418 23.852 64.7138 24.12 63.8738 24.12C63.0178 24.12 62.3698 23.816 61.9298 23.208V26.004C61.9298 26.084 61.9018 26.148 61.8458 26.196C61.7978 26.252 61.7338 26.28 61.6538 26.28H61.1138ZM63.6458 23.184C64.2218 23.184 64.6418 23.004 64.9058 22.644C65.1698 22.284 65.3138 21.812 65.3378 21.228C65.3458 21.148 65.3498 21.032 65.3498 20.88C65.3498 19.344 64.7818 18.576 63.6458 18.576C63.0858 18.576 62.6618 18.764 62.3738 19.14C62.0938 19.508 61.9458 19.944 61.9298 20.448C61.9218 20.536 61.9178 20.692 61.9178 20.916C61.9178 21.14 61.9218 21.296 61.9298 21.384C61.9458 21.872 62.0978 22.296 62.3858 22.656C62.6818 23.008 63.1018 23.184 63.6458 23.184ZM70.4828 24.12C69.6028 24.12 68.9228 23.872 68.4428 23.376C67.9708 22.88 67.7188 22.22 67.6868 21.396L67.6748 20.88L67.6868 20.364C67.7188 19.54 67.9748 18.88 68.4548 18.384C68.9428 17.888 69.6188 17.64 70.4828 17.64C71.3468 17.64 72.0188 17.888 72.4988 18.384C72.9868 18.88 73.2468 19.54 73.2788 20.364C73.2948 20.54 73.3028 20.712 73.3028 20.88C73.3028 21.048 73.2948 21.22 73.2788 21.396C73.2468 22.22 72.9908 22.88 72.5108 23.376C72.0388 23.872 71.3628 24.12 70.4828 24.12ZM70.4828 23.22C70.9948 23.22 71.3988 23.06 71.6948 22.74C71.9988 22.412 72.1628 21.944 72.1868 21.336C72.1948 21.256 72.1988 21.104 72.1988 20.88C72.1988 20.656 72.1948 20.504 72.1868 20.424C72.1628 19.816 71.9988 19.352 71.6948 19.032C71.3988 18.704 70.9948 18.54 70.4828 18.54C69.9708 18.54 69.5628 18.704 69.2588 19.032C68.9628 19.352 68.8028 19.816 68.7788 20.424L68.7668 20.88L68.7788 21.336C68.8028 21.944 68.9628 22.412 69.2588 22.74C69.5628 23.06 69.9708 23.22 70.4828 23.22ZM76.726 24C76.646 24 76.578 23.976 76.522 23.928C76.474 23.872 76.45 23.804 76.45 23.724V18.684H74.35C74.27 18.684 74.202 18.66 74.146 18.612C74.098 18.564 74.074 18.5 74.074 18.42V18.036C74.074 17.956 74.098 17.892 74.146 17.844C74.202 17.788 74.27 17.76 74.35 17.76H79.618C79.698 17.76 79.762 17.788 79.81 17.844C79.858 17.892 79.882 17.956 79.882 18.036V18.42C79.882 18.5 79.858 18.564 79.81 18.612C79.762 18.66 79.698 18.684 79.618 18.684H77.518V23.724C77.518 23.804 77.49 23.872 77.434 23.928C77.386 23.976 77.322 24 77.242 24H76.726Z" fill="white"/>
</svg>
