<svg width="62" height="62" viewBox="0 0 62 62" fill="none" xmlns="http://www.w3.org/2000/svg">
<rect width="62" height="62" rx="10" fill="#81B441"/>
<path d="M33.6735 36.027V32.7418C33.6735 31.4464 32.6196 30.3926 31.3243 30.3926C30.0289 30.3926 28.9751 31.4464 28.9751 32.7418V35.7079C28.9751 39.2824 27.6583 42.7142 25.267 45.3711L21.97 49.0344C21.693 49.3422 21.718 49.8162 22.0258 50.0933C22.3335 50.3703 22.8075 50.3453 23.0847 50.0375L26.3816 46.3742C29.021 43.4414 30.4746 39.6535 30.4746 35.7079V32.7418C30.4746 32.2732 30.8557 31.8921 31.3243 31.8921C31.7928 31.8921 32.174 32.2732 32.174 32.7418V36.027C32.174 40.4258 30.5445 44.6407 27.5855 47.8956L24.3717 51.4308C24.0932 51.737 24.1158 52.2114 24.4222 52.4899C24.5658 52.6205 24.7463 52.6848 24.9262 52.6848C25.1301 52.6848 25.3333 52.6021 25.4812 52.4394L28.6949 48.9042C31.9054 45.3728 33.6735 40.7996 33.6735 36.027Z" fill="#C2F3A6"/>
<path d="M36.8731 32.7429C36.8731 29.6837 34.3843 27.1948 31.3251 27.1948C28.2658 27.1948 25.777 29.6837 25.777 32.7429V35.7091C25.777 38.492 24.7517 41.1638 22.8901 43.2322L20.5462 45.8366C20.2692 46.1444 20.2942 46.6185 20.602 46.8956C20.9098 47.1726 21.3837 47.1474 21.6608 46.8398L24.0047 44.2354C26.1146 41.8911 27.2766 38.8631 27.2766 35.7091V32.7429C27.2766 30.5105 29.0927 28.6943 31.3252 28.6943C33.5576 28.6943 35.3738 30.5105 35.3738 32.7429V36.0281C35.3738 41.2242 33.4488 46.2035 29.9533 50.0485L27.2418 53.0313C26.9632 53.3376 26.9858 53.812 27.2922 54.0905C27.4358 54.2211 27.6163 54.2854 27.7962 54.2854C28.0001 54.2854 28.2032 54.2027 28.3512 54.04L31.0629 51.0571C34.8096 46.9355 36.8731 41.5982 36.8731 36.0281V32.7429Z" fill="#C2F3A6"/>
<path d="M40.0733 32.7396C40.0733 27.9165 36.1495 23.9927 31.3263 23.9927C26.5032 23.9927 22.5794 27.9165 22.5794 32.7396V35.7058C22.5794 37.6971 21.8457 39.6089 20.5136 41.089L18.4031 43.434C18.1261 43.7418 18.1511 44.2158 18.4589 44.4929C18.7666 44.7699 19.2408 44.7447 19.5178 44.4372L21.6282 42.0922C23.2086 40.3363 24.0789 38.0682 24.0789 35.7058V32.7396C24.0789 28.7433 27.33 25.4922 31.3263 25.4922C35.3227 25.4922 38.5738 28.7433 38.5738 32.7396V36.0249C38.5738 42.0186 36.3534 47.762 32.3215 52.197L31.5711 53.0225C31.2926 53.3289 31.3152 53.8031 31.6215 54.0816C31.7652 54.2122 31.9457 54.2765 32.1256 54.2765C32.3295 54.2765 32.5326 54.1939 32.6806 54.0311L33.4309 53.2056C37.7142 48.4939 40.0732 42.3925 40.0732 36.0249V32.7396H40.0733Z" fill="#C2F3A6"/>
<path d="M19.3796 32.7407C19.3796 33.1549 19.7153 33.4905 20.1294 33.4905C20.5434 33.4905 20.8791 33.1549 20.8791 32.7407C20.8791 30.2161 21.7957 27.7774 23.4601 25.8736C25.109 23.9876 27.3722 22.7542 29.8325 22.4007C30.2424 22.3419 30.5269 21.9618 30.468 21.552C30.4091 21.1422 30.0287 20.8581 29.6193 20.9166C26.8043 21.321 24.216 22.7309 22.3312 24.8868C20.4279 27.0637 19.3796 29.8531 19.3796 32.7407Z" fill="#C2F3A6"/>
<path d="M20.8796 35.7077C20.8796 35.2936 20.5439 34.958 20.1298 34.958C19.7158 34.958 19.3801 35.2936 19.3801 35.7077C19.3801 36.9075 18.9381 38.0592 18.1356 38.9509L16.2584 41.0369C15.9814 41.3446 16.0064 41.8186 16.3142 42.0957C16.4575 42.2247 16.6367 42.2882 16.8155 42.2882C17.0206 42.2882 17.225 42.2044 17.373 42.0399L19.2502 39.9541C20.3009 38.7866 20.8796 37.2786 20.8796 35.7077Z" fill="#C2F3A6"/>
<path d="M41.7994 42.4009C41.3986 42.2965 40.9892 42.536 40.8842 42.9364C40.6074 43.994 40.2631 45.0453 39.8605 46.0611C39.708 46.4461 39.8964 46.8818 40.2814 47.0343C40.3721 47.0702 40.4654 47.0872 40.5574 47.0872C40.8558 47.0872 41.138 46.9077 41.2547 46.6134C41.6794 45.5413 42.0428 44.432 42.3349 43.316C42.4396 42.9155 42.1998 42.5058 41.7994 42.4009Z" fill="#C2F3A6"/>
<path d="M39.3047 23.8571C38.9967 23.5801 38.5227 23.6054 38.2459 23.9133C37.9691 24.2212 37.9943 24.6953 38.3022 24.9721C40.5075 26.9546 41.7723 29.7861 41.7723 32.7408V36.026C41.7723 37.2729 41.6863 38.5293 41.5167 39.7606C41.4602 40.1709 41.7469 40.5491 42.157 40.6056C42.1917 40.6104 42.2262 40.6127 42.2603 40.6127C42.629 40.6127 42.9504 40.3406 43.002 39.9651C43.181 38.6663 43.2717 37.341 43.2717 36.0259V32.7408C43.2718 29.3614 41.8258 26.1235 39.3047 23.8571Z" fill="#C2F3A6"/>
<path d="M35.7992 23.3017C35.9033 23.3513 36.0129 23.3747 36.121 23.3747C36.4012 23.3747 36.67 23.2169 36.7985 22.9471C36.9765 22.5733 36.8177 22.1258 36.4439 21.9479C35.3637 21.4336 34.2156 21.0866 33.0315 20.9166C32.621 20.8581 32.2416 21.1423 32.1828 21.552C32.1239 21.9618 32.4084 22.3419 32.8182 22.4007C33.8527 22.5494 34.8555 22.8525 35.7992 23.3017Z" fill="#C2F3A6"/>
<path d="M31.3251 17.5981C31.0446 17.5981 30.7609 17.6059 30.4817 17.6213C30.0682 17.6441 29.7516 17.9978 29.7744 18.4112C29.7972 18.8246 30.1505 19.143 30.5643 19.1184C30.8161 19.1045 31.072 19.0975 31.325 19.0975C38.849 19.0975 44.9703 25.2187 44.9703 32.7428V36.028C44.9703 36.4422 45.3059 36.7778 45.72 36.7778C46.1341 36.7778 46.4697 36.4422 46.4697 36.028V32.7429C46.4698 24.3921 39.6759 17.5981 31.3251 17.5981Z" fill="#C2F3A6"/>
<path d="M23.1272 21.6656C23.2748 21.6656 23.4241 21.622 23.5545 21.5314C24.8019 20.664 26.1718 20.0164 27.6264 19.6062C28.025 19.4939 28.257 19.0796 28.1446 18.6812C28.0323 18.2827 27.6179 18.051 27.2195 18.1629C25.6041 18.6184 24.083 19.3374 22.6985 20.3001C22.3585 20.5365 22.2746 21.0037 22.511 21.3436C22.6566 21.5534 22.8899 21.6656 23.1272 21.6656Z" fill="#C2F3A6"/>
<path d="M17.6808 35.7072V32.7411C17.6808 29.2533 19.0016 25.9316 21.4 23.3878C21.684 23.0865 21.6701 22.6121 21.3688 22.328C21.0675 22.0439 20.593 22.058 20.309 22.3592C17.6472 25.1823 16.1813 28.8694 16.1813 32.7411V35.7072C16.1813 36.1154 16.0309 36.5072 15.758 36.8104L14.8336 37.8375C14.5566 38.1453 14.5816 38.6193 14.8893 38.8963C15.0326 39.0254 15.2119 39.0889 15.3907 39.0889C15.5958 39.0889 15.8001 39.0052 15.9482 38.8407L16.8727 37.8136C17.3938 37.2344 17.6808 36.4864 17.6808 35.7072Z" fill="#C2F3A6"/>
<path d="M48.7166 26.9026C47.8943 24.4588 46.5874 22.2511 44.8323 20.3407C44.5521 20.0358 44.0779 20.0156 43.773 20.2958C43.4681 20.576 43.448 21.0502 43.7281 21.3552C45.3403 23.11 46.5405 25.1373 47.2955 27.3807C47.4008 27.6939 47.6929 27.8915 48.0059 27.8915C48.0852 27.8915 48.1659 27.8788 48.2452 27.8522C48.6375 27.7201 48.8486 27.295 48.7166 26.9026Z" fill="#C2F3A6"/>
<path d="M37.2505 15.3799C36.8589 15.2459 36.4324 15.4547 36.2984 15.8466C36.1643 16.2383 36.3733 16.6646 36.765 16.7986C38.4183 17.3643 39.9704 18.1838 41.3784 19.2346C41.5131 19.3351 41.6703 19.3835 41.8263 19.3835C42.0548 19.3835 42.2805 19.2794 42.4278 19.0821C42.6755 18.7503 42.6071 18.2804 42.2753 18.0328C40.7421 16.8888 39.0515 15.9961 37.2505 15.3799Z" fill="#C2F3A6"/>
<path d="M19.6762 20.5859C22.83 17.562 26.9672 15.8967 31.3256 15.8967C32.1349 15.8967 32.9487 15.955 33.7443 16.0697C34.1545 16.1295 34.5344 15.8446 34.5935 15.4348C34.6527 15.0249 34.3685 14.6448 33.9587 14.5857C33.0922 14.4607 32.2063 14.3972 31.3256 14.3972C26.5785 14.3972 22.0728 16.2107 18.6385 19.5035C15.2149 22.7862 13.2127 27.1914 13.0008 31.9076C12.9822 32.3213 13.3025 32.6718 13.716 32.6902C13.7275 32.6908 13.7389 32.691 13.7503 32.691C14.1489 32.691 14.4807 32.3772 14.4987 31.975C14.6932 27.6453 16.5319 23.6006 19.6762 20.5859Z" fill="#C2F3A6"/>
<path d="M31.3258 11.1995C29.6492 11.1995 27.9784 11.3938 26.3601 11.7771C25.9571 11.8724 25.7079 12.2765 25.8033 12.6793C25.8988 13.0822 26.3028 13.3315 26.7057 13.2361C28.211 12.8798 29.7653 12.6989 31.3258 12.6989C36.8235 12.6989 41.9553 14.8893 45.7757 18.8663C45.923 19.0195 46.1195 19.0967 46.3165 19.0967C46.5034 19.0967 46.6905 19.0273 46.8359 18.8877C47.1345 18.6008 47.1441 18.1262 46.8572 17.8277C44.8666 15.7555 42.5283 14.1253 39.9074 12.9828C37.1927 11.7995 34.3054 11.1995 31.3258 11.1995Z" fill="#C2F3A6"/>
<path d="M14.4841 20.5361C14.6212 20.6435 14.7841 20.6956 14.9458 20.6956C15.1684 20.6956 15.3888 20.5969 15.5366 20.4081C17.6734 17.6788 20.4864 15.538 23.6715 14.217C24.0539 14.0584 24.2355 13.6197 24.0768 13.2373C23.9182 12.8548 23.4793 12.673 23.0971 12.8319C19.6742 14.2515 16.6515 16.5516 14.356 19.4835C14.1007 19.8097 14.1581 20.2809 14.4841 20.5361Z" fill="#C2F3A6"/>
<path d="M20.9296 11.8712C21.039 11.8712 21.15 11.8472 21.255 11.7964C24.4117 10.2722 27.7998 9.49948 31.3253 9.49948C33.1625 9.49948 34.9922 9.7156 36.7635 10.1419C37.1659 10.2384 37.5709 9.99091 37.6678 9.58835C37.7647 9.18579 37.5168 8.78083 37.1142 8.68396C35.2282 8.23012 33.2805 8 31.3253 8C27.5722 8 23.9648 8.82291 20.6031 10.446C20.2303 10.6261 20.0739 11.0743 20.2539 11.4472C20.3832 11.715 20.6509 11.8712 20.9296 11.8712Z" fill="#C2F3A6"/>
<path d="M39.8974 11.1371C40.6704 11.4449 41.4354 11.7988 42.1712 12.1887C42.2831 12.2481 42.4032 12.2762 42.5216 12.2762C42.7903 12.2762 43.0501 12.1314 43.1847 11.8774C43.3785 11.5115 43.2392 11.0577 42.8733 10.8638C42.0899 10.4486 41.2752 10.0719 40.4521 9.74409C40.0674 9.59085 39.6314 9.77858 39.4782 10.1631C39.325 10.5478 39.5128 10.984 39.8974 11.1371Z" fill="#C2F3A6"/>
</svg>
