<svg width="94" height="94" viewBox="0 0 94 94" fill="none" xmlns="http://www.w3.org/2000/svg">
<rect width="94" height="94" rx="16" fill="#81B441"/>
<path d="M55.0104 42.6779C54.5617 42.6779 54.1789 42.3068 54.1789 41.8562V34.6202C54.1789 30.8299 51.1172 27.7552 47.3429 27.7552C43.5686 27.7552 40.5068 30.8431 40.5068 34.6202V41.8562C40.5068 42.3068 40.1373 42.6779 39.6754 42.6779H35.0829C34.6342 42.6779 34.2646 42.3068 34.2646 41.8562V34.6202C34.2646 27.3709 40.1373 21.4734 47.3561 21.4734C54.5749 21.4734 60.4475 27.3709 60.4475 34.6202V41.8562C60.4475 42.3068 60.078 42.6779 59.6161 42.6779H55.0104Z" fill="#559029"/>
<path d="M47.3562 22.295C54.1131 22.295 59.6162 27.8214 59.6162 34.6068V41.8429H55.0236V34.6068C55.0236 30.3659 51.5924 26.9069 47.3562 26.9069C43.1331 26.9069 39.6887 30.3527 39.6887 34.6068V41.8429H35.0962V34.6068C35.0962 27.8214 40.5861 22.295 47.3562 22.295ZM47.3562 20.6516C39.6887 20.6516 33.4465 26.9202 33.4465 34.6201V41.8561C33.4465 42.7706 34.1856 43.5127 35.0962 43.5127H39.6887C40.5993 43.5127 41.3383 42.7706 41.3383 41.8561V34.6201C41.3383 31.2936 44.0305 28.5768 47.3562 28.5768C50.6686 28.5768 53.374 31.2936 53.374 34.6201V41.8561C53.374 42.7706 54.1131 43.5127 55.0236 43.5127H59.6162C60.5268 43.5127 61.2659 42.7706 61.2659 41.8561V34.6201C61.2659 26.9069 55.0237 20.6516 47.3562 20.6516Z" fill="#559029"/>
<path d="M32.0211 72.8678C30.9125 72.8678 30.0151 71.9666 30.0151 70.8534V43.0357C30.0151 41.9224 30.9125 41.0212 32.0211 41.0212H62.6909C63.7995 41.0212 64.6969 41.9224 64.6969 43.0357V70.8401C64.6969 71.9533 63.7995 72.8545 62.6909 72.8545H32.0211V72.8678Z" fill="#559029"/>
<path d="M62.691 41.8561C63.3377 41.8561 63.8656 42.3862 63.8656 43.0488V70.8532C63.8656 71.5026 63.3377 72.046 62.691 72.046H32.0212C31.3613 72.046 30.8466 71.5159 30.8466 70.8532V43.0356C30.8466 42.3862 31.3745 41.8428 32.0212 41.8428H62.691V41.8561ZM62.691 40.1995H32.0212C30.4639 40.1995 29.197 41.4717 29.197 43.0356V70.84C29.197 72.4038 30.4639 73.6761 32.0212 73.6761H62.691C64.2483 73.6761 65.5152 72.4038 65.5152 70.84V43.0356C65.5152 41.4717 64.2483 40.1995 62.691 40.1995Z" fill="#559029"/>
<path d="M62.6911 41.856H56.6997V63.7761C56.6997 64.4255 56.1718 64.9556 55.5119 64.9556H30.8335V70.8399C30.8335 71.4893 31.3614 72.0326 32.008 72.0326H62.6779C63.3246 72.0326 63.8524 71.5025 63.8524 70.8399V43.0355C63.8656 42.3861 63.3378 41.856 62.6911 41.856Z" fill="#559029"/>
<path d="M62.6911 41.856H60.4476V67.0893C60.4476 67.752 59.9197 68.2688 59.2599 68.2688H30.8335V70.8531C30.8335 71.5025 31.3614 72.0459 32.008 72.0459H62.6779C63.3246 72.0459 63.8524 71.5158 63.8524 70.8531V43.0355C63.8656 42.3861 63.3378 41.856 62.6911 41.856Z" fill="#559029"/>
<path d="M46.1988 60.0656C46.1988 59.8068 46.0391 59.5748 45.7973 59.4824C44.1591 58.8568 43.0052 57.2692 43.0052 55.4139C43.0052 53.015 44.9563 51.0684 47.343 51.0684C49.7417 51.0684 51.6807 53.014 51.6807 55.4139C51.6807 57.2692 50.5267 58.8568 48.8886 59.4824C48.6468 59.5748 48.487 59.8068 48.487 60.0656V62.3981C48.487 63.0365 47.9723 63.5497 47.343 63.5497C46.7136 63.5497 46.1988 63.0365 46.1988 62.3981V60.0656Z" fill="#559029" stroke="#ACE086" stroke-width="1.2486" stroke-miterlimit="10" stroke-linecap="round" stroke-linejoin="round"/>
</svg>
